<?xml version="1.0" encoding="utf-8"?>
<!-- Generator: Adobe Illustrator 24.1.2, SVG Export Plug-In . SVG Version: 6.00 Build 0)  -->
<svg version="1.1" id="Layer_1" xmlns="http://www.w3.org/2000/svg" xmlns:xlink="http://www.w3.org/1999/xlink" x="0px" y="0px"
	 viewBox="0 0 100 100" style="enable-background:new 0 0 100 100;" xml:space="preserve">
<style type="text/css">
	.st0{fill-rule:evenodd;clip-rule:evenodd;fill:#F0801B;}
	.st1{display:none;fill-rule:evenodd;clip-rule:evenodd;fill:#F0801B;}
	.st2{fill:#FFFFFF;}
</style>
<g id="Слой_x0020_1">
	<path class="st0" d="M14.6,1.5L84.8,1c7.8,0,14.1,6.2,14.1,13.9l0.4,69.8c0,7.7-6.2,14-14,14l-70.2,0.4C7.4,99.2,1.1,93,1.1,85.3
		L0.7,15.5C0.6,7.8,6.9,1.5,14.6,1.5z"/>
	<ellipse class="st1" cx="50.1" cy="50" rx="49.6" ry="49.6"/>
	<path class="st2" d="M27.4,57H15l-1.8,3.4H5.5l10.8-20.7h9.7l10.8,20.7h-7.8L27.4,57L27.4,57z M25,52.5l-3.9-7.4l-3.8,7.4H25
		L25,52.5z M35.6,39.8h11.7l4.5,12.5l4.5-12.5H68v20.7h-7.3V44.7l-5.6,15.8h-6.6l-5.6-15.8v15.8h-7.3L35.6,39.8L35.6,39.8z
		 M67.6,39.8h27.1v5.1h-9.1v15.6h-8.9V44.8h-9.1L67.6,39.8L67.6,39.8z"/>
</g>
</svg>
