<svg id="Layer_1" data-name="Layer 1" xmlns="http://www.w3.org/2000/svg" viewBox="0 0 1933.76 1933.76"><path d="M927.41,32h141.07c18.56,2.56,37.15,4.91,55.67,7.71,32.94,5,49.83,23.75,50.22,56.46.41,34.37.16,68.75.25,103.13.07,30.16,12.34,45,40.56,56,51.44,20,102.71,40.48,153.15,62.82,36.27,16.06,50.86,14.49,78.69-14.5,20.6-21.45,41.57-42.6,63.11-63.11,29.62-28.21,53.6-29.58,84.95-4,60,48.9,115,103.12,163.88,163.19,29.92,36.75,28,60.17-5.72,94.06-22.23,22.31-44.83,44.25-67,66.67-18.73,19-20.77,34.68-10.55,59.08q35.33,84.25,69.62,168.95c9.68,23.93,24.85,35.42,50.69,35.52,32.66.12,65.32-.15,98,0,42.78.21,57.43,12.17,65,54.1,3.31,18.35,5,37,7.5,55.49v134.2c-1.39,8.29-2.86,16.57-4.16,24.88-2.12,13.5-3,27.31-6.39,40.48-7.28,28.28-22.85,40.18-51.71,40.49-36.69.41-73.38.1-110.07.4-23.73.2-39.59,12-48.47,33.86-23,56.44-46,112.85-69.64,169-10.83,25.77-9.11,40.69,10.47,60.52,22.14,22.42,44.81,44.31,67,66.66,33.59,33.82,37.23,59,4.87,93.93-50.79,54.82-103.71,107.91-158.64,158.58-36.8,34-61.27,30.21-96.3-5.12-21-21.16-42-42.23-62.85-63.55s-39-23.38-66.54-11.41q-79.87,34.69-161,66.58c-26.07,10.31-38.41,25.55-38.48,54-.08,33.25.19,66.51-.17,99.76-.42,39.42-14.61,55.4-54,61.54-17.29,2.7-34.64,5-52,7.47H944.61c-12.45-1.41-24.93-2.63-37.35-4.26-14.07-1.84-28.46-2.7-42-6.4-28.36-7.7-39.83-23-40.21-51.91-.45-34.94-.19-69.9-.31-104.85-.11-30.72-10.41-43.37-39-54.82q-81.61-32.64-162.3-67.63c-25.59-11-42.1-9.75-62.26,9.88-24.2,23.57-47.81,47.76-71.77,71.59-26.73,26.58-53.23,29.44-82.48,6a1100.14,1100.14,0,0,1-171-170.72c-25.23-31.45-21.28-58.28,7.74-86.3,23.05-22.24,45.4-45.2,67.84-68.06,21.37-21.76,22.45-36.53,10.21-64.83q-34.55-79.87-66.58-160.83c-10.72-27-24.79-38.62-53.55-38.73-33.8-.13-67.61.19-101.41-.18-37.4-.41-53.75-14.77-59.7-52.06-2.87-17.94-5.08-36-7.59-54V930.07c1.38-8.3,2.81-16.59,4.13-24.89,2.24-14,3.14-28.44,6.87-42.07,7.47-27.33,22.75-38.56,51.09-38.9,36.11-.42,72.22-.19,108.33-.41,26.39-.16,41.72-12.51,51.51-37Q288,703.47,323.14,621c10.25-24.11,8.79-40.6-9.41-59.24-24-24.59-48.59-48.6-72.55-73.23-27.88-28.66-31.35-55.74-4-84.83,53.22-56.64,108.07-111.91,164.77-165,32.58-30.53,59.82-26.37,91.29,5.43q35.06,35.41,70.74,70.18c16.58,16.15,33.73,18.4,54.8,9.55Q703.8,288,789.17,253.08c24-9.78,35.26-24.81,35.38-50.75.17-33.82-.25-67.64.23-101.45.57-40,14.24-55.31,53.84-61.62C894.86,36.67,911.15,34.42,927.41,32Zm-399,1115.63c21,0,36.41,0,51.77,0,52.28.06,81.29-46.93,55.5-92.21Q575.42,949.61,512.57,845.24c-26.69-44.26-80.56-43.73-107.7.07-14.15,22.83-27.15,46.37-40.73,69.56C337,961.24,309.52,1007.44,282.67,1054c-26,45.08,1.89,93.41,53.66,93.66,16.63.08,33.27.37,49.88-.14,10.31-.32,15.36,3.5,18,13.83a428.22,428.22,0,0,0,14.85,45.49c63.72,168.76,180,287,346.42,354.86,106.68,43.47,217.66,54.32,331.36,33.1,93-17.36,178.31-53.39,253.27-111,130.81-100.53,210.94-231.93,235.9-396.1,11.85-78,9.14-155.14-9.88-231.49-39.12-157-126.71-280.5-263.1-367.16-137-87.06-286.1-115.81-446.34-83.3-118.27,24-219.46,79.07-305.4,163.11-14.45,14.13-23.9,30.65-21.69,51.81,2.74,26.3,16.36,45.21,41.1,54.1,26.41,9.51,49.29.82,69-17.89,10.38-9.84,20.24-20.35,31.36-29.27,107.39-86.14,229.51-122.28,366.49-106.34,95.15,11.08,180.37,47.42,252,110.33,122,107.11,178.41,243,167.59,405.74-6.91,103.94-44.54,196.49-113,273.89C1235,1446.1,1083.89,1501.85,906,1472.45c-157.38-26-272.94-113.79-347.05-255.18C548,1196.37,539.86,1174,528.42,1147.64Z" transform="translate(-32.79 -32.01)"/></svg>