<?xml version="1.0" encoding="utf-8"?>
<!-- Generator: Adobe Illustrator 24.1.2, SVG Export Plug-In . SVG Version: 6.00 Build 0)  -->
<svg version="1.1" xmlns="http://www.w3.org/2000/svg" xmlns:xlink="http://www.w3.org/1999/xlink" x="0px" y="0px"
	 viewBox="0 0 1000 1000" style="enable-background:new 0 0 1000 1000;" xml:space="preserve">
<style type="text/css">
	.st0{fill:#F39200;}
	.st1{fill:#FFFFFF;}
	.st2{fill:#F6F6F6;}
	.st3{display:none;fill:#FFFFFF;}
</style>
<g id="Layer_1">
	<g>
		<path class="st0" d="M9.7,499.6c0-114.4,0-228.8,0-343.2c0-72.3,52-133.3,123.3-144.7c7.2-1.1,14.5-1.8,21.8-1.8
			c230.4-0.1,460.9-0.2,691.3,0c67.8,0,128.5,50.5,141.1,117.1c1.8,9.5,2.9,19.3,2.9,29c0.2,229.5,0.1,458.9,0.1,688.4
			c0,71.6-52.2,132.7-123,144c-7.4,1.2-14.9,1.9-22.3,1.9c-230,0.1-459.9,0.1-689.9,0.1c-68.8,0-129.4-49.9-142.3-117.4
			c-1.9-9.7-2.9-19.6-2.9-29.5C9.6,728.8,9.7,614.2,9.7,499.6z M975.6,499.8c0-112.8,0-225.6,0-338.3c0-6.7-0.2-13.3-0.9-20
			c-3.1-32.1-17.2-59.1-40.4-81.1c-26.2-24.8-57.7-36.2-94-36.2c-226.4,0.2-452.7,0.1-679.1,0.1c-6.3,0-12.7,0.2-19,0.8
			c-32.3,3-59.5,17.1-81.6,40.4c-24.8,26.2-36.3,57.7-36.3,93.9c0.2,225.9,0.1,451.8,0.1,677.7c0,7.1,0.2,14.3,0.9,21.4
			c3.4,32.6,17.8,59.9,41.7,82c26.1,24.1,57.3,35.1,93,35c226.7-0.2,453.4-0.1,680.1-0.1c2.9,0,5.9,0.2,8.8-0.1
			c8.9-1,17.9-1.4,26.5-3.6c59.8-15.1,100.8-69.4,100.4-130.3C975.1,727.7,975.6,613.8,975.6,499.8z"/>
		<path class="st1" d="M975.6,499.8c0,113.9-0.5,227.8,0.2,341.8c0.4,60.9-40.6,115.2-100.4,130.3c-8.6,2.2-17.6,2.6-26.5,3.6
			c-2.9,0.3-5.9,0.1-8.8,0.1c-226.7,0-453.4-0.1-680.1,0.1c-35.7,0-66.8-10.9-93-35c-23.9-22.1-38.3-49.3-41.7-82
			c-0.7-7.1-0.9-14.3-0.9-21.4c0-225.9,0.1-451.8-0.1-677.7c0-36.3,11.5-67.7,36.3-93.9c22.1-23.3,49.3-37.4,81.6-40.4
			c6.3-0.6,12.7-0.8,19-0.8c226.4,0,452.7,0.1,679.1-0.1c36.3,0,67.8,11.4,94,36.2c23.2,21.9,37.3,48.9,40.4,81.1
			c0.6,6.6,0.9,13.3,0.9,20C975.6,274.3,975.6,387.1,975.6,499.8z M500,964.8c112.6,0,225.2,0,337.9,0c6,0,12.1-0.3,18-1.2
			c62.4-8.8,109-62.5,109-125.6c0-225.4,0-450.8,0-676.2c0-5.8-0.3-11.7-1.1-17.5C955,82,901.1,35.2,838.2,35.2
			c-225.4,0-450.8,0-676.2,0c-5.8,0-11.7,0.4-17.5,1.1C82.8,44.6,35.2,98.6,35.2,160.7c-0.1,226.2,0,452.4,0,678.7
			c0,5.5,0.4,11.1,1.2,16.5c9.4,63.2,62.7,108.9,126.7,108.9C275.4,964.8,387.7,964.8,500,964.8z"/>
		<path class="st0" d="M500,964.8c-112.3,0-224.6,0-336.9,0c-64,0-117.3-45.7-126.7-108.9c-0.8-5.5-1.2-11-1.2-16.5
			c-0.1-226.2-0.1-452.4,0-678.7c0-62.1,47.6-116.2,109.2-124.4c5.8-0.8,11.7-1.1,17.5-1.1c225.4-0.1,450.8-0.1,676.2,0
			c62.9,0,116.8,46.9,125.5,109.1c0.8,5.8,1.1,11.7,1.1,17.5c0.1,225.4,0.1,450.8,0,676.2c0,63.1-46.6,116.7-109,125.6
			c-5.9,0.8-12,1.2-18,1.2C725.2,964.9,612.6,964.8,500,964.8z"/>
	</g>
	<g id="Layer_x0020_1">
		<g>
			<path class="st1" d="M98.4,796.7h52.8c10.4,0,18.8,1.4,25.2,4.2c6.4,2.8,11.7,6.9,15.9,12.2c4.2,5.3,7.2,11.4,9.1,18.4
				s2.8,14.4,2.8,22.3c0,12.3-1.4,21.8-4.2,28.6c-2.8,6.8-6.7,12.4-11.7,17c-5,4.6-10.3,7.6-16,9.1c-7.8,2.1-14.9,3.1-21.2,3.1H98.4
				V796.7z M133.9,822.8v62.8h8.7c7.4,0,12.7-0.8,15.8-2.5c3.1-1.6,5.6-4.5,7.4-8.6c1.8-4.1,2.7-10.8,2.7-20c0-12.2-2-20.5-6-25
				c-4-4.5-10.6-6.7-19.8-6.7H133.9z"/>
			<path class="st1" d="M222.8,796.7h95.2v24.6h-59.6v18.3h55.3V863h-55.3v22.7h61.4v26h-97V796.7z"/>
			<path class="st1" d="M332.7,873.7l33.8-2.1c0.7,5.5,2.2,9.7,4.5,12.6c3.7,4.7,8.9,7,15.7,7c5.1,0,9-1.2,11.7-3.6
				c2.7-2.4,4.1-5.1,4.1-8.3c0-3-1.3-5.6-3.9-8c-2.6-2.4-8.7-4.6-18.2-6.7c-15.6-3.5-26.7-8.2-33.3-14c-6.7-5.8-10-13.2-10-22.2
				c0-5.9,1.7-11.5,5.1-16.8c3.4-5.3,8.6-9.4,15.5-12.4c6.9-3,16.3-4.5,28.3-4.5c14.7,0,25.9,2.7,33.6,8.2
				c7.7,5.5,12.3,14.2,13.8,26.1l-33.5,2c-0.9-5.2-2.8-8.9-5.6-11.3c-2.9-2.4-6.8-3.5-11.8-3.5c-4.1,0-7.2,0.9-9.3,2.6
				c-2.1,1.8-3.1,3.9-3.1,6.4c0,1.8,0.9,3.5,2.6,4.9c1.7,1.5,5.6,2.9,11.9,4.2c15.5,3.3,26.7,6.7,33.4,10.2
				c6.7,3.4,11.6,7.7,14.7,12.7c3.1,5.1,4.6,10.7,4.6,17c0,7.4-2,14.2-6.1,20.4c-4.1,6.2-9.8,10.9-17.1,14.2
				c-7.3,3.2-16.6,4.8-27.7,4.8c-19.6,0-33.1-3.8-40.6-11.3C338,894.9,333.7,885.3,332.7,873.7z"/>
			<path class="st1" d="M455.1,796.7h35.5v43.5l37.2-43.5h47.3l-42,43.4l43.9,71.6h-43.8L509,864.5l-18.4,19.2v28.1h-35.5V796.7z"/>
			<path class="st1" d="M580.7,796.7h108v28.4h-36.2v86.6H617v-86.6h-36.2V796.7z"/>
			<path class="st1" d="M694.9,854.3c0-18.8,5.2-33.4,15.7-43.9c10.5-10.5,25-15.7,43.7-15.7c19.1,0,33.9,5.1,44.2,15.4
				c10.4,10.3,15.5,24.7,15.5,43.2c0,13.4-2.3,24.5-6.8,33.1c-4.5,8.6-11.1,15.3-19.6,20.1c-8.6,4.8-19.2,7.2-32,7.2
				c-13,0-23.7-2.1-32.2-6.2c-8.5-4.1-15.4-10.7-20.7-19.6C697.5,879,694.9,867.8,694.9,854.3z M730.4,854.5c0,11.6,2.2,20,6.5,25
				c4.3,5.1,10.2,7.6,17.6,7.6c7.6,0,13.5-2.5,17.7-7.5c4.2-5,6.3-13.9,6.3-26.8c0-10.8-2.2-18.7-6.6-23.7c-4.4-5-10.3-7.5-17.8-7.5
				c-7.2,0-12.9,2.5-17.3,7.6C732.6,834.4,730.4,842.8,730.4,854.5z"/>
			<path class="st1" d="M833,796.7h59.1c12.9,0,22.5,3.1,28.9,9.2c6.4,6.1,9.6,14.8,9.6,26.1c0,11.6-3.5,20.7-10.5,27.2
				c-7,6.5-17.6,9.8-32,9.8h-19.5v42.7H833V796.7z M868.7,845.8h8.7c6.9,0,11.7-1.2,14.4-3.6c2.8-2.4,4.2-5.4,4.2-9.1
				c0-3.6-1.2-6.7-3.6-9.2c-2.4-2.5-6.9-3.8-13.6-3.8h-10.1V845.8z"/>
		</g>
		<g>
			<path class="st1" d="M90.9,320h54.7c11.9,0,20.8,2.8,26.8,8.5c5.9,5.7,8.9,13.7,8.9,24.2c0,10.8-3.2,19.2-9.7,25.2
				c-6.5,6.1-16.3,9.1-29.6,9.1h-18v39.5H90.9V320z M124,365.4h8.1c6.3,0,10.8-1.1,13.4-3.3c2.6-2.2,3.9-5,3.9-8.5
				c0-3.3-1.1-6.2-3.3-8.5c-2.2-2.3-6.4-3.5-12.6-3.5H124V365.4z"/>
			<path class="st1" d="M258.8,408.9h-37.4l-5.2,17.6h-33.6l40-106.5h35.9l40,106.5h-34.5L258.8,408.9z M252,385.9l-11.8-38.3
				l-11.6,38.3H252z"/>
			<path class="st1" d="M316.7,320h30.7l40.1,58.9V320h31v106.5h-31L347.7,368v58.5h-31V320z"/>
			<path class="st1" d="M501.5,387.9v-22.2h50.9v45.4c-9.7,6.6-18.3,11.2-25.8,13.6c-7.5,2.4-16.4,3.6-26.6,3.6
				c-12.6,0-23-2.2-30.9-6.5c-8-4.3-14.1-10.7-18.5-19.3c-4.4-8.5-6.6-18.3-6.6-29.4c0-11.6,2.4-21.7,7.2-30.3
				c4.8-8.6,11.8-15.1,21.1-19.6c7.2-3.4,16.9-5.2,29.1-5.2c11.8,0,20.6,1.1,26.4,3.2c5.8,2.1,10.7,5.4,14.5,9.9
				c3.9,4.5,6.7,10.2,8.7,17l-31.8,5.7c-1.3-4-3.5-7.1-6.6-9.2c-3.1-2.1-7.1-3.2-12-3.2c-7.2,0-13,2.5-17.3,7.5
				c-4.3,5-6.4,12.9-6.4,23.8c0,11.5,2.2,19.8,6.5,24.7c4.3,4.9,10.4,7.4,18.1,7.4c3.7,0,7.2-0.5,10.5-1.6c3.3-1.1,7.2-2.9,11.5-5.5
				v-10H501.5z"/>
			<path class="st1" d="M644.8,408.9h-37.4l-5.2,17.6h-33.6l40-106.5h35.9l40,106.5h-34.5L644.8,408.9z M638,385.9l-11.8-38.3
				l-11.6,38.3H638z"/>
			<path class="st1" d="M702.5,320h88.2v22.7h-55.2v16.9h51.2v21.7h-51.2v21h56.8v24.1h-89.8V320z"/>
			<path class="st1" d="M882.9,408.9h-37.4l-5.2,17.6h-33.6l40-106.5h35.9l40,106.5h-34.5L882.9,408.9z M876.1,385.9l-11.8-38.3
				l-11.6,38.3H876.1z"/>
		</g>
		<path class="st2" d="M290.3,252.7l-112.2,0l-16.2,30.8H93.2L191,96.9h87.7l97.9,186.5h-70.1L290.3,252.7z M269.1,212.2l-35.1-67
			l-34.7,67H269.1z M365,96.9h105.8l40.8,113.5l40.7-113.5h105.4v186.5h-65.7V141.2l-51,142.2h-59.5l-50.8-142.2v142.2H365L365,96.9
			L365,96.9z M654.5,96.9h244.5V143h-82.1v140.4h-80.4V143h-82V96.9z"/>
	</g>
</g>
<g id="Layer_2">
	<g>
		<path class="st3" d="M203.9,759.9c0-104.4,0-208.6,0-312.8c182.9,0,365.9,0,548.8,0c0,104.3,0,208.5,0,312.8
			C569.8,759.9,386.9,759.9,203.9,759.9z M585.1,603.7c0,41.3,0,82.5,0,123.8c0,11.9,6.4,18.5,18.2,18.5c37.7,0,75.4,0,113,0
			c11.8,0,18.3-6.6,18.3-18.5c0-82.5,0-165.1,0-247.6c0-11.9-6.7-18.6-18.7-18.6c-37.4,0-74.8,0-112.2,0c-12,0-18.6,6.7-18.6,18.6
			C585.1,521.2,585.1,562.5,585.1,603.7z M422.8,706c0.1-0.3,0.3-0.7,0.4-1c1.5,0,3,0,4.4,0c20.6,0,41.3,0,61.9,0
			c19.3,0,38.5,0.1,57.8,0c11.7-0.1,18.1-6.6,18.1-18.2c0-69.1,0-138.1,0-207.2c0-2-0.1-4.2-0.6-6.1c-2.2-7.8-8.6-12.2-18-12.2
			c-42.6,0-85.3,0-127.9,0c-61.8,0-123.5,0-185.3,0c-12.3,0-19,6.7-19,18.8c0,68.8,0,137.6,0,206.4c0,1.8,0,3.6,0.4,5.3
			c1.8,8.5,8.4,13.2,18.4,13.2c39.5,0,78.9,0,118.4,0c1.6,0,3.1,0,5.8,0c-7.7,9.4-14.5,17.8-21.5,26.1c-0.8,0.9-2.7,1.2-4,1.3
			c-5.4,0.1-10.7,0-16.1,0.1c-5.7,0.1-8.9,2.8-9,7.4c0,4.6,3.4,7.7,8.8,7.7c53.2,0,106.5,0,159.7,0c5.4,0,9-3.1,9-7.6
			c0-4.5-3.5-7.5-9-7.5c-6.6-0.1-13.2,0-19.8-0.1c-1.4,0-3.2-0.2-4.2-1C441.8,723,432.3,714.4,422.8,706z"/>
		<path class="st1" d="M240.2,603.7c0-41.3,0-82.5,0-123.8c0-12,6.6-18.6,18.6-18.6c37.4,0,74.8,0,112.2,0c12,0,18.7,6.7,18.7,18.6
			c0,82.5,0,165.1,0,247.6c0,11.9-6.5,18.4-18.3,18.5c-37.7,0-75.4,0-113,0c-11.8,0-18.2-6.5-18.2-18.5
			C240.2,686.2,240.2,645,240.2,603.7z M315.6,532c-14.3,0-28.6,0-42.9,0c-1.7,0-3.6,0.1-5.2,0.8c-3.4,1.4-4.9,5-4,8.5
			c0.9,3.4,4.1,5.6,8.6,5.6c29,0,58,0,86.9,0c5.4,0,9-3.1,8.9-7.6c-0.1-4.5-3.5-7.3-9.1-7.3C344.5,532,330.1,532,315.6,532z
			 M316.7,517.4c8.9,0,17.9,0,26.8,0c5.9,0,11.8,0.1,17.7-0.1c4.4-0.1,7.4-3.3,7.4-7.3c0-3.9-3-7.1-7.3-7.5c-0.8-0.1-1.6,0-2.5,0
			c-28.3,0-56.7,0-85,0c-1.6,0-3.3,0.1-4.8,0.6c-3.5,1.2-5.2,3.9-4.9,7.7c0.4,3.8,2.7,5.9,6.3,6.5c1.3,0.2,2.7,0.2,4.1,0.2
			C288.6,517.4,302.7,517.4,316.7,517.4z M316.3,676.4c-9.7,0-17.4,7.8-17.4,17.6c0,9.8,7.7,17.7,17.3,17.8
			c9.5,0.1,17.4-8,17.4-17.7C333.7,684.2,326,676.4,316.3,676.4z"/>
		<path class="st1" d="M669.2,706c9.5,8.5,19.1,17,28.7,25.4c1,0.8,2.8,1,4.2,1c6.6,0.1,13.2,0,19.8,0.1c5.5,0,9,3.1,9,7.5
			c0,4.5-3.6,7.6-9,7.6c-53.2,0-106.5,0-159.7,0c-5.4,0-8.8-3.1-8.8-7.7c0-4.6,3.3-7.4,9-7.4c5.4-0.1,10.7,0.1,16.1-0.1
			c1.4,0,3.3-0.3,4-1.3c7-8.3,13.8-16.7,21.5-26.1c-2.7,0-4.2,0-5.8,0c-39.5,0-78.9,0-118.4,0c-10,0-16.5-4.7-18.4-13.2
			c-0.4-1.7-0.4-3.5-0.4-5.3c0-68.8,0-137.6,0-206.4c0-12.1,6.7-18.8,19-18.8c61.8,0,123.5,0,185.3,0c42.6,0,85.3,0,127.9,0
			c9.4,0,15.8,4.3,18,12.2c0.5,1.9,0.6,4.1,0.6,6.1c0,69.1,0,138.1,0,207.2c0,11.6-6.4,18.2-18.1,18.2c-19.3,0.1-38.5,0-57.8,0
			c-20.6,0-41.3,0-61.9,0c-1.5,0-3,0-4.4,0C669.5,705.3,669.4,705.6,669.2,706z M789.4,482.2c-102.5,0-204.6,0-306.8,0
			c0,61.1,0,121.9,0,182.7c102.5,0,204.6,0,306.8,0C789.4,603.9,789.4,543.2,789.4,482.2z M636.8,676.4c-5.9-0.1-10.6,4.6-10.6,10.7
			c-0.1,6.1,4.6,10.9,10.4,11c5.7,0,10.2-4.6,10.4-10.5C647.1,681.4,642.6,676.5,636.8,676.4z"/>
		<path class="st3" d="M660.5,532c14.4,0,28.8,0,43.3,0c5.6,0,9,2.8,9.1,7.3c0.1,4.5-3.5,7.6-8.9,7.6c-29,0-58,0-86.9,0
			c-4.5,0-7.8-2.2-8.6-5.6c-0.9-3.5,0.7-7.2,4-8.5c1.6-0.7,3.5-0.8,5.2-0.8C631.9,532,646.2,532,660.5,532z"/>
		<path class="st3" d="M661.6,517.4c-14,0-28.1,0-42.1,0c-1.4,0-2.8,0.1-4.1-0.2c-3.6-0.6-6-2.7-6.3-6.5c-0.4-3.8,1.3-6.4,4.9-7.7
			c1.5-0.5,3.2-0.6,4.8-0.6c28.3,0,56.7,0,85,0c0.8,0,1.7,0,2.5,0c4.3,0.4,7.3,3.6,7.3,7.5c0,4-3,7.2-7.4,7.3
			c-5.9,0.2-11.8,0.1-17.7,0.1C679.4,517.5,670.5,517.4,661.6,517.4z"/>
		<path class="st3" d="M661.2,676.4c9.7,0,17.4,7.8,17.4,17.7c0,9.8-7.9,17.8-17.4,17.7c-9.6-0.1-17.3-8-17.3-17.8
			C643.8,684.2,651.5,676.4,661.2,676.4z"/>
		<path class="st3" d="M542.9,482.2c0,61.1,0,121.7,0,182.7c-102.2,0-204.3,0-306.8,0c0-60.8,0-121.6,0-182.7
			C338.4,482.2,440.5,482.2,542.9,482.2z"/>
		<path class="st3" d="M390.3,676.4c5.8,0.1,10.3,5,10.2,11.1c-0.1,5.9-4.7,10.5-10.4,10.5c-5.8,0-10.4-4.9-10.4-11
			C379.8,681,384.4,676.3,390.3,676.4z"/>
	</g>
</g>
</svg>
