<?xml version="1.0" encoding="utf-8"?>
<!-- Generator: Adobe Illustrator 24.1.2, SVG Export Plug-In . SVG Version: 6.00 Build 0)  -->
<svg version="1.1" id="Layer_1" xmlns="http://www.w3.org/2000/svg" xmlns:xlink="http://www.w3.org/1999/xlink" x="0px" y="0px"
	 viewBox="0 0 100 100" style="enable-background:new 0 0 100 100;" xml:space="preserve">
<style type="text/css">
	.st0{fill-rule:evenodd;clip-rule:evenodd;fill:#F0801B;}
	.st1{fill:#FFFFFF;}
</style>
<g id="Слой_x0020_1">
	<ellipse transform="matrix(0.1602 -0.9871 0.9871 0.1602 -7.327 91.4454)" class="st0" cx="50.1" cy="50" rx="49.6" ry="49.6"/>
	<path class="st1" d="M27,57.1l-12.6,0l-1.8,3.5H4.8l11-21h9.9l11,21h-7.9L27,57.1L27,57.1z M24.6,52.5L20.6,45l-3.9,7.5L24.6,52.5
		L24.6,52.5z M35.4,39.6h11.9l4.6,12.7l4.6-12.7h11.8v21h-7.4v-16l-5.7,16h-6.7l-5.7-16v16h-7.4L35.4,39.6L35.4,39.6z M67.9,39.6
		h27.5v5.2h-9.2v15.8h-9V44.7h-9.2L67.9,39.6L67.9,39.6z"/>
</g>
</svg>
