<?xml version="1.0" encoding="UTF-8"?>
<!DOCTYPE svg PUBLIC "-//W3C//DTD SVG 1.1//EN" "http://www.w3.org/Graphics/SVG/1.1/DTD/svg11.dtd">
<!-- Creator: CorelDRAW 2020 (64-Bit) -->
<svg xmlns="http://www.w3.org/2000/svg" xml:space="preserve" width="200mm" height="200mm" version="1.1" style="shape-rendering:geometricPrecision; text-rendering:geometricPrecision; image-rendering:optimizeQuality; fill-rule:evenodd; clip-rule:evenodd"
viewBox="0 0 20000 20000"
 xmlns:xlink="http://www.w3.org/1999/xlink"
 xmlns:xodm="http://www.corel.com/coreldraw/odm/2003">
 <defs>
  <style type="text/css">
   <![CDATA[
    .fil0 {fill:#493185}
   ]]>
  </style>
 </defs>
 <g id="Слой_x0020_1">
  <metadata id="CorelCorpID_0Corel-Layer"/>
  <path class="fil0" d="M16843.99 676.1c678.47,0 1295.51,277.8 1742.91,725.2 447.4,447.39 725.2,1064.43 725.2,1742.9l0 13712.17c0,678.47 -277.8,1295.51 -725.2,1742.91 -447.4,447.4 -1064.44,725.2 -1742.91,725.2l-13712.11 0c-678.47,0 -1295.51,-277.8 -1742.91,-725.2 -447.39,-447.4 -725.2,-1064.44 -725.2,-1742.91l0 -13712.17c0,-678.47 277.81,-1295.51 725.2,-1742.9 447.4,-447.4 1064.44,-725.2 1742.91,-725.2l13712.11 0zm-13712.11 -548.49c-829.85,0 -1584.12,339.35 -2130.68,885.91 -546.57,546.56 -885.91,1300.83 -885.91,2130.68l0 13712.17c0,829.85 339.34,1584.12 885.91,2130.69 546.56,546.56 1300.83,885.9 2130.68,885.9l13712.11 0c829.85,0 1584.13,-339.34 2130.69,-885.9 546.56,-546.57 885.9,-1300.84 885.9,-2130.69l0 -13712.17c0,-829.85 -339.34,-1584.12 -885.9,-2130.68 -546.56,-546.56 -1300.84,-885.91 -2130.69,-885.91l-13712.11 0zm0 274.25c-1508.32,0 -2742.35,1234.02 -2742.35,2742.34l0 13712.17c0,1508.32 1234.03,2742.35 2742.35,2742.35l13712.11 0c1508.33,0 2742.35,-1234.03 2742.35,-2742.35l0 -13712.17c0,-1508.32 -1234.02,-2742.34 -2742.35,-2742.34l-13712.11 0zm-1295.13 12527.45l1128.99 0c246,0 430.07,58.25 552.76,175.35 122.2,117.1 183.58,283.78 183.58,500.1 0,221.92 -66.97,395.73 -200.47,520.51 -133.45,125.27 -337.43,187.64 -611.5,187.64l-372.26 0 0 813.01 -681.1 0 0 -2196.61zm681.1 938.78l167.18 0c131.96,0 224.49,-23.04 277.64,-68.56 53.2,-45.47 79.8,-103.77 79.8,-174.86 0,-69 -23.03,-127.3 -69.54,-175.35 -46.02,-48.1 -132.95,-72.12 -260.81,-72.12l-194.27 0 0 490.89zm2628.21 895.83l-769.02 0 -110.47 362 -692.84 0 826.78 -2196.61 742.97 0 823.22 2196.61 -710.72 0 -109.92 -362zm-143.7 -475.53l-239.8 -789.48 -240.83 789.48 480.63 0zm1184.72 -1359.08l633.55 0 823.7 1212.85 0 -1212.85 641.23 0 0 2196.61 -641.23 0 -819.1 -1206.22 0 1206.22 -638.15 0 0 -2196.61zm3653.97 1402.03l0 -457.11 1049.25 0 0 934.17c-200.97,137.01 -378.4,230.58 -532.3,280.17 -154.4,49.63 -337.48,74.15 -549.14,74.15 -260.81,0 -473.56,-44.48 -637.72,-133.44 -164.11,-88.47 -291.41,-220.88 -381.96,-396.77 -90.5,-175.41 -135.48,-377.36 -135.48,-604.92 0,-239.8 49.58,-447.89 148.31,-625.33 98.67,-176.94 243.36,-311.42 434.07,-403.46 148.8,-71.03 349.33,-106.35 600.86,-106.35 242.37,0 423.92,22 544.04,65.98 120.72,43.99 220.38,112 299.63,204.53 79.26,92.53 139.1,209.63 178.97,351.25l-653.46 117.65c-27.09,-83.37 -72.62,-147.27 -137.01,-191.26 -64.45,-44.48 -146.28,-66.47 -246.49,-66.47 -148.25,0 -266.89,51.66 -355.41,154.94 -88.47,103.28 -132.4,266.89 -132.4,490.34 0,237.28 44.48,407.03 133.93,508.77 89.02,101.75 213.8,152.87 373.3,152.87 75.69,0 147.82,-10.7 216.81,-32.69 68.51,-22 147.27,-59.35 236.23,-111.51l0 -205.51 -454.03 0zm2802.57 432.58l-769.02 0 -110.47 362 -692.84 0 826.78 -2196.61 742.97 0 823.22 2196.61 -710.72 0 -109.92 -362zm-143.7 -475.53l-239.8 -789.48 -240.83 789.48 480.63 0zm1178.57 -1359.08l1816.24 0 0 469.39 -1135.13 0 0 349.71 1052.31 0 0 447.94 -1052.31 0 0 432.59 1168.86 0 0 496.98 -1849.97 0 0 -2196.61zm3566.99 1834.61l-769.02 0 -110.47 362 -692.84 0 826.78 -2196.61 742.97 0 823.22 2196.61 -710.72 0 -109.92 -362zm-143.7 -475.53l-239.8 -789.48 -240.83 789.48 480.63 0zm-15264.76 -2828.95l244.79 0 0 789.43 -244.79 0 0 -789.43zm440.87 789.43l0 -789.43 406.48 0c75.31,0 133.01,6.41 172.72,19.47 39.87,12.89 72.01,36.97 96.48,71.85 24.46,35.1 36.58,77.94 36.58,128.29 0,43.71 -9.38,81.56 -28.14,113.37 -18.54,31.98 -44.26,57.7 -77.17,77.55 -20.79,12.46 -49.42,22.93 -85.62,31.21 29.02,9.77 50.13,19.31 63.41,29.07 8.77,6.42 21.83,20.35 38.94,41.52 16.89,21.12 28.3,37.46 34.01,49.04l118.52 228.06 -275.66 0 -130.27 -240.73c-16.56,-31.21 -31.26,-51.45 -44.1,-60.83 -17.66,-12.12 -37.68,-18.21 -59.94,-18.21l-21.51 0 0 319.77 -244.73 0zm244.73 -468.57l103.12 0c11.02,0 32.69,-3.68 64.67,-10.86 16.18,-3.13 29.39,-11.41 39.54,-24.79 10.26,-13.44 15.41,-28.69 15.41,-45.97 0,-25.55 -8.06,-45.19 -24.24,-58.79 -16.18,-13.77 -46.51,-20.57 -91.16,-20.57l-107.34 0 0 160.98zm1539.92 145.51l213.96 64.5c-14.31,59.9 -36.97,110.08 -68.01,150.12 -30.88,40.26 -69.05,70.59 -115.07,90.99 -45.75,20.41 -103.99,30.66 -174.75,30.66 -86,0 -156.04,-12.5 -210.61,-37.29 -54.36,-25.01 -101.25,-68.89 -140.74,-131.58 -39.5,-62.64 -59.35,-143.16 -59.35,-240.9 0,-130.48 34.72,-230.8 104.16,-301 69.65,-69.99 168,-105.09 295.13,-105.09 99.44,0 177.71,20.02 234.7,60.28 56.82,40.2 99.27,101.96 126.81,185.38l-215.06 47.61c-7.52,-23.91 -15.41,-41.35 -23.7,-52.38 -13.76,-18.54 -30.49,-32.91 -50.18,-42.83 -19.8,-10.1 -41.85,-15.03 -66.31,-15.03 -55.51,0 -97.96,22.21 -127.36,66.47 -22.21,32.91 -33.46,84.74 -33.46,155.11 0,87.49 13.27,147.22 39.88,179.74 26.65,32.31 63.95,48.49 112.11,48.49 46.67,0 81.94,-13.06 105.85,-39.33 23.86,-26.05 41.14,-64.12 52,-113.92zm319.27 -71.08c0,-128.84 35.81,-229.16 107.67,-300.84 71.85,-71.86 171.78,-107.67 300.07,-107.67 131.36,0 232.66,35.27 303.75,105.64 71.14,70.59 106.57,169.42 106.57,296.4 0,92.25 -15.42,167.78 -46.46,226.79 -31.1,58.96 -76.07,104.93 -134.71,137.78 -58.79,32.91 -131.96,49.25 -219.61,49.25 -88.91,0 -162.62,-14.15 -221.04,-42.45 -58.24,-28.47 -105.69,-73.28 -141.89,-134.65 -36.2,-61.21 -54.35,-138.05 -54.35,-230.25zm243.63 0.55c0,79.53 14.92,136.9 44.49,171.62 29.78,34.71 70.2,52.16 121.26,52.16 52.38,0 93.19,-17.06 121.82,-51.07 28.85,-34.17 43.22,-95.21 43.22,-183.57 0,-74.27 -15.08,-128.46 -45.03,-162.63 -30.16,-34.39 -70.75,-51.45 -122.2,-51.45 -49.25,0 -88.96,17.45 -118.69,52.16 -29.95,34.72 -44.87,92.42 -44.87,172.78zm726.25 -395.84l227.67 0 296.02 435.87 0 -435.87 230.41 0 0 789.43 -230.41 0 -294.37 -433.47 0 433.47 -229.32 0 0 -789.43zm857.38 0l254.88 0 177.87 568.17 175.35 -568.17 247.48 0 -293.06 789.43 -264.26 0 -298.26 -789.43zm884.64 395.29c0,-128.84 35.82,-229.16 107.67,-300.84 71.85,-71.86 171.79,-107.67 300.07,-107.67 131.37,0 232.67,35.27 303.75,105.64 71.14,70.59 106.57,169.42 106.57,296.4 0,92.25 -15.41,167.78 -46.45,226.79 -31.1,58.96 -76.08,104.93 -134.71,137.78 -58.8,32.91 -131.96,49.25 -219.61,49.25 -88.91,0 -162.63,-14.15 -221.04,-42.45 -58.25,-28.47 -105.69,-73.28 -141.89,-134.65 -36.2,-61.21 -54.36,-138.05 -54.36,-230.25zm243.64 0.55c0,79.53 14.92,136.9 44.48,171.62 29.78,34.71 70.21,52.16 121.27,52.16 52.38,0 93.19,-17.06 121.82,-51.07 28.85,-34.17 43.22,-95.21 43.22,-183.57 0,-74.27 -15.09,-128.46 -45.03,-162.63 -30.17,-34.39 -70.76,-51.45 -122.2,-51.45 -49.26,0 -88.97,17.45 -118.69,52.16 -29.95,34.72 -44.87,92.42 -44.87,172.78zm723.99 -395.84l243.69 0 0 595.37 381.47 0 0 194.06 -625.16 0 0 -789.43zm1239.13 0l243.69 0 0 470.21c0,46.51 -7.35,90.61 -21.88,131.96 -14.54,41.52 -37.3,77.72 -68.34,108.77 -31.1,31.1 -63.63,52.76 -97.63,65.43 -47.39,17.44 -104.38,26.27 -170.69,26.27 -38.4,0 -80.3,-2.74 -125.71,-8.06 -45.36,-5.32 -83.43,-16.01 -113.92,-31.98 -30.5,-16.01 -58.42,-38.61 -83.59,-68.01 -25.4,-29.4 -42.62,-59.73 -52,-90.94 -15.08,-50.18 -22.59,-94.66 -22.59,-133.44l0 -470.21 243.63 0 0 481.45c0,43 11.96,76.63 35.65,100.7 23.92,24.25 56.99,36.37 99.22,36.37 41.74,0 74.6,-11.96 98.51,-35.82 23.69,-23.69 35.65,-57.53 35.65,-101.25l0 -481.45zm367.87 0l742.04 0 0 195.15 -249.18 0 0 594.28 -243.69 0 0 -594.28 -249.17 0 0 -195.15zm879.65 0l244.79 0 0 789.43 -244.79 0 0 -789.43zm406.7 395.29c0,-128.84 35.81,-229.16 107.66,-300.84 71.85,-71.86 171.79,-107.67 300.08,-107.67 131.36,0 232.66,35.27 303.75,105.64 71.13,70.59 106.57,169.42 106.57,296.4 0,92.25 -15.42,167.78 -46.46,226.79 -31.1,58.96 -76.08,104.93 -134.71,137.78 -58.79,32.91 -131.96,49.25 -219.61,49.25 -88.91,0 -162.62,-14.15 -221.04,-42.45 -58.25,-28.47 -105.69,-73.28 -141.89,-134.65 -36.2,-61.21 -54.35,-138.05 -54.35,-230.25zm243.63 0.55c0,79.53 14.92,136.9 44.48,171.62 29.79,34.71 70.21,52.16 121.27,52.16 52.38,0 93.19,-17.06 121.82,-51.07 28.85,-34.17 43.22,-95.21 43.22,-183.57 0,-74.27 -15.08,-128.46 -45.03,-162.63 -30.17,-34.39 -70.75,-51.45 -122.2,-51.45 -49.25,0 -88.96,17.45 -118.69,52.16 -29.95,34.72 -44.87,92.42 -44.87,172.78zm726.24 -395.84l227.68 0 296.01 435.87 0 -435.87 230.42 0 0 789.43 -230.42 0 -294.37 -433.47 0 433.47 -229.32 0 0 -789.43zm1319.54 0l405.76 0c88.36,0 154.57,20.95 198.66,63.02 43.88,42.07 65.93,102.02 65.93,179.73 0,79.75 -24.08,142.23 -72.01,187.04 -47.94,45.03 -121.27,67.46 -219.78,67.46l-133.77 0 0 292.18 -244.79 0 0 -789.43zm244.79 337.37l60.11 0c47.39,0 80.63,-8.28 99.77,-24.63 19.08,-16.34 28.63,-37.3 28.63,-62.85 0,-24.8 -8.23,-45.75 -24.96,-63.03 -16.56,-17.27 -47.77,-25.88 -93.73,-25.88l-69.82 0 0 176.39zm570.91 -337.37l243.69 0 0 595.37 381.47 0 0 194.06 -625.16 0 0 -789.43zm1239.45 659.33l-276.37 0 -39.66 130.1 -249.01 0 297.17 -789.43 267 0 295.85 789.43 -255.43 0 -39.55 -130.1zm-51.61 -170.91l-86.16 -283.73 -86.55 283.73 172.71 0zm268.81 -488.42l270.84 0 159.72 265.74 158.95 -265.74 269.41 0 -306.54 458.86 0 330.57 -244.73 0 0 -330.57 -307.65 -458.86zm955.35 0l652.74 0 0 168.71 -407.96 0 0 125.66 378.18 0 0 160.98 -378.18 0 0 155.44 420.08 0 0 178.64 -664.86 0 0 -789.43zm817.94 789.43l0 -789.43 406.48 0c75.31,0 133.01,6.41 172.72,19.47 39.87,12.89 72.01,36.97 96.48,71.85 24.46,35.1 36.58,77.94 36.58,128.29 0,43.71 -9.38,81.56 -28.14,113.37 -18.53,31.98 -44.26,57.7 -77.17,77.55 -20.78,12.46 -49.42,22.93 -85.62,31.21 29.02,9.77 50.14,19.31 63.41,29.07 8.77,6.42 21.83,20.35 38.94,41.52 16.89,21.12 28.3,37.46 34.01,49.04l118.52 228.06 -275.66 0 -130.27 -240.73c-16.56,-31.21 -31.26,-51.45 -44.09,-60.83 -17.67,-12.12 -37.69,-18.21 -59.95,-18.21l-21.5 0 0 319.77 -244.74 0zm244.74 -468.57l103.11 0c11.02,0 32.69,-3.68 64.67,-10.86 16.18,-3.13 29.39,-11.41 39.54,-24.79 10.26,-13.44 15.41,-28.69 15.41,-45.97 0,-25.55 -8.06,-45.19 -24.24,-58.79 -16.18,-13.77 -46.51,-20.57 -91.16,-20.57l-107.33 0 0 160.98zm-11727.17 -5482.45l-2260.56 -0.87 -325.96 619.5 -1384.04 0 1970.14 -3756.15 1766.38 0 1739.07 3313.48 0 442.67 -1180.33 0 -324.7 -618.63zm-427.82 -815.09l-707.15 -1349.04 -699.59 1349.09 1406.74 -0.05zm1932.85 -2322.43l2131.28 0 822.78 2285.13 818.99 -2285.13 2124.04 0 0 3756.15 -1323.2 0 0 -2864.16 -1026.59 2864.16 -1197.45 0 -1023.02 -2864.16 0 2864.16 -1326.83 0 0 -3756.15zm5897.09 0l4911.59 0 0 927.92 -1652.73 0 0 2828.23 -1619.94 0 0 -2828.23 -1638.92 0 0 -927.92zm-9329.54 6332.64l787.9 237.6c-52.82,220.66 -136.08,405.44 -250.44,553.04 -113.75,148.19 -254.55,259.92 -423.76,335.06 -168.54,75.09 -383.11,113.04 -643.69,113.04 -316.8,0 -574.7,-46.07 -775.72,-137.45 -200.36,-92.03 -372.96,-253.83 -518.53,-484.63 -145.51,-230.8 -218.63,-527.31 -218.63,-887.39 0,-480.58 127.96,-850.2 383.83,-1108.75 256.53,-257.9 618.63,-387.17 1087.09,-387.17 366.16,0 654.5,73.77 864.35,222.02 209.19,148.2 365.51,375.65 467.08,682.97l-792 175.29c-27.75,-87.97 -56.82,-152.26 -87.32,-192.9 -50.73,-68.34 -112.33,-121.16 -184.78,-157.69 -73.11,-37.24 -154.29,-55.5 -244.35,-55.5 -204.42,0 -360.79,81.89 -469.06,245 -81.94,121.16 -123.19,312.03 -123.19,571.3 0,322.18 48.71,542.17 146.88,662.02 98.13,119.13 235.52,178.69 412.9,178.69 171.89,0 301.88,-48.05 389.86,-144.85 88.03,-96.15 151.65,-236.23 191.58,-419.7zm1217.69 -1717.95l1494.6 0c325.58,0 569.27,77.17 731.68,232.17 161.8,155 243.03,375.71 243.03,662.02 0,293.76 -88.69,523.91 -265.36,689.05 -176.66,165.86 -446.73,248.47 -809.55,248.47l-492.76 0 0 1076.22 -901.64 0 0 -2907.93zm901.64 1242.8l221.31 0c174.64,0 297.17,-30.49 367.6,-90.72 70.37,-60.22 105.58,-137.39 105.58,-231.51 0,-91.38 -30.44,-168.55 -92.09,-232.17 -60.88,-63.63 -175.95,-95.44 -345.22,-95.44l-257.18 0 0 649.84zm1828.25 292.4l1173.75 0 0 625.43 -1173.75 0 0 -625.43zm3261.32 -1583.9l0 2956.63 -816.3 0 0 -1934.54c-132.02,100.15 -259.93,180.72 -383.83,242.32 -123.85,61.59 -278.85,121.16 -465,177.32l0 -657.9c274.79,-89.35 488.69,-196.3 640.35,-320.86 152.26,-125.22 271.39,-279.56 357.39,-462.97l667.39 0zm3216.56 701.94l-804.12 98.12c-21.01,-111.67 -56.22,-190.21 -105.64,-235.57 -50.08,-46.02 -110.96,-69 -183.41,-69 -130.65,0 -232.17,65.66 -304.63,197.62 -52.76,95.44 -92.03,298.54 -117.1,609.91 96.81,-98.18 195.64,-170.58 297.17,-217.31 102.23,-46.73 219.33,-70.37 352.67,-70.37 259.27,0 478.55,92.7 657.24,277.48 179.41,185.49 268.76,420.35 268.76,704.69 0,191.53 -45.36,366.82 -136.08,525.93 -90.72,158.35 -215.94,278.85 -376.37,360.08 -161.08,81.23 -362.1,121.87 -604.42,121.87 -291.08,0 -523.91,-49.41 -699.92,-148.91 -176,-98.83 -316.8,-257.24 -421.72,-474.54 -104.87,-217.26 -157.69,-504.93 -157.69,-863.7 0,-524.56 110.35,-908.39 331.66,-1152.74 220.66,-243.69 526.66,-365.5 918.54,-365.5 231.52,0 414.27,26.38 548.27,79.85 134.04,53.48 245.71,132.02 334.4,234.21 88.69,102.89 156.38,232.17 202.39,387.88zm-1487.15 1295.57c0,157.68 39.99,280.87 119.19,370.22 79.86,89.35 176.66,134.05 291.74,134.05 106.24,0 194.92,-40.64 266.67,-121.16 71.08,-80.57 106.95,-201.07 106.95,-361.5 0,-163.78 -37.24,-289 -111.01,-375 -74.49,-85.95 -166.52,-129.28 -276.16,-129.28 -112.39,0 -207.16,41.96 -282.96,125.22 -76.46,83.26 -114.42,202.39 -114.42,357.45zm1978.54 -1948.81l1185.26 0 451.46 1769.4 452.88 -1769.4 1179.78 0 0 2907.93 -735.08 0 0 -2216.79 -567.23 2216.79 -666.08 0 -565.87 -2216.79 0 2216.79 -735.12 0 0 -2907.93zm-12959.99 8069.02l223.12 0 96.92 378.24 123.08 -378.24 206.61 0 127.3 378.84 97.14 -378.84 221.75 0 -221.53 602.51 -205.08 0 -121.93 -362.6 -117.81 362.6 -206.28 0 -223.29 -602.51zm1095.7 0l223.12 0 96.92 378.24 123.08 -378.24 206.61 0 127.3 378.84 97.14 -378.84 221.75 0 -221.53 602.51 -205.08 0 -121.93 -362.6 -117.81 362.6 -206.28 0 -223.29 -602.51zm1095.7 0l223.12 0 96.92 378.24 123.08 -378.24 206.61 0 127.3 378.84 97.14 -378.84 221.75 0 -221.53 602.51 -205.08 0 -121.93 -362.6 -117.81 362.6 -206.29 0 -223.28 -602.51zm1065.53 371.49l246.1 0 0 231.02 -246.1 0 0 -231.02zm596.69 -176.45l-220.54 -23.25c8.28,-38.67 20.29,-69.06 35.98,-91.1 15.69,-22.27 38.12,-41.41 67.68,-57.65 21.12,-11.85 50.13,-20.9 87.1,-27.31 36.97,-6.37 77.01,-9.66 120.17,-9.66 69.06,0 124.4,3.84 166.36,11.63 41.79,7.73 76.84,23.97 104.7,48.54 19.75,17 35.21,41.19 46.4,72.35 11.47,31.15 17.06,60.99 17.06,89.4l0 266.23c0,28.47 1.76,50.68 5.43,66.75 3.46,16.07 11.41,36.58 23.42,61.54l-216.16 0c-8.72,-15.47 -14.31,-27.1 -17,-35.21 -2.52,-8.12 -5.26,-20.68 -7.95,-37.9 -30.17,29.01 -60.17,49.69 -90.17,62.08 -40.81,16.62 -88.2,24.96 -142.22,24.96 -71.74,0 -126.32,-16.62 -163.5,-50.13 -37.3,-33.24 -55.89,-74.48 -55.89,-123.24 0,-45.86 13.32,-83.59 40.25,-113.16 26.88,-29.61 76.41,-51.66 148.59,-65.98 86.49,-17.44 142.6,-29.62 168.33,-36.8 25.72,-6.97 53.03,-16.02 81.66,-27.48 0,-28.41 -5.81,-48.16 -17.6,-59.56 -11.63,-11.41 -32.14,-17.06 -61.54,-17.06 -37.74,0 -65.98,6.03 -84.96,18.21 -14.7,9.65 -26.49,27.48 -35.6,53.8zm199.7 120.72c-31.75,11.41 -64.83,21.5 -99.43,30.39 -46.85,12.56 -76.63,24.96 -89.02,37.13 -13,12.56 -19.36,26.88 -19.36,42.95 0,18.37 6.36,33.51 18.97,45.08 12.78,11.63 31.32,17.44 55.89,17.44 25.73,0 49.75,-6.41 72.02,-18.97 22.05,-12.56 37.68,-27.87 47,-46.08 9.27,-18.15 13.93,-41.79 13.93,-70.8l0 -37.14zm365.68 -315.76l215.17 0 0 87.65c30.93,-36.75 62.3,-62.91 93.84,-78.38 31.54,-15.46 69.66,-23.2 114.36,-23.2 47.99,0 85.89,8.5 113.97,25.56 28.03,17 50.85,42.34 68.67,76.02 36.2,-39.27 69.06,-66.2 98.89,-80.3 29.79,-14.15 66.53,-21.28 110.25,-21.28 64.44,0 114.74,19.14 150.94,57.65 36.2,38.34 54.35,98.5 54.35,180.12l0 378.67 -231.02 0 0 -344.23c0,-27.48 -5.21,-47.77 -15.85,-60.93 -15.3,-20.9 -34.66,-31.32 -57.48,-31.32 -27.09,0 -48.92,9.82 -65.6,29.56 -16.45,19.75 -24.73,51.5 -24.73,95l0 311.92 -231.02 0 0 -332c0,-26.54 -1.54,-44.53 -4.66,-54.02 -4.83,-15.08 -13.33,-27.26 -25.56,-36.53 -11.96,-9.32 -26.28,-13.93 -42.57,-13.93 -26.49,0 -48.37,10.04 -65.37,29.95 -17.01,20.13 -25.56,53.03 -25.56,98.89l0 307.64 -231.02 0 0 -602.51zm1437.23 -228.71l0 228.71 126.54 0 0 169.48 -126.54 0 0 213.25c0,25.51 2.53,42.57 7.35,50.85 7.52,12.78 20.9,19.19 39.88,19.19 17,0 40.81,-4.88 71.58,-14.75l17 159.66c-57.04,12.56 -110.3,18.76 -159.83,18.76 -57.43,0 -99.82,-7.35 -127.08,-22.05 -27.1,-14.7 -47.23,-37.13 -60.39,-67.13 -12.94,-30 -19.53,-78.76 -19.53,-145.9l0 -211.88 -84.74 0 0 -169.48 84.74 0 0 -110.46 231.02 -118.25zm905.33 587.42l-463.25 0c4.28,36.97 14.15,64.61 30.22,82.82 22.21,26.11 51.45,39.11 87.43,39.11 22.82,0 44.53,-5.65 64.83,-16.84 12.56,-7.19 26.11,-19.75 40.42,-37.74l227.57 20.9c-34.83,60.33 -76.85,103.88 -125.99,129.99 -49.14,26.33 -119.73,39.49 -211.66,39.49 -79.91,0 -142.6,-11.24 -188.46,-33.84 -45.68,-22.49 -83.58,-58.25 -113.75,-107.23 -30,-49.14 -45.09,-106.79 -45.09,-172.93 0,-94.23 30.17,-170.69 90.56,-228.94 60.17,-58.19 143.54,-87.43 249.78,-87.43 86.27,0 154.23,13.17 204.14,39.27 49.91,26.11 88.03,63.85 114.14,113.59 26.11,49.53 39.11,114.14 39.11,193.67l0 26.11zm-234.53 -110.3c-4.45,-44.87 -16.62,-77.01 -36.2,-96.31 -19.53,-19.36 -45.09,-29.07 -77.01,-29.07 -36.75,0 -66.15,14.75 -88.2,43.93 -13.93,18.21 -22.87,45.31 -26.71,81.45l228.12 0zm348.28 -477.12l231.02 0 0 831.22 -231.02 0 0 -831.22zm1047.16 587.42l-463.25 0c4.28,36.97 14.15,64.61 30.22,82.82 22.22,26.11 51.45,39.11 87.43,39.11 22.82,0 44.54,-5.65 64.83,-16.84 12.56,-7.19 26.11,-19.75 40.43,-37.74l227.56 20.9c-34.83,60.33 -76.84,103.88 -125.99,129.99 -49.14,26.33 -119.73,39.49 -211.65,39.49 -79.92,0 -142.61,-11.24 -188.46,-33.84 -45.69,-22.49 -83.59,-58.25 -113.76,-107.23 -30,-49.14 -45.08,-106.79 -45.08,-172.93 0,-94.23 30.16,-170.69 90.55,-228.94 60.17,-58.19 143.54,-87.43 249.78,-87.43 86.28,0 154.23,13.17 204.14,39.27 49.92,26.11 88.03,63.85 114.14,113.59 26.11,49.53 39.11,114.14 39.11,193.67l0 26.11zm-234.53 -110.3c-4.44,-44.87 -16.62,-77.01 -36.2,-96.31 -19.53,-19.36 -45.09,-29.07 -77.01,-29.07 -36.75,0 -66.14,14.75 -88.19,43.93 -13.93,18.21 -22.87,45.31 -26.71,81.45l228.11 0zm789.43 118.42l219.44 24.4c-12.23,45.86 -31.92,85.51 -59.62,119.19 -27.47,33.46 -62.85,59.56 -105.85,78.16 -42.73,18.59 -97.3,27.86 -163.45,27.86 -64.06,0 -117.26,-5.98 -159.83,-17.82 -42.39,-11.96 -78.98,-31.32 -109.69,-58.03 -30.61,-26.5 -54.58,-57.87 -72.02,-93.85 -17.39,-35.98 -26.11,-83.59 -26.11,-142.99 0,-61.92 10.64,-113.53 31.76,-154.78 15.47,-30.38 36.75,-57.48 63.62,-81.45 26.88,-23.97 54.36,-42.01 82.83,-53.58 45.08,-18.6 102.73,-27.87 172.99,-27.87 98.45,0 173.32,17.61 224.98,52.6 51.67,35.21 87.87,86.5 108.77,154.01l-217.09 29.07c-6.8,-25.77 -19.14,-45.08 -37.13,-58.24 -18.05,-13 -42.18,-19.58 -72.57,-19.58 -38.12,0 -69.11,13.76 -92.91,41.02 -23.59,27.48 -35.38,68.89 -35.38,124.62 0,49.52 11.79,87.09 35.21,112.82 23.42,25.72 53.21,38.5 89.57,38.5 30.22,0 55.73,-7.73 76.24,-23.03 20.73,-15.47 35.98,-39.11 46.24,-71.03zm603.71 -595.54l0 228.71 126.53 0 0 169.48 -126.53 0 0 213.25c0,25.51 2.52,42.57 7.35,50.85 7.51,12.78 20.9,19.19 39.87,19.19 17.01,0 40.81,-4.88 71.58,-14.75l17 159.66c-57.04,12.56 -110.3,18.76 -159.82,18.76 -57.43,0 -99.83,-7.35 -127.09,-22.05 -27.09,-14.7 -47.22,-37.13 -60.38,-67.13 -12.95,-30 -19.53,-78.76 -19.53,-145.9l0 -211.88 -84.74 0 0 -169.48 84.74 0 0 -110.46 231.02 -118.25zm238.92 228.71l216.32 0 0 98.29c20.89,-42.78 42.4,-72.18 64.44,-88.25 22.27,-16.07 49.53,-23.97 82.06,-23.97 34.22,0 71.57,10.64 112,31.92l-71.58 163.89c-27.26,-11.41 -48.98,-17.06 -64.83,-17.06 -30.17,0 -53.81,12.62 -70.43,37.57 -23.8,35.22 -35.81,101.2 -35.81,197.73l0 202.39 -232.17 0 0 -602.51zm503.83 302.98c0,-92.09 30.94,-167.94 92.86,-227.51 61.92,-59.62 145.51,-89.4 250.76,-89.4 120.56,0 211.5,35 273.04,105.04 49.31,56.49 74.1,125.98 74.1,208.42 0,92.86 -30.61,168.71 -91.93,228.11 -61.32,59.18 -146.28,88.8 -254.6,88.8 -96.59,0 -174.75,-24.57 -234.31,-73.93 -73.34,-60.94 -109.92,-140.85 -109.92,-239.53zm231.02 -0.38c0,53.97 10.86,93.85 32.53,119.57 21.66,25.72 48.76,38.72 81.61,38.72 33.13,0 60.17,-12.78 81.45,-38.12 21.33,-25.34 31.98,-66.2 31.98,-122.31 0,-52.43 -10.65,-91.32 -32.15,-117.04 -21.5,-25.56 -47.99,-38.29 -79.69,-38.29 -33.51,0 -61.16,12.95 -83.04,38.89 -21.83,26.11 -32.69,65.6 -32.69,118.58zm571.19 -302.6l215.17 0 0 98.07c32.08,-40.2 64.39,-68.83 97.3,-86.05 32.91,-17.23 72.78,-25.95 119.95,-25.95 63.84,0 113.59,18.98 149.79,57.1 35.98,37.9 53.97,96.7 53.97,176.23l0 383.11 -232.17 0 0 -331.45c0,-37.9 -6.97,-64.61 -20.9,-80.29 -13.93,-15.69 -33.51,-23.59 -58.63,-23.59 -27.7,0 -50.3,10.64 -67.52,31.7 -17.22,21.28 -25.94,59.24 -25.94,114.2l0 289.43 -231.02 0 0 -602.51zm782.46 -228.71l231.02 0 0 156.75 -231.02 0 0 -156.75zm0 228.71l231.02 0 0 602.51 -231.02 0 0 -602.51zm827.71 366.83l219.45 24.4c-12.23,45.86 -31.92,85.51 -59.62,119.19 -27.48,33.46 -62.86,59.56 -105.86,78.16 -42.72,18.59 -97.3,27.86 -163.44,27.86 -64.07,0 -117.27,-5.98 -159.83,-17.82 -42.4,-11.96 -78.98,-31.32 -109.7,-58.03 -30.6,-26.5 -54.57,-57.87 -72.01,-93.85 -17.39,-35.98 -26.11,-83.59 -26.11,-142.99 0,-61.92 10.64,-113.53 31.76,-154.78 15.46,-30.38 36.74,-57.48 63.62,-81.45 26.88,-23.97 54.35,-42.01 82.82,-53.58 45.09,-18.6 102.73,-27.87 172.99,-27.87 98.45,0 173.32,17.61 224.99,52.6 51.66,35.21 87.86,86.5 108.76,154.01l-217.09 29.07c-6.8,-25.77 -19.14,-45.08 -37.13,-58.24 -18.04,-13 -42.18,-19.58 -72.56,-19.58 -38.12,0 -69.11,13.76 -92.92,41.02 -23.58,27.48 -35.37,68.89 -35.37,124.62 0,49.52 11.79,87.09 35.21,112.82 23.42,25.72 53.2,38.5 89.57,38.5 30.22,0 55.72,-7.73 76.24,-23.03 20.73,-15.47 35.98,-39.11 46.23,-71.03zm284.44 68.5l228.72 -20.89c9.49,27.09 22.65,46.45 39.66,58.02 17,11.63 39.65,17.45 68.12,17.45 30.93,0 54.95,-6.59 71.96,-19.91 13.33,-9.71 19.91,-22.11 19.91,-36.81 0,-16.62 -8.67,-29.56 -26.11,-38.66 -12.4,-6.42 -45.47,-14.32 -99.06,-23.81 -80.07,-13.93 -135.64,-26.87 -166.95,-38.89 -31.16,-11.79 -57.32,-32.14 -78.77,-60.38 -21.28,-28.41 -31.92,-60.77 -31.92,-97.14 0,-39.65 11.41,-73.88 34.45,-102.51 23.03,-28.85 54.74,-50.35 95.16,-64.45 40.48,-14.15 94.61,-21.28 162.57,-21.28 71.58,0 124.56,5.43 158.62,16.46 34.28,11.02 62.69,28.02 85.51,51.06 22.87,23.2 41.79,54.35 56.93,93.85l-218.3 20.89c-5.59,-19.14 -15.08,-33.29 -28.24,-42.4 -17.99,-11.95 -39.82,-17.99 -65.55,-17.99 -25.94,0 -44.92,4.67 -56.71,13.94 -11.79,9.32 -17.82,20.51 -17.82,33.67 0,14.92 7.56,25.95 22.48,33.46 14.87,7.73 47.78,14.53 98.29,20.51 76.79,8.72 133.67,20.9 171.24,36.42 37.29,15.47 65.98,37.52 85.67,66.31 19.96,28.85 29.84,60.39 29.84,94.84 0,34.82 -10.48,68.67 -31.54,101.57 -20.9,32.91 -54.03,59.02 -99.11,78.55 -45.09,19.58 -106.57,29.23 -184.35,29.23 -109.91,0 -188.29,-15.69 -234.91,-47.22 -46.62,-31.32 -76.62,-76.02 -89.79,-133.89zm750.93 -63.84l246.1 0 0 231.02 -246.1 0 0 -231.02zm834.68 -4.66l219.44 24.4c-12.23,45.86 -31.92,85.51 -59.62,119.19 -27.48,33.46 -62.85,59.56 -105.85,78.16 -42.73,18.59 -97.3,27.86 -163.45,27.86 -64.06,0 -117.27,-5.98 -159.83,-17.82 -42.4,-11.96 -78.98,-31.32 -109.69,-58.03 -30.61,-26.5 -54.58,-57.87 -72.02,-93.85 -17.39,-35.98 -26.11,-83.59 -26.11,-142.99 0,-61.92 10.64,-113.53 31.76,-154.78 15.47,-30.38 36.75,-57.48 63.62,-81.45 26.88,-23.97 54.36,-42.01 82.82,-53.58 45.09,-18.6 102.73,-27.87 172.99,-27.87 98.46,0 173.32,17.61 224.99,52.6 51.67,35.21 87.87,86.5 108.76,154.01l-217.08 29.07c-6.8,-25.77 -19.15,-45.08 -37.14,-58.24 -18.04,-13 -42.17,-19.58 -72.56,-19.58 -38.12,0 -69.11,13.76 -92.91,41.02 -23.59,27.48 -35.38,68.89 -35.38,124.62 0,49.52 11.79,87.09 35.21,112.82 23.42,25.72 53.21,38.5 89.57,38.5 30.22,0 55.73,-7.73 76.24,-23.03 20.73,-15.47 35.98,-39.11 46.24,-71.03zm297.22 -63.85c0,-92.09 30.93,-167.94 92.85,-227.51 61.93,-59.62 145.52,-89.4 250.77,-89.4 120.56,0 211.49,35 273.03,105.04 49.31,56.49 74.1,125.98 74.1,208.42 0,92.86 -30.6,168.71 -91.92,228.11 -61.32,59.18 -146.28,88.8 -254.61,88.8 -96.58,0 -174.74,-24.57 -234.31,-73.93 -73.33,-60.94 -109.91,-140.85 -109.91,-239.53zm231.02 -0.38c0,53.97 10.86,93.85 32.52,119.57 21.67,25.72 48.76,38.72 81.62,38.72 33.12,0 60.16,-12.78 81.45,-38.12 21.33,-25.34 31.97,-66.2 31.97,-122.31 0,-52.43 -10.64,-91.32 -32.14,-117.04 -21.5,-25.56 -47.99,-38.29 -79.69,-38.29 -33.52,0 -61.16,12.95 -83.04,38.89 -21.83,26.11 -32.69,65.6 -32.69,118.58zm573.49 -302.6l215.17 0 0 87.65c30.93,-36.75 62.3,-62.91 93.84,-78.38 31.54,-15.46 69.66,-23.2 114.36,-23.2 47.99,0 85.89,8.5 113.97,25.56 28.03,17 50.85,42.34 68.67,76.02 36.2,-39.27 69.06,-66.2 98.89,-80.3 29.79,-14.15 66.54,-21.28 110.25,-21.28 64.45,0 114.74,19.14 150.94,57.65 36.2,38.34 54.36,98.5 54.36,180.12l0 378.67 -231.02 0 0 -344.23c0,-27.48 -5.21,-47.77 -15.86,-60.93 -15.3,-20.9 -34.66,-31.32 -57.48,-31.32 -27.09,0 -48.92,9.82 -65.59,29.56 -16.46,19.75 -24.74,51.5 -24.74,95l0 311.92 -231.02 0 0 -332c0,-26.54 -1.54,-44.53 -4.66,-54.02 -4.83,-15.08 -13.33,-27.26 -25.56,-36.53 -11.96,-9.32 -26.27,-13.93 -42.56,-13.93 -26.5,0 -48.38,10.04 -65.38,29.95 -17.01,20.13 -25.56,53.03 -25.56,98.89l0 307.64 -231.02 0 0 -602.51z"/>
 </g>
</svg>
