<svg id="Layer_1" data-name="Layer 1" xmlns="http://www.w3.org/2000/svg" viewBox="0 0 98.36 98.36"><defs><style>.cls-1{fill:#f0811d;}.cls-2{fill:#fff;}</style></defs><g id="Слой_1"><rect class="cls-1" width="98.36" height="98.36" rx="14.05"/><path class="cls-2" d="M27.83,56.64l-12.38-.06L13.64,60,6,59.93l10.88-20.6,9.67.05,10.68,20.7-7.78,0-1.58-3.41Zm-2.38-4.5-3.85-7.4-3.83,7.37,7.68,0ZM36.09,39.52l11.68.06,4.42,12.5,4.56-12.45,11.67,0-.1,20.66L61,60.3l.08-15.76L55.45,60.27l-6.59,0L43.35,44.45l-.08,15.76-7.28,0,.1-20.66ZM68,39.68l27,.13,0,5.09-9.08,0-.08,15.56-8.88,0,.08-15.66-9.08,0,0-5Z" transform="translate(-1.18 -1.18)"/></g></svg>