<svg id="Layer_1" data-name="Layer 1" xmlns="http://www.w3.org/2000/svg" viewBox="0 0 980.57 980.5"><defs><style>.cls-1{fill:#009fe3;}.cls-10,.cls-2,.cls-3,.cls-4,.cls-6,.cls-8{fill:#fff;}.cls-3{font-size:156.78px;}.cls-10,.cls-3,.cls-4,.cls-6,.cls-8{font-family:Arial-Black, Arial;font-weight:800;}.cls-4{font-size:154.26px;letter-spacing:-0.08em;}.cls-5{letter-spacing:0em;}.cls-6{font-size:122.3px;}.cls-7{letter-spacing:-0.02em;}.cls-8{font-size:194.31px;}.cls-9{letter-spacing:-0.07em;}.cls-10{font-size:58.38px;}.cls-11{letter-spacing:-0.08em;}.cls-12{letter-spacing:0.02em;}.cls-13{letter-spacing:0em;}</style></defs><path class="cls-1" d="M9.68,499.62q0-171.6,0-343.22A146.07,146.07,0,0,1,133,11.69a140,140,0,0,1,21.82-1.84q345.66-.15,691.32,0c67.84,0,128.46,50.47,141.09,117.09a157.23,157.23,0,0,1,2.89,29q.23,344.19.11,688.39a145.91,145.91,0,0,1-123,144,143.82,143.82,0,0,1-22.31,1.87q-344.92.14-689.85.06c-68.82,0-129.35-49.88-142.3-117.41a159.54,159.54,0,0,1-2.94-29.48Q9.51,671.47,9.68,499.62Zm965.91.22q0-169.17,0-338.33c0-6.66-.22-13.35-.87-20-3.15-32.15-17.22-59.13-40.44-81.07-26.23-24.78-57.73-36.2-94-36.17q-339.55.33-679.11.14c-6.34,0-12.7.25-19,.84-32.35,3-59.51,17.07-81.6,40.41C35.76,91.88,24.26,123.35,24.3,159.62q.33,338.82.15,677.65a209.91,209.91,0,0,0,.9,21.43c3.36,32.64,17.75,59.91,41.68,82,26.15,24.11,57.29,35.07,93,35q340-.33,680.09-.11a75.54,75.54,0,0,0,8.78-.12c8.86-1,17.91-1.43,26.51-3.6,59.83-15.1,100.8-69.38,100.42-130.27C975.09,727.68,975.59,613.76,975.59,499.84Z" transform="translate(-9.66 -9.75)"/><path class="cls-2" d="M975.59,499.84c0,113.92-.5,227.84.2,341.76.38,60.89-40.59,115.17-100.42,130.27-8.6,2.17-17.65,2.57-26.51,3.6a75.54,75.54,0,0,1-8.78.12q-340.05,0-680.09.11c-35.67,0-66.81-10.92-93-35-23.93-22.06-38.32-49.33-41.68-82a209.91,209.91,0,0,1-.9-21.43q-.07-338.83-.15-677.65c0-36.27,11.46-67.74,36.25-93.93,22.09-23.34,49.25-37.39,81.6-40.41,6.3-.59,12.66-.84,19-.84q339.55-.06,679.11-.14c36.25,0,67.75,11.39,94,36.17,23.22,21.94,37.29,48.92,40.44,81.07.65,6.62.87,13.31.87,20Q975.64,330.68,975.59,499.84ZM500,964.84q168.95,0,337.87-.05a128.71,128.71,0,0,0,18-1.17A127,127,0,0,0,964.82,838q.06-338.1,0-676.21a128.08,128.08,0,0,0-1.13-17.51C955,82,901.08,35.17,838.15,35.17q-338.1,0-676.21,0a133.14,133.14,0,0,0-17.51,1.13C82.85,44.56,35.22,98.63,35.2,160.75q-.14,339.33,0,678.66a112.85,112.85,0,0,0,1.17,16.53C45.8,919.12,99,964.84,163.07,964.84Z" transform="translate(-9.66 -9.75)"/><path class="cls-1" d="M500,964.84H163.07c-64,0-117.27-45.72-126.69-108.9a112.85,112.85,0,0,1-1.17-16.53q-.08-339.33,0-678.66c0-62.12,47.65-116.19,109.23-124.41a133.14,133.14,0,0,1,17.51-1.13q338.12-.09,676.21,0C901.08,35.17,955,82,963.66,144.31a128.08,128.08,0,0,1,1.13,17.51q.09,338.1,0,676.21a127,127,0,0,1-109,125.59,128.71,128.71,0,0,1-18,1.17Q668.89,964.9,500,964.84Z" transform="translate(-9.66 -9.75)"/><g id="Layer_1-2" data-name="Layer_1"><text class="cls-3" transform="translate(71.49 555.12)">CP-100FX</text><text class="cls-4" transform="translate(73.49 415.43)">P<tspan class="cls-5" x="98.3" y="0">ANGAEA</tspan></text><text class="cls-6" transform="translate(72.49 835.15)">P<tspan class="cls-7" x="88.32" y="0">R</tspan><tspan x="181.37" y="0">OCESSOR</tspan></text><text class="cls-8" transform="translate(72.48 721.33)">GUI<tspan class="cls-9" x="399.34" y="0">T</tspan><tspan x="526.47" y="0">AR</tspan></text><text class="cls-10" transform="translate(82.91 893.37)">ww<tspan class="cls-11" x="110.2" y="0">w</tspan><tspan x="160.34" y="0">.amtelect</tspan><tspan class="cls-12" x="465.16" y="0">r</tspan><tspan class="cls-13" x="492.01" y="0">onics.com</tspan></text><path class="cls-2" d="M283.3,256.68l-112.25,0-16.18,30.75H86.15L184,100.91h87.7l97.88,186.5H299.41ZM262.06,216.2l-35.1-67-34.74,67Zm96-115.29H463.85l40.84,113.46,40.66-113.46H650.79v186.5h-65.7V145.21l-51,142.2H474.64l-50.8-142.2v142.2H358V100.91Zm289.43,0H891.94V147H809.88V287.41H729.45V147h-82Z" transform="translate(-9.66 -9.75)"/></g></svg>