<?xml version="1.0" encoding="utf-8"?>
<!-- Generator: Adobe Illustrator 24.1.2, SVG Export Plug-In . SVG Version: 6.00 Build 0)  -->
<svg version="1.1" xmlns="http://www.w3.org/2000/svg" xmlns:xlink="http://www.w3.org/1999/xlink" x="0px" y="0px"
	 viewBox="0 0 600 1200" style="enable-background:new 0 0 600 1200;" xml:space="preserve">
<style type="text/css">
	.st0{display:none;}
	.st1{display:inline;}
	.st2{fill:none;stroke:#008D36;stroke-width:2.8346;stroke-miterlimit:10;}
	.st3{fill:none;stroke:#008D36;stroke-width:2.8346;stroke-miterlimit:10;stroke-dasharray:42.8696,42.8696;}
	.st4{display:inline;fill:#020203;}
	.st5{clip-path:url(#SVGID_4_);fill:#020203;}
	.st6{clip-path:url(#SVGID_4_);fill:#FFFFFF;}
	.st7{clip-path:url(#SVGID_6_);fill:#020203;}
	.st8{clip-path:url(#SVGID_6_);fill:#FFFFFF;}
	.st9{display:inline;fill:#FCFEFF;}
	.st10{display:inline;fill:none;stroke:#010202;stroke-width:0.251;}
	.st11{clip-path:url(#SVGID_8_);fill:#FCFEFF;}
	.st12{clip-path:url(#SVGID_8_);fill:none;stroke:#020203;stroke-width:0.251;}
	.st13{display:inline;fill:none;stroke:#020203;stroke-width:0.251;stroke-miterlimit:27;}
	.st14{display:inline;fill:none;stroke:#020203;stroke-width:0.251;stroke-linecap:round;}
	.st15{clip-path:url(#SVGID_10_);fill:#FCFEFF;}
	.st16{clip-path:url(#SVGID_10_);fill:none;stroke:#020203;stroke-width:0.251;}
	.st17{clip-path:url(#SVGID_12_);fill:#FFFFFF;}
	.st18{clip-path:url(#SVGID_12_);fill:none;stroke:#000000;stroke-width:1.006;}
	.st19{clip-path:url(#SVGID_12_);fill:#E40A1F;}
	.st20{clip-path:url(#SVGID_12_);fill:none;stroke:#020203;stroke-width:0.754;}
	.st21{font-family:'Montserrat-Bold';}
	.st22{font-size:21.7856px;}
	.st23{clip-path:url(#SVGID_14_);fill:#777A7B;}
	.st24{clip-path:url(#SVGID_14_);fill:none;stroke:#777A7B;stroke-width:0.503;}
	.st25{display:inline;fill:#777A7B;}
	.st26{display:inline;fill:none;stroke:#777A7B;stroke-width:0.503;}
	.st27{display:inline;fill:#FFFFFF;}
	.st28{font-family:'Arial-Black';}
	.st29{font-size:99.0098px;}
	.st30{fill:#FFFFFF;}
	.st31{font-size:23.9605px;}
	.st32{clip-path:url(#SVGID_16_);fill:#FCFEFF;}
	.st33{clip-path:url(#SVGID_16_);fill:none;stroke:#020203;stroke-width:0.503;}
	.st34{display:inline;fill:none;stroke:#020203;stroke-width:0.503;}
	.st35{clip-path:url(#SVGID_18_);fill:#FCFEFF;}
	.st36{clip-path:url(#SVGID_18_);fill:none;stroke:#020203;stroke-width:0.503;}
	.st37{clip-path:url(#SVGID_20_);fill:#020203;}
	.st38{clip-path:url(#SVGID_20_);fill:none;stroke:#020203;stroke-width:0.503;}
	.st39{clip-path:url(#SVGID_22_);fill:#020203;}
	.st40{clip-path:url(#SVGID_22_);fill:none;stroke:#020203;stroke-width:0.503;}
	.st41{clip-path:url(#SVGID_22_);fill:none;stroke:#020203;stroke-width:0.458;}
	.st42{display:inline;fill:none;stroke:#FFFFFF;stroke-width:1.813;}
	.st43{clip-path:url(#SVGID_24_);fill:#020203;}
	.st44{clip-path:url(#SVGID_24_);fill:none;stroke:#020203;stroke-width:0.458;}
	.st45{clip-path:url(#SVGID_26_);fill:#020203;}
	.st46{clip-path:url(#SVGID_26_);fill:none;stroke:#020203;stroke-width:0.458;}
	.st47{clip-path:url(#SVGID_28_);fill:#020203;}
	.st48{clip-path:url(#SVGID_28_);fill:none;stroke:#020203;stroke-width:0.458;}
	.st49{clip-path:url(#SVGID_30_);fill:#020203;}
	.st50{clip-path:url(#SVGID_30_);fill:none;stroke:#020203;stroke-width:0.458;}
	.st51{clip-path:url(#SVGID_32_);fill:#FFFFFF;}
	.st52{clip-path:url(#SVGID_32_);fill:none;stroke:#231E21;}
	.st53{clip-path:url(#SVGID_32_);fill:#AAABAA;}
	.st54{clip-path:url(#SVGID_32_);fill:#020304;}
	.st55{clip-path:url(#SVGID_32_);fill:none;stroke:#231E21;stroke-width:0.902;}
	.st56{display:inline;fill:#AAABAA;}
	.st57{display:inline;fill:none;stroke:#231E21;stroke-width:1.051;}
	.st58{clip-path:url(#SVGID_34_);fill:#020203;}
	.st59{clip-path:url(#SVGID_34_);fill:none;stroke:#020203;stroke-width:1.05;}
	.st60{clip-path:url(#SVGID_34_);fill:none;stroke:#231E21;stroke-width:0.585;}
	.st61{display:inline;fill:none;stroke:#231E21;stroke-width:0.5;}
	.st62{clip-path:url(#SVGID_36_);fill:none;stroke:#231E21;stroke-width:0.585;}
	.st63{fill:#020203;}
	.st64{fill:#FCFEFF;}
	.st65{fill:none;stroke:#010202;stroke-width:1.9843;}
	.st66{fill:none;stroke:#020203;stroke-width:1.9843;}
	.st67{fill:none;stroke:#020203;stroke-width:1.9843;stroke-miterlimit:27;}
	.st68{fill:none;stroke:#020203;stroke-width:1.9843;stroke-linecap:round;}
	.st69{fill:none;stroke:#000000;stroke-width:8.5039;}
	.st70{fill:#DADADA;stroke:#9D9D9C;stroke-width:2.8346;}
	.st71{fill:#E40A1F;}
	.st72{fill:none;stroke:#020203;stroke-width:4.252;}
	.st73{fill:none;stroke:#777A7B;stroke-width:0.503;}
	.st74{stroke:#020203;stroke-width:4.252;}
	.st75{display:inline;clip-path:url(#SVGID_38_);fill:#FFFFFF;}
	.st76{display:inline;clip-path:url(#SVGID_38_);fill:none;stroke:#231E21;}
	.st77{display:inline;clip-path:url(#SVGID_38_);fill:#AAABAA;}
	.st78{display:inline;clip-path:url(#SVGID_38_);fill:#020304;}
	.st79{display:inline;clip-path:url(#SVGID_38_);fill:none;stroke:#231E21;stroke-width:0.902;}
	.st80{display:inline;clip-path:url(#SVGID_38_);fill:none;stroke:#231E21;stroke-width:1.051;}
	.st81{display:inline;clip-path:url(#SVGID_38_);}
	.st82{clip-path:url(#SVGID_40_);fill:#020203;}
	.st83{clip-path:url(#SVGID_40_);fill:none;stroke:#020203;stroke-width:1.05;}
	.st84{clip-path:url(#SVGID_40_);fill:none;stroke:#231E21;stroke-width:0.585;}
	.st85{display:inline;clip-path:url(#SVGID_38_);fill:none;stroke:#231E21;stroke-width:0.5;}
	.st86{clip-path:url(#SVGID_42_);fill:none;stroke:#231E21;stroke-width:0.585;}
	.st87{fill:none;stroke:#9D9D9C;stroke-width:7.0866;}
	.st88{fill:none;stroke:#FFFFFF;stroke-width:11.3386;}
</style>
<g id="Подложка" class="st0">
	<g class="st1">
		<defs>
			<rect id="SVGID_1_" x="6.9" y="107.1" width="593.1" height="1043.3"/>
		</defs>
		<clipPath id="SVGID_2_">
			<use xlink:href="#SVGID_1_"  style="overflow:visible;"/>
		</clipPath>
		<g style="clip-path:url(#SVGID_2_);">
			
				<image style="overflow:visible;" width="1118" height="806" xlink:href="Материалы/image.png"  transform="matrix(1.2944 0 0 1.2944 -401.836 107.0529)">
			</image>
		</g>
	</g>
	<g id="Середина" class="st1">
		<g>
			<line class="st2" x1="303.5" y1="0" x2="303.5" y2="21.3"/>
			<line class="st3" x1="303.5" y1="64.1" x2="303.5" y2="1157.3"/>
			<line class="st2" x1="303.5" y1="1178.7" x2="303.5" y2="1200"/>
		</g>
	</g>
</g>
<g id="Исходник" class="st0">
	<rect x="524.5" y="290.1" class="st4" width="24.5" height="92.4"/>
	<g class="st1">
		<defs>
			<rect id="SVGID_3_" x="13.5" y="99.7" width="581.7" height="942.5"/>
		</defs>
		<clipPath id="SVGID_4_">
			<use xlink:href="#SVGID_3_"  style="overflow:visible;"/>
		</clipPath>
		<path class="st5" d="M549,382.5c25.5,0,46.2-20.7,46.2-46.2c0-25.5-20.7-46.2-46.2-46.2c-25.5,0-46.2,20.7-46.2,46.2
			C502.8,361.8,523.5,382.5,549,382.5"/>
		<path class="st6" d="M549,357.2c11.5,0,20.8-9.3,20.8-20.8c0-11.5-9.3-20.8-20.8-20.8c-11.5,0-20.8,9.3-20.8,20.8
			C528.2,347.9,537.5,357.2,549,357.2"/>
	</g>
	<rect x="59.7" y="764.7" class="st4" width="24.5" height="92.4"/>
	<g class="st1">
		<defs>
			<rect id="SVGID_5_" x="13.5" y="99.7" width="581.7" height="942.5"/>
		</defs>
		<clipPath id="SVGID_6_">
			<use xlink:href="#SVGID_5_"  style="overflow:visible;"/>
		</clipPath>
		<path class="st7" d="M59.7,764.7c-25.5,0-46.2,20.7-46.2,46.2c0,25.5,20.7,46.2,46.2,46.2s46.2-20.7,46.2-46.2
			C105.9,785.4,85.2,764.7,59.7,764.7"/>
		<path class="st8" d="M59.7,789.9c-11.5,0-20.8,9.3-20.8,20.8c0,11.5,9.3,20.8,20.8,20.8s20.8-9.3,20.8-20.8
			C80.5,799.2,71.2,789.9,59.7,789.9"/>
		<path class="st7" d="M167.2,203.8c20.8,0,37.7-16.9,37.7-37.7c0-20.8-16.9-37.7-37.7-37.7c-20.8,0-37.7,16.9-37.7,37.7
			C129.5,186.9,146.4,203.8,167.2,203.8"/>
		<path class="st7" d="M449.6,203.8c20.8,0,37.7-16.9,37.7-37.7c0-20.8-16.9-37.7-37.7-37.7c-20.8,0-37.7,16.9-37.7,37.7
			C411.9,186.9,428.8,203.8,449.6,203.8"/>
		<path class="st7" d="M167.2,1042.2c20.8,0,37.7-16.9,37.7-37.7c0-20.8-16.9-37.7-37.7-37.7c-20.8,0-37.7,16.9-37.7,37.7
			C129.5,1025.3,146.4,1042.2,167.2,1042.2"/>
		<path class="st7" d="M449.6,1042.2c20.8,0,37.7-16.9,37.7-37.7c0-20.8-16.9-37.7-37.7-37.7c-20.8,0-37.7,16.9-37.7,37.7
			C411.9,1025.3,428.8,1042.2,449.6,1042.2"/>
	</g>
	<rect x="529.5" y="684.5" class="st9" width="7.7" height="114.9"/>
	<rect x="529.5" y="684.5" class="st10" width="7.7" height="114.9"/>
	<g class="st1">
		<defs>
			<rect id="SVGID_7_" x="13.5" y="99.7" width="581.7" height="942.5"/>
		</defs>
		<clipPath id="SVGID_8_">
			<use xlink:href="#SVGID_7_"  style="overflow:visible;"/>
		</clipPath>
		<path class="st11" d="M556.4,690.4c0-0.7-0.6-1.2-1.2-1.2h-18v106.2h18c0.7,0,1.2-0.6,1.2-1.3V690.4z"/>
		<path class="st12" d="M556.4,690.4c0-0.7-0.6-1.2-1.2-1.2h-18v106.2h18c0.7,0,1.2-0.6,1.2-1.3V690.4z"/>
		<path class="st11" d="M555.5,690.2c0-0.6-0.5-1.1-1.1-1.1h-16.7v25.2h16.7c0.6,0,1.1-0.5,1.1-1.1V690.2z"/>
		<path class="st12" d="M555.5,690.2c0-0.6-0.5-1.1-1.1-1.1h-16.7v25.2h16.7c0.6,0,1.1-0.5,1.1-1.1V690.2z"/>
		<path class="st11" d="M555.5,715c0-0.6-0.5-1.1-1.1-1.1h-16.7V767h16.7c0.6,0,1.1-0.5,1.1-1.1V715z"/>
		<path class="st12" d="M555.5,715c0-0.6-0.5-1.1-1.1-1.1h-16.7V767h16.7c0.6,0,1.1-0.5,1.1-1.1V715z"/>
		<path class="st11" d="M555.5,767.7c0-0.6-0.5-1.1-1.1-1.1h-16.7v29h16.7c0.6,0,1.1-0.5,1.1-1.1V767.7z"/>
		<path class="st12" d="M555.5,767.7c0-0.6-0.5-1.1-1.1-1.1h-16.7v29h16.7c0.6,0,1.1-0.5,1.1-1.1V767.7z"/>
	</g>
	<rect x="556.2" y="708.9" class="st9" width="3.5" height="66.6"/>
	<polygon class="st13" points="559.7,708.9 559.7,708.9 556.2,708.9 556.2,775.5 559.7,775.5 	"/>
	<polygon class="st9" points="569.4,712 569.4,712 560.8,709.2 560.8,775.2 569.4,772.4 	"/>
	<polygon class="st14" points="569.4,712 569.4,712 560.8,709.2 560.8,775.2 569.4,772.4 	"/>
	<rect x="72.4" y="534.3" class="st9" width="7.7" height="114.9"/>
	<rect x="72.4" y="534.3" class="st10" width="7.7" height="114.9"/>
	<g class="st1">
		<defs>
			<rect id="SVGID_9_" x="13.5" y="99.7" width="581.7" height="942.5"/>
		</defs>
		<clipPath id="SVGID_10_">
			<use xlink:href="#SVGID_9_"  style="overflow:visible;"/>
		</clipPath>
		<path class="st15" d="M53.2,643.4c0,0.7,0.6,1.2,1.2,1.2h18V538.4h-18c-0.7,0-1.2,0.6-1.2,1.3V643.4z"/>
		<path class="st16" d="M53.2,643.4c0,0.7,0.6,1.2,1.2,1.2h18V538.4h-18c-0.7,0-1.2,0.6-1.2,1.3V643.4z"/>
		<path class="st15" d="M54.1,643.5c0,0.6,0.5,1.1,1.1,1.1h16.7v-25.2H55.2c-0.6,0-1.1,0.5-1.1,1.1V643.5z"/>
		<path class="st16" d="M54.1,643.5c0,0.6,0.5,1.1,1.1,1.1h16.7v-25.2H55.2c-0.6,0-1.1,0.5-1.1,1.1V643.5z"/>
		<path class="st15" d="M54.1,618.7c0,0.6,0.5,1.1,1.1,1.1h16.7v-53.2H55.2c-0.6,0-1.1,0.5-1.1,1.1V618.7z"/>
		<path class="st16" d="M54.1,618.7c0,0.6,0.5,1.1,1.1,1.1h16.7v-53.2H55.2c-0.6,0-1.1,0.5-1.1,1.1V618.7z"/>
		<path class="st15" d="M54.1,566c0,0.6,0.5,1.1,1.1,1.1h16.7v-29H55.2c-0.6,0-1.1,0.5-1.1,1.1V566z"/>
		<path class="st16" d="M54.1,566c0,0.6,0.5,1.1,1.1,1.1h16.7v-29H55.2c-0.6,0-1.1,0.5-1.1,1.1V566z"/>
	</g>
	<rect x="49.9" y="558.2" class="st9" width="3.5" height="66.6"/>
	<polygon class="st13" points="49.9,624.9 49.9,624.9 53.4,624.9 53.4,558.2 49.9,558.2 	"/>
	<polygon class="st9" points="40.2,621.7 40.2,621.7 48.8,624.5 48.8,558.5 40.2,561.3 	"/>
	<polygon class="st14" points="40.2,621.7 40.2,621.7 48.8,624.5 48.8,558.5 40.2,561.3 	"/>
	<g class="st1">
		<defs>
			<rect id="SVGID_11_" x="13.5" y="99.7" width="581.7" height="942.5"/>
		</defs>
		<clipPath id="SVGID_12_">
			<use xlink:href="#SVGID_11_"  style="overflow:visible;"/>
		</clipPath>
		<path class="st17" d="M97.3,142.7c-6.6,0-12,5.4-12,12v864.8c0,6.6,5.4,12,12,12H512c6.6,0,12-5.4,12-12V154.7c0-6.7-5.4-12-12-12
			H97.3z"/>
		<path class="st18" d="M97.8,141.4c-6.6,0-12,5.4-12,12v864.8c0,6.6,5.4,12,12,12h414.6c6.6,0,12-5.4,12-12V153.5
			c0-6.7-5.4-12-12-12H97.8z"/>
		<path class="st19" d="M404.6,851.7c9.2,0,16.7-7.5,16.7-16.7c0-9.2-7.5-16.7-16.7-16.7c-9.2,0-16.7,7.5-16.7,16.7
			C387.9,844.2,395.4,851.7,404.6,851.7"/>
		
			<ellipse transform="matrix(0.8507 -0.5257 0.5257 0.8507 -378.5482 337.442)" class="st20" cx="404.6" cy="835" rx="16.7" ry="16.7"/>
	</g>
	<text transform="matrix(1 0 0 1 428.7208 843.1836)" class="st1"><tspan x="0" y="0" class="st21 st22">CH</tspan><tspan x="33.6" y="0" class="st21 st22">E</tspan><tspan x="48.2" y="0" class="st21 st22">CK</tspan></text>
	<g class="st1">
		<defs>
			<rect id="SVGID_13_" x="13.5" y="99.7" width="581.7" height="942.5"/>
		</defs>
		<clipPath id="SVGID_14_">
			<use xlink:href="#SVGID_13_"  style="overflow:visible;"/>
		</clipPath>
		<path class="st23" d="M305.5,1001.8c53.6,0,97.1-43.5,97.1-97.1c0-53.6-43.5-97.1-97.1-97.1s-97.1,43.5-97.1,97.1
			C208.5,958.3,251.9,1001.8,305.5,1001.8"/>
		<circle class="st24" cx="305.5" cy="904.7" r="97.1"/>
	</g>
	<rect x="390" y="859.2" class="st25" width="124.6" height="86.9"/>
	<rect x="390" y="859.2" class="st26" width="124.6" height="86.9"/>
	<text transform="matrix(1 0 0 1 405.8097 936.2412)" class="st27 st28 st29">A</text>
	<text transform="matrix(-6.123234e-17 -1 1 -6.123234e-17 510.4005 937.2617)" class="st1"><tspan x="0" y="0" class="st30 st28 st31">B</tspan><tspan x="18.5" y="0" class="st30 st28 st31">A</tspan><tspan x="37.3" y="0" class="st30 st28 st31">S</tspan><tspan x="54.9" y="0" class="st30 st28 st31">S</tspan></text>
	<path class="st25" d="M176.1,890.2H212v6.8h-12v20.6h-11.8v-20.6h-12V890.2z M133.6,890.2h15.5l6,16.7l6-16.7h15.5v27.4h-9.7v-20.9
		l-7.5,20.9h-8.7l-7.5-20.9v20.9h-9.7L133.6,890.2L133.6,890.2z M119.5,907.1l-5.2-9.8l-5.1,9.8H119.5z M122.6,913l-16.5,0l-2.4,4.5
		H93.7l14.4-27.4h12.9l14.4,27.4H125L122.6,913z"/>
	<g class="st1">
		<defs>
			<rect id="SVGID_15_" x="13.5" y="99.7" width="581.7" height="942.5"/>
		</defs>
		<clipPath id="SVGID_16_">
			<use xlink:href="#SVGID_15_"  style="overflow:visible;"/>
		</clipPath>
		<path class="st32" d="M305,990.6c47.3,0,85.7-38.4,85.7-85.8c0-47.4-38.4-85.8-85.7-85.8s-85.7,38.4-85.7,85.8
			C219.3,952.2,257.7,990.6,305,990.6"/>
		<ellipse class="st33" cx="305" cy="904.9" rx="85.7" ry="85.8"/>
	</g>
	<polygon class="st9" points="341.1,823.7 252.8,833 216.7,914.2 268.9,986.1 357.2,976.8 393.3,895.6 	"/>
	<polygon class="st34" points="341.1,823.7 252.8,833 216.7,914.2 268.9,986.1 357.2,976.8 393.3,895.6 	"/>
	<g class="st1">
		<defs>
			<rect id="SVGID_17_" x="13.5" y="99.7" width="581.7" height="942.5"/>
		</defs>
		<clipPath id="SVGID_18_">
			<use xlink:href="#SVGID_17_"  style="overflow:visible;"/>
		</clipPath>
		<path class="st35" d="M305,971.6c36.8,0,66.6-29.9,66.6-66.7c0-36.8-29.8-66.7-66.6-66.7s-66.6,29.9-66.6,66.7
			C238.4,941.7,268.2,971.6,305,971.6"/>
		<ellipse class="st36" cx="305" cy="904.9" rx="66.6" ry="66.7"/>
		<path class="st35" d="M305,960.3c30.6,0,55.4-24.8,55.4-55.4s-24.8-55.4-55.4-55.4s-55.4,24.8-55.4,55.4S274.4,960.3,305,960.3"/>
		<ellipse class="st36" cx="305" cy="904.9" rx="55.4" ry="55.4"/>
	</g>
	<rect x="152.9" y="715.8" class="st4" width="151.9" height="63.8"/>
	<g class="st1">
		<defs>
			<rect id="SVGID_19_" x="13.5" y="99.7" width="581.7" height="942.5"/>
		</defs>
		<clipPath id="SVGID_20_">
			<use xlink:href="#SVGID_19_"  style="overflow:visible;"/>
		</clipPath>
		<path class="st37" d="M152.2,777.4c16.4,0,29.8-13.3,29.8-29.8c0-16.4-13.3-29.8-29.8-29.8s-29.8,13.3-29.8,29.8
			C122.5,764.1,135.8,777.4,152.2,777.4"/>
		<path class="st38" d="M152.2,777.4c16.4,0,29.8-13.3,29.8-29.8c0-16.4-13.3-29.8-29.8-29.8s-29.8,13.3-29.8,29.8
			C122.5,764.1,135.8,777.4,152.2,777.4z"/>
	</g>
	<rect x="300.9" y="715.8" class="st4" width="156.6" height="63.8"/>
	<g class="st1">
		<defs>
			<rect id="SVGID_21_" x="13.5" y="99.7" width="581.7" height="942.5"/>
		</defs>
		<clipPath id="SVGID_22_">
			<use xlink:href="#SVGID_21_"  style="overflow:visible;"/>
		</clipPath>
		<path class="st39" d="M458.1,717.9c-16.4,0-29.8,13.3-29.8,29.8c0,16.4,13.3,29.8,29.8,29.8s29.8-13.3,29.8-29.8
			C487.8,731.2,474.5,717.9,458.1,717.9"/>
		<path class="st40" d="M458.1,717.9c-16.4,0-29.8,13.3-29.8,29.8c0,16.4,13.3,29.8,29.8,29.8s29.8-13.3,29.8-29.8
			C487.8,731.2,474.5,717.9,458.1,717.9z"/>
		<path class="st39" d="M163.3,700.1c31.5,0,56.9-25.5,56.9-56.9c0-31.5-25.5-56.9-56.9-56.9s-56.9,25.5-56.9,56.9
			C106.4,674.6,131.9,700.1,163.3,700.1"/>
		<circle class="st41" cx="163.3" cy="643.1" r="56.9"/>
	</g>
	<line class="st42" x1="123.4" y1="686.2" x2="163.3" y2="646.3"/>
	<g class="st1">
		<defs>
			<rect id="SVGID_23_" x="13.5" y="99.7" width="581.7" height="942.5"/>
		</defs>
		<clipPath id="SVGID_24_">
			<use xlink:href="#SVGID_23_"  style="overflow:visible;"/>
		</clipPath>
		<path class="st43" d="M304.2,700.1c31.5,0,56.9-25.5,56.9-56.9c0-31.5-25.5-56.9-56.9-56.9s-56.9,25.5-56.9,56.9
			C247.2,674.6,272.7,700.1,304.2,700.1"/>
		<circle class="st44" cx="304.2" cy="643.1" r="56.9"/>
	</g>
	<line class="st42" x1="264.3" y1="686.2" x2="304.2" y2="646.3"/>
	<g class="st1">
		<defs>
			<rect id="SVGID_25_" x="13.5" y="99.7" width="581.7" height="942.5"/>
		</defs>
		<clipPath id="SVGID_26_">
			<use xlink:href="#SVGID_25_"  style="overflow:visible;"/>
		</clipPath>
		<path class="st45" d="M446.8,700.1c31.5,0,56.9-25.5,56.9-56.9c0-31.5-25.5-56.9-56.9-56.9s-56.9,25.5-56.9,56.9
			C389.9,674.6,415.4,700.1,446.8,700.1"/>
		
			<ellipse transform="matrix(0.7071 -0.7071 0.7071 0.7071 -323.8847 504.3014)" class="st46" cx="446.8" cy="643.1" rx="56.9" ry="56.9"/>
	</g>
	<line class="st42" x1="406.9" y1="686.2" x2="446.8" y2="646.3"/>
	<g class="st1">
		<defs>
			<rect id="SVGID_27_" x="13.5" y="99.7" width="581.7" height="942.5"/>
		</defs>
		<clipPath id="SVGID_28_">
			<use xlink:href="#SVGID_27_"  style="overflow:visible;"/>
		</clipPath>
		<path class="st47" d="M163.3,566.2c31.5,0,56.9-25.5,56.9-56.9c0-31.5-25.5-56.9-56.9-56.9s-56.9,25.5-56.9,56.9
			C106.4,540.7,131.9,566.2,163.3,566.2"/>
		<circle class="st48" cx="163.3" cy="509.2" r="56.9"/>
	</g>
	<line class="st42" x1="123.4" y1="552.3" x2="163.3" y2="512.4"/>
	<g class="st1">
		<defs>
			<rect id="SVGID_29_" x="13.5" y="99.7" width="581.7" height="942.5"/>
		</defs>
		<clipPath id="SVGID_30_">
			<use xlink:href="#SVGID_29_"  style="overflow:visible;"/>
		</clipPath>
		<path class="st49" d="M446.8,566.2c31.5,0,56.9-25.5,56.9-56.9c0-31.5-25.5-56.9-56.9-56.9s-56.9,25.5-56.9,56.9
			C389.9,540.7,415.4,566.2,446.8,566.2"/>
		
			<ellipse transform="matrix(0.7071 -0.7071 0.7071 0.7071 -229.1956 465.0798)" class="st50" cx="446.8" cy="509.2" rx="56.9" ry="56.9"/>
	</g>
	<line class="st42" x1="406.9" y1="552.3" x2="446.8" y2="512.4"/>
	<g class="st1">
		<defs>
			<rect id="SVGID_31_" x="13.5" y="99.7" width="581.7" height="942.5"/>
		</defs>
		<clipPath id="SVGID_32_">
			<use xlink:href="#SVGID_31_"  style="overflow:visible;"/>
		</clipPath>
		<path class="st51" d="M506.3,248.1V103.9H395.7H211.9H101.3v144.2c0.3,0,0.6-0.1,0.9-0.1c21.4,0,38.7,17.4,38.7,38.7
			c0,19.8-15,36-34.2,38.3c16.9,76.3,77.7,136.1,154.8,152.4c-0.1-1.3-0.4-2.5-0.4-3.8c0-23.5,19.1-42.6,42.6-42.6
			c23.5,0,42.6,19.1,42.6,42.6c0,1.3-0.3,2.6-0.4,3.8C423.1,461.1,484,401.3,500.9,325c-19.2-2.3-34.2-18.4-34.2-38.3
			c0-21.4,17.3-38.7,38.7-38.7C505.7,248,506,248.1,506.3,248.1"/>
		<path class="st52" d="M506.3,248.1V103.9H395.7H211.9H101.3v144.2c0.3,0,0.6-0.1,0.9-0.1c21.4,0,38.7,17.4,38.7,38.7
			c0,19.8-15,36-34.2,38.3c16.9,76.3,77.7,136.1,154.8,152.4c-0.1-1.3-0.4-2.5-0.4-3.8c0-23.5,19.1-42.6,42.6-42.6
			c23.5,0,42.6,19.1,42.6,42.6c0,1.3-0.3,2.6-0.4,3.8C423.1,461.1,484,401.3,500.9,325c-19.2-2.3-34.2-18.4-34.2-38.3
			c0-21.4,17.3-38.7,38.7-38.7C505.7,248,506,248.1,506.3,248.1z"/>
		<ellipse class="st52" cx="303.8" cy="291.2" rx="66.8" ry="66.9"/>
		<path class="st52" d="M303.8,390.5c54.8,0,99.2-44.5,99.2-99.3c0-54.8-44.4-99.3-99.2-99.3c-54.8,0-99.2,44.5-99.2,99.3
			C204.6,346.1,249,390.5,303.8,390.5z"/>
		<ellipse class="st52" cx="303.8" cy="291.2" rx="129.8" ry="129.5"/>
		<path class="st53" d="M303.8,326.7c19.6,0,35.4-15.9,35.4-35.4s-15.9-35.4-35.4-35.4c-19.6,0-35.4,15.9-35.4,35.4
			S284.2,326.7,303.8,326.7"/>
		<circle class="st52" cx="303.8" cy="291.2" r="35.4"/>
		<path class="st54" d="M303.8,505.6c17.7,0,32-14.3,32-32c0-17.7-14.3-32-32-32c-17.7,0-32,14.3-32,32
			C271.8,491.3,286.1,505.6,303.8,505.6"/>
		<path class="st55" d="M303.8,505.6c17.7,0,32-14.3,32-32c0-17.7-14.3-32-32-32c-17.7,0-32,14.3-32,32
			C271.8,491.3,286.1,505.6,303.8,505.6z"/>
	</g>
	<polygon class="st56" points="314.1,456.3 314.1,456.3 293.5,456.3 283.1,473.6 293.5,490.9 314.1,490.9 324.5,473.6 	"/>
	<polygon class="st57" points="314.1,456.3 314.1,456.3 293.5,456.3 283.1,473.6 293.5,490.9 314.1,490.9 324.5,473.6 	"/>
	<g class="st1">
		<defs>
			<rect id="SVGID_33_" x="13.5" y="99.7" width="581.7" height="942.5"/>
		</defs>
		<clipPath id="SVGID_34_">
			<use xlink:href="#SVGID_33_"  style="overflow:visible;"/>
		</clipPath>
		<path class="st58" d="M202.9,134.4h0.2V106h-21.8v28.3h0.2c-0.1,0.4-0.2,0.8-0.2,1.2c0,6,4.9,10.9,10.9,10.9
			c6,0,10.9-4.9,10.9-10.9C203.2,135.1,203,134.8,202.9,134.4"/>
		<path class="st59" d="M202.9,134.4h0.2V106h-21.8v28.3h0.2c-0.1,0.4-0.2,0.8-0.2,1.2c0,6,4.9,10.9,10.9,10.9
			c6,0,10.9-4.9,10.9-10.9C203.2,135.1,203,134.8,202.9,134.4z"/>
		<path class="st58" d="M258.7,134.4h0.2V106h-21.8v28.3h0.2c-0.1,0.4-0.2,0.8-0.2,1.2c0,6,4.9,10.9,10.9,10.9
			c6,0,10.9-4.9,10.9-10.9C259,135.1,258.8,134.8,258.7,134.4"/>
		<path class="st59" d="M258.7,134.4h0.2V106h-21.8v28.3h0.2c-0.1,0.4-0.2,0.8-0.2,1.2c0,6,4.9,10.9,10.9,10.9
			c6,0,10.9-4.9,10.9-10.9C259,135.1,258.8,134.8,258.7,134.4z"/>
		<path class="st58" d="M314.5,134.4h0.2V106H293v28.3h0.2c-0.1,0.4-0.2,0.8-0.2,1.2c0,6,4.9,10.9,10.9,10.9c6,0,10.9-4.9,10.9-10.9
			C314.8,135.1,314.6,134.8,314.5,134.4"/>
		<path class="st59" d="M314.5,134.4h0.2V106H293v28.3h0.2c-0.1,0.4-0.2,0.8-0.2,1.2c0,6,4.9,10.9,10.9,10.9c6,0,10.9-4.9,10.9-10.9
			C314.8,135.1,314.6,134.8,314.5,134.4z"/>
		<path class="st58" d="M369.9,134.4h0.2V106h-21.8v28.3h0.2c-0.1,0.4-0.2,0.8-0.2,1.2c0,6,4.9,10.9,10.9,10.9
			c6,0,10.9-4.9,10.9-10.9C370.2,135.1,370,134.8,369.9,134.4"/>
		<path class="st59" d="M369.9,134.4h0.2V106h-21.8v28.3h0.2c-0.1,0.4-0.2,0.8-0.2,1.2c0,6,4.9,10.9,10.9,10.9
			c6,0,10.9-4.9,10.9-10.9C370.2,135.1,370,134.8,369.9,134.4z"/>
		<path class="st58" d="M425.7,134.4h0.2V106h-21.8v28.3h0.2c-0.1,0.4-0.2,0.8-0.2,1.2c0,6,4.9,10.9,10.9,10.9
			c6,0,10.9-4.9,10.9-10.9C426,135.1,425.8,134.8,425.7,134.4"/>
		<path class="st59" d="M425.7,134.4h0.2V106h-21.8v28.3h0.2c-0.1,0.4-0.2,0.8-0.2,1.2c0,6,4.9,10.9,10.9,10.9
			c6,0,10.9-4.9,10.9-10.9C426,135.1,425.8,134.8,425.7,134.4z"/>
		<circle class="st60" cx="112.8" cy="286.4" r="20.7"/>
	</g>
	<line class="st61" x1="102.7" y1="276.2" x2="122.6" y2="296.2"/>
	<line class="st61" x1="102.7" y1="296.2" x2="122.6" y2="276.2"/>
	<g class="st1">
		<defs>
			<rect id="SVGID_35_" x="13.5" y="99.7" width="581.7" height="942.5"/>
		</defs>
		<clipPath id="SVGID_36_">
			<use xlink:href="#SVGID_35_"  style="overflow:visible;"/>
		</clipPath>
		<circle class="st62" cx="496.5" cy="286.4" r="20.7"/>
	</g>
	<line class="st61" x1="486.3" y1="276.2" x2="506.3" y2="296.2"/>
	<line class="st61" x1="486.3" y1="296.2" x2="506.3" y2="276.2"/>
</g>
<g id="Layer_3">
	<g id="Ухо_прав">
		<rect x="519.6" y="315.7" class="st63" width="24.5" height="92.4"/>
		<path class="st63" d="M544.1,408.1c25.5,0,46.2-20.7,46.2-46.2c0-25.5-20.7-46.2-46.2-46.2c-25.5,0-46.2,20.7-46.2,46.2
			C497.9,387.4,518.6,408.1,544.1,408.1"/>
		<path class="st30" d="M544.1,382.8c11.5,0,20.8-9.3,20.8-20.8c0-11.5-9.3-20.8-20.8-20.8s-20.8,9.3-20.8,20.8
			C523.3,373.5,532.6,382.8,544.1,382.8"/>
	</g>
	<g id="Ухо_лев">
		<rect x="54.8" y="790.3" class="st63" width="24.5" height="92.4"/>
		<path class="st63" d="M54.8,790.3c-25.5,0-46.2,20.7-46.2,46.2s20.7,46.2,46.2,46.2S101,862,101,836.5S80.3,790.3,54.8,790.3"/>
		<path class="st30" d="M54.8,815.5c-11.5,0-20.8,9.3-20.8,20.8c0,11.5,9.3,20.8,20.8,20.8s20.8-9.3,20.8-20.8
			C75.6,824.8,66.3,815.5,54.8,815.5"/>
	</g>
	<g id="IN_x2F_OUT">
		<rect x="524.6" y="491.1" class="st64" width="7.7" height="114.9"/>
		<rect x="524.6" y="491.1" class="st65" width="7.7" height="114.9"/>
		<g>
			<path class="st64" d="M551.5,496.9c0-0.7-0.6-1.2-1.2-1.2h-18v106.2h18c0.7,0,1.2-0.6,1.2-1.3V496.9z"/>
			<path class="st66" d="M551.5,496.9c0-0.7-0.6-1.2-1.2-1.2h-18v106.2h18c0.7,0,1.2-0.6,1.2-1.3V496.9z"/>
			<path class="st64" d="M550.6,496.8c0-0.6-0.5-1.1-1.1-1.1h-16.7v25.2h16.7c0.6,0,1.1-0.5,1.1-1.1V496.8z"/>
			<path class="st66" d="M550.6,496.8c0-0.6-0.5-1.1-1.1-1.1h-16.7v25.2h16.7c0.6,0,1.1-0.5,1.1-1.1V496.8z"/>
			<path class="st64" d="M550.6,521.6c0-0.6-0.5-1.1-1.1-1.1h-16.7v53.2h16.7c0.6,0,1.1-0.5,1.1-1.1V521.6z"/>
			<path class="st66" d="M550.6,521.6c0-0.6-0.5-1.1-1.1-1.1h-16.7v53.2h16.7c0.6,0,1.1-0.5,1.1-1.1V521.6z"/>
			<path class="st64" d="M550.6,574.3c0-0.6-0.5-1.1-1.1-1.1h-16.7v29h16.7c0.6,0,1.1-0.5,1.1-1.1V574.3z"/>
			<path class="st66" d="M550.6,574.3c0-0.6-0.5-1.1-1.1-1.1h-16.7v29h16.7c0.6,0,1.1-0.5,1.1-1.1V574.3z"/>
		</g>
		<rect x="551.3" y="515.5" class="st64" width="3.5" height="66.6"/>
		<polygon class="st67" points="554.8,515.5 554.8,515.5 551.3,515.5 551.3,582.1 554.8,582.1 		"/>
		<polygon class="st64" points="564.5,518.6 564.5,518.6 555.9,515.8 555.9,581.8 564.5,579 		"/>
		<polygon class="st68" points="564.5,518.6 564.5,518.6 555.9,515.8 555.9,581.8 564.5,579 		"/>
	</g>
	<g id="IN_x2F_OUT_1_">
		<rect x="67.9" y="345" class="st64" width="7.7" height="114.9"/>
		<rect x="67.9" y="345" class="st65" width="7.7" height="114.9"/>
		<g>
			<path class="st64" d="M48.7,454.1c0,0.7,0.6,1.2,1.2,1.2h18V349.2H50c-0.7,0-1.2,0.6-1.2,1.3V454.1z"/>
			<path class="st66" d="M48.7,454.1c0,0.7,0.6,1.2,1.2,1.2h18V349.2H50c-0.7,0-1.2,0.6-1.2,1.3V454.1z"/>
			<path class="st64" d="M49.6,454.2c0,0.6,0.5,1.1,1.1,1.1h16.7v-25.2H50.7c-0.6,0-1.1,0.5-1.1,1.1V454.2z"/>
			<path class="st66" d="M49.6,454.2c0,0.6,0.5,1.1,1.1,1.1h16.7v-25.2H50.7c-0.6,0-1.1,0.5-1.1,1.1V454.2z"/>
			<path class="st64" d="M49.6,429.5c0,0.6,0.5,1.1,1.1,1.1h16.7v-53.2H50.7c-0.6,0-1.1,0.5-1.1,1.1V429.5z"/>
			<path class="st66" d="M49.6,429.5c0,0.6,0.5,1.1,1.1,1.1h16.7v-53.2H50.7c-0.6,0-1.1,0.5-1.1,1.1V429.5z"/>
			<path class="st64" d="M49.6,376.7c0,0.6,0.5,1.1,1.1,1.1h16.7v-29H50.7c-0.6,0-1.1,0.5-1.1,1.1V376.7z"/>
			<path class="st66" d="M49.6,376.7c0,0.6,0.5,1.1,1.1,1.1h16.7v-29H50.7c-0.6,0-1.1,0.5-1.1,1.1V376.7z"/>
		</g>
		<rect x="45.4" y="368.9" class="st64" width="3.5" height="66.6"/>
		<polygon class="st67" points="45.4,435.6 45.4,435.6 48.9,435.6 48.9,368.9 45.4,368.9 		"/>
		<polygon class="st64" points="35.7,432.4 35.7,432.4 44.3,435.2 44.3,369.2 35.7,372.1 		"/>
		<polygon class="st68" points="35.7,432.4 35.7,432.4 44.3,435.2 44.3,369.2 35.7,372.1 		"/>
	</g>
	<g id="Ножки">
		<path class="st63" d="M162.3,229.4c20.8,0,37.7-16.9,37.7-37.7c0-20.8-16.9-37.7-37.7-37.7s-37.7,16.9-37.7,37.7
			C124.6,212.5,141.5,229.4,162.3,229.4"/>
		<path class="st63" d="M444.7,229.4c20.8,0,37.7-16.9,37.7-37.7c0-20.8-16.9-37.7-37.7-37.7S407,170.9,407,191.7
			C407,212.5,423.9,229.4,444.7,229.4"/>
		<path class="st63" d="M162.3,1067.8c20.8,0,37.7-16.9,37.7-37.7c0-20.8-16.9-37.7-37.7-37.7s-37.7,16.9-37.7,37.7
			C124.6,1050.9,141.5,1067.8,162.3,1067.8"/>
		<path class="st63" d="M444.7,1067.8c20.8,0,37.7-16.9,37.7-37.7c0-20.8-16.9-37.7-37.7-37.7s-37.7,16.9-37.7,37.7
			C407,1050.9,423.9,1067.8,444.7,1067.8"/>
	</g>
	<g id="КОРПУС_ПЕДАЛИ">
		<path id="ЗАЛИВКА_КОРПУСА" class="st30" d="M92.4,168.3c-6.6,0-12,5.4-12,12v864.8c0,6.6,5.4,12,12,12h414.6
			c6.6,0,12-5.4,12-12V180.3c0-6.7-5.4-12-12-12H92.4z"/>
		<path id="КОРПУС" class="st69" d="M92.9,167c-6.6,0-12,5.4-12,12v864.8c0,6.6,5.4,12,12,12h414.6c6.6,0,12-5.4,12-12V179.1
			c0-6.7-5.4-12-12-12H92.9z"/>
		<path id="КОРПУС-2" class="st70" d="M108.9,181.9c-6.2,0-11.2,5.2-11.2,11.6v834.1c0,6.4,5,11.6,11.2,11.6h384.7
			c6.2,0,11.2-5.2,11.2-11.6V193.5c0-6.4-5-11.6-11.2-11.6H108.9z"/>
	</g>
	<g id="ДИОД">
		<text transform="matrix(1 0 0 1 403.8241 905.7919)" class="st21 st22">ON/OFF</text>
		<path class="st71" d="M443.8,877.3c9.2,0,16.7-7.5,16.7-16.7c0-9.2-7.5-16.7-16.7-16.7c-9.2,0-16.7,7.5-16.7,16.7
			C427,869.8,434.5,877.3,443.8,877.3"/>
		
			<ellipse transform="matrix(0.8507 -0.5257 0.5257 0.8507 -386.1695 361.8262)" class="st72" cx="443.8" cy="860.6" rx="16.7" ry="16.7"/>
	</g>
	<g id="НАДПИСЬ_ВНИЗУ" class="st0">
		<path class="st25" d="M300.6,1027.4c53.6,0,97.1-43.5,97.1-97.1s-43.5-97.1-97.1-97.1s-97.1,43.5-97.1,97.1
			S247,1027.4,300.6,1027.4"/>
		<circle class="st73" cx="300.6" cy="930.3" r="97.1"/>
		<rect x="385.1" y="884.8" class="st25" width="124.6" height="86.9"/>
		<rect x="385.1" y="884.8" class="st26" width="124.6" height="86.9"/>
		<text transform="matrix(1 0 0 1 400.9142 961.8472)" class="st27 st28 st29">A</text>
		<text transform="matrix(-6.123234e-17 -1 1 -6.123234e-17 505.505 962.8677)" class="st1"><tspan x="0" y="0" class="st30 st28 st31">B</tspan><tspan x="18.5" y="0" class="st30 st28 st31">A</tspan><tspan x="37.3" y="0" class="st30 st28 st31">S</tspan><tspan x="54.9" y="0" class="st30 st28 st31">S</tspan></text>
		<path class="st25" d="M171.2,915.8h35.9v6.8h-12v20.6h-11.8v-20.6h-12V915.8z M128.7,915.8h15.5l6,16.7l6-16.7h15.5v27.4H162
			v-20.9l-7.5,20.9h-8.7l-7.5-20.9v20.9h-9.7L128.7,915.8L128.7,915.8z M114.6,932.7l-5.2-9.8l-5.1,9.8H114.6z M117.7,938.6l-16.5,0
			l-2.4,4.5H88.8l14.4-27.4H116l14.4,27.4h-10.3L117.7,938.6z"/>
	</g>
	<g id="ФУТСВИТЧ">
		<path class="st64" d="M300.1,1016.3c47.3,0,85.7-38.4,85.7-85.8c0-47.4-38.4-85.8-85.7-85.8s-85.7,38.4-85.7,85.8
			C214.4,977.8,252.8,1016.3,300.1,1016.3"/>
		<ellipse class="st72" cx="300.1" cy="930.5" rx="85.7" ry="85.8"/>
		<polygon class="st72" points="336.2,849.3 247.9,858.6 211.8,939.8 264,1011.7 352.3,1002.4 388.4,921.2 		"/>
		<ellipse class="st72" cx="300.1" cy="930.5" rx="66.6" ry="66.7"/>
		<ellipse class="st72" cx="300.1" cy="930.5" rx="55.4" ry="55.4"/>
	</g>
	<g id="_x31__x2F_2_перекл_прав">
		<rect x="303.4" y="569.4" class="st63" width="150.1" height="63.8"/>
		<path class="st74" d="M454.2,571.5c-16.4,0-29.8,13.3-29.8,29.8c0,16.4,13.3,29.8,29.8,29.8c16.4,0,29.8-13.3,29.8-29.8
			C483.9,584.8,470.6,571.5,454.2,571.5z"/>
	</g>
	<g id="_x31__x2F_2_перекл_лев">
		<rect x="153.4" y="569.4" class="st63" width="150.1" height="63.8"/>
		<path class="st74" d="M152.7,631c16.4,0,29.8-13.3,29.8-29.8c0-16.4-13.3-29.8-29.8-29.8c-16.4,0-29.8,13.3-29.8,29.8
			C122.9,617.7,136.3,631,152.7,631z"/>
	</g>
	<g id="КОЖУХ" class="st0">
		<defs>
			<rect id="SVGID_37_" x="8.6" y="125.3" width="581.7" height="942.5"/>
		</defs>
		<clipPath id="SVGID_38_" class="st1">
			<use xlink:href="#SVGID_37_"  style="overflow:visible;"/>
		</clipPath>
		<path class="st75" d="M501.4,273.7V129.5H390.8H207H96.4v144.2c0.3,0,0.6-0.1,0.9-0.1c21.4,0,38.7,17.4,38.7,38.7
			c0,19.8-15,36-34.2,38.3c16.9,76.3,77.7,136.1,154.8,152.4c-0.1-1.3-0.4-2.5-0.4-3.8c0-23.5,19.1-42.6,42.6-42.6
			c23.5,0,42.6,19.1,42.6,42.6c0,1.3-0.3,2.6-0.4,3.8c77.1-16.3,137.9-76.1,154.8-152.4c-19.2-2.3-34.2-18.4-34.2-38.3
			c0-21.4,17.3-38.7,38.7-38.7C500.8,273.6,501.1,273.7,501.4,273.7"/>
		<path class="st76" d="M501.4,273.7V129.5H390.8H207H96.4v144.2c0.3,0,0.6-0.1,0.9-0.1c21.4,0,38.7,17.4,38.7,38.7
			c0,19.8-15,36-34.2,38.3c16.9,76.3,77.7,136.1,154.8,152.4c-0.1-1.3-0.4-2.5-0.4-3.8c0-23.5,19.1-42.6,42.6-42.6
			c23.5,0,42.6,19.1,42.6,42.6c0,1.3-0.3,2.6-0.4,3.8c77.1-16.3,137.9-76.1,154.8-152.4c-19.2-2.3-34.2-18.4-34.2-38.3
			c0-21.4,17.3-38.7,38.7-38.7C500.8,273.6,501.1,273.7,501.4,273.7z"/>
		<ellipse class="st76" cx="298.9" cy="316.8" rx="66.8" ry="66.9"/>
		<path class="st76" d="M298.9,416.2c54.8,0,99.2-44.5,99.2-99.3c0-54.8-44.4-99.3-99.2-99.3s-99.2,44.5-99.2,99.3
			C199.7,371.7,244.1,416.2,298.9,416.2z"/>
		<ellipse class="st76" cx="298.9" cy="316.8" rx="129.8" ry="129.5"/>
		<path class="st77" d="M298.9,352.3c19.6,0,35.4-15.9,35.4-35.4s-15.9-35.4-35.4-35.4c-19.6,0-35.4,15.9-35.4,35.4
			S279.3,352.3,298.9,352.3"/>
		<circle class="st76" cx="298.9" cy="316.8" r="35.4"/>
		<path class="st78" d="M298.9,531.2c17.7,0,32-14.3,32-32c0-17.7-14.3-32-32-32c-17.7,0-32,14.3-32,32
			C266.9,516.9,281.2,531.2,298.9,531.2"/>
		<path class="st79" d="M298.9,531.2c17.7,0,32-14.3,32-32c0-17.7-14.3-32-32-32c-17.7,0-32,14.3-32,32
			C266.9,516.9,281.2,531.2,298.9,531.2z"/>
		<polygon class="st77" points="309.2,481.9 309.2,481.9 288.6,481.9 278.2,499.2 288.6,516.5 309.2,516.5 319.6,499.2 		"/>
		<polygon class="st80" points="309.2,481.9 309.2,481.9 288.6,481.9 278.2,499.2 288.6,516.5 309.2,516.5 319.6,499.2 		"/>
		<g class="st81">
			<defs>
				<rect id="SVGID_39_" x="8.6" y="125.3" width="581.7" height="942.5"/>
			</defs>
			<clipPath id="SVGID_40_">
				<use xlink:href="#SVGID_39_"  style="overflow:visible;"/>
			</clipPath>
			<path class="st82" d="M198,160h0.2v-28.3h-21.8V160h0.2c-0.1,0.4-0.2,0.8-0.2,1.2c0,6,4.9,10.9,10.9,10.9c6,0,10.9-4.9,10.9-10.9
				C198.3,160.7,198.1,160.4,198,160"/>
			<path class="st83" d="M198,160h0.2v-28.3h-21.8V160h0.2c-0.1,0.4-0.2,0.8-0.2,1.2c0,6,4.9,10.9,10.9,10.9c6,0,10.9-4.9,10.9-10.9
				C198.3,160.7,198.1,160.4,198,160z"/>
			<path class="st82" d="M253.8,160h0.2v-28.3h-21.8V160h0.2c-0.1,0.4-0.2,0.8-0.2,1.2c0,6,4.9,10.9,10.9,10.9
				c6,0,10.9-4.9,10.9-10.9C254.1,160.7,253.9,160.4,253.8,160"/>
			<path class="st83" d="M253.8,160h0.2v-28.3h-21.8V160h0.2c-0.1,0.4-0.2,0.8-0.2,1.2c0,6,4.9,10.9,10.9,10.9
				c6,0,10.9-4.9,10.9-10.9C254.1,160.7,253.9,160.4,253.8,160z"/>
			<path class="st82" d="M309.6,160h0.2v-28.3h-21.8V160h0.2c-0.1,0.4-0.2,0.8-0.2,1.2c0,6,4.9,10.9,10.9,10.9
				c6,0,10.9-4.9,10.9-10.9C309.9,160.7,309.7,160.4,309.6,160"/>
			<path class="st83" d="M309.6,160h0.2v-28.3h-21.8V160h0.2c-0.1,0.4-0.2,0.8-0.2,1.2c0,6,4.9,10.9,10.9,10.9
				c6,0,10.9-4.9,10.9-10.9C309.9,160.7,309.7,160.4,309.6,160z"/>
			<path class="st82" d="M365,160h0.2v-28.3h-21.8V160h0.2c-0.1,0.4-0.2,0.8-0.2,1.2c0,6,4.9,10.9,10.9,10.9c6,0,10.9-4.9,10.9-10.9
				C365.3,160.7,365.1,160.4,365,160"/>
			<path class="st83" d="M365,160h0.2v-28.3h-21.8V160h0.2c-0.1,0.4-0.2,0.8-0.2,1.2c0,6,4.9,10.9,10.9,10.9c6,0,10.9-4.9,10.9-10.9
				C365.3,160.7,365.1,160.4,365,160z"/>
			<path class="st82" d="M420.8,160h0.2v-28.3h-21.8V160h0.2c-0.1,0.4-0.2,0.8-0.2,1.2c0,6,4.9,10.9,10.9,10.9
				c6,0,10.9-4.9,10.9-10.9C421.1,160.7,420.9,160.4,420.8,160"/>
			<path class="st83" d="M420.8,160h0.2v-28.3h-21.8V160h0.2c-0.1,0.4-0.2,0.8-0.2,1.2c0,6,4.9,10.9,10.9,10.9
				c6,0,10.9-4.9,10.9-10.9C421.1,160.7,420.9,160.4,420.8,160z"/>
			<circle class="st84" cx="107.9" cy="312" r="20.7"/>
		</g>
		<line class="st85" x1="97.8" y1="301.8" x2="117.7" y2="321.8"/>
		<line class="st85" x1="97.8" y1="321.8" x2="117.7" y2="301.8"/>
		<g class="st81">
			<defs>
				<rect id="SVGID_41_" x="8.6" y="125.3" width="581.7" height="942.5"/>
			</defs>
			<clipPath id="SVGID_42_">
				<use xlink:href="#SVGID_41_"  style="overflow:visible;"/>
			</clipPath>
			<circle class="st86" cx="491.6" cy="312" r="20.7"/>
		</g>
		<line class="st85" x1="481.5" y1="301.8" x2="501.4" y2="321.8"/>
		<line class="st85" x1="481.5" y1="321.8" x2="501.4" y2="301.8"/>
	</g>
	<g id="Кнопка_1_1_">
		<path class="st63" d="M397.6,212.1c-22.2,22.2-22.2,58.3,0,80.5c22.2,22.2,58.3,22.2,80.5,0c22.2-22.2,22.2-58.3,0-80.5
			C455.9,189.8,419.9,189.8,397.6,212.1"/>
		
			<ellipse transform="matrix(0.7071 -0.7071 0.7071 0.7071 -50.1635 383.5458)" class="st87" cx="437.9" cy="252.3" rx="56.9" ry="56.9"/>
		<line class="st88" x1="435.7" y1="193.7" x2="435.7" y2="250.1"/>
	</g>
	<g id="Кнопка_1_2_">
		<path class="st63" d="M263.2,211.9c-22.2,22.2-22.2,58.3,0,80.5c22.2,22.2,58.3,22.2,80.5,0c22.2-22.2,22.2-58.3,0-80.5
			C321.5,189.7,285.4,189.7,263.2,211.9"/>
		
			<ellipse transform="matrix(0.7071 -0.7071 0.7071 0.7071 -89.446 288.4296)" class="st87" cx="303.4" cy="252.2" rx="56.9" ry="56.9"/>
		<line class="st88" x1="301.2" y1="193.5" x2="301.2" y2="249.9"/>
	</g>
	<g id="Кнопка_1_3_">
		<path class="st63" d="M128.9,211.8c-22.2,22.2-22.2,58.3,0,80.5c22.2,22.2,58.3,22.2,80.5,0c22.2-22.2,22.2-58.3,0-80.5
			C187.2,189.5,151.2,189.5,128.9,211.8"/>
		
			<ellipse transform="matrix(0.7071 -0.7071 0.7071 0.7071 -128.668 193.4596)" class="st87" cx="169.2" cy="252" rx="56.9" ry="56.9"/>
		<line class="st88" x1="167" y1="193.4" x2="167" y2="249.8"/>
	</g>
	<g id="Кнопка_1_4_">
		<path class="st63" d="M397.4,410.7c-22.2,22.2-22.2,58.3,0,80.5c22.2,22.2,58.3,22.2,80.5,0c22.2-22.2,22.2-58.3,0-80.5
			C455.7,388.4,419.6,388.4,397.4,410.7"/>
		
			<ellipse transform="matrix(0.7071 -0.7071 0.7071 0.7071 -190.6849 441.5536)" class="st87" cx="437.7" cy="451" rx="56.9" ry="56.9"/>
		<line class="st88" x1="435.4" y1="392.3" x2="435.4" y2="448.7"/>
	</g>
	<g id="Кнопка_1_5_">
		<path class="st63" d="M128.9,410.9c-22.2,22.2-22.2,58.3,0,80.5c22.2,22.2,58.3,22.2,80.5,0c22.2-22.2,22.2-58.3,0-80.5
			C187.2,388.7,151.2,388.7,128.9,410.9"/>
		
			<ellipse transform="matrix(0.7071 -0.7071 0.7071 0.7071 -269.4713 251.7823)" class="st87" cx="169.2" cy="451.2" rx="56.9" ry="56.9"/>
		<line class="st88" x1="167" y1="392.5" x2="167" y2="448.9"/>
	</g>
</g>
</svg>
