<svg id="Layer_3" data-name="Layer 3" xmlns="http://www.w3.org/2000/svg" viewBox="0 0 581.72 913.77"><defs><style>.cls-1{fill:#010101;}.cls-2{fill:#fff;}.cls-3{fill:#fcfeff;}.cls-10,.cls-12,.cls-13,.cls-4,.cls-5,.cls-6,.cls-7,.cls-8{fill:none;}.cls-4{stroke:#000;}.cls-4,.cls-5,.cls-6,.cls-7{stroke-width:1.98px;}.cls-10,.cls-11,.cls-5,.cls-6,.cls-7{stroke:#010101;}.cls-6{stroke-miterlimit:27;}.cls-7{stroke-linecap:round;}.cls-8{stroke:#1d1d1b;stroke-width:8.5px;}.cls-9{fill:#dadada;stroke-width:2.83px;}.cls-12,.cls-9{stroke:#9d9d9c;}.cls-10,.cls-11{stroke-width:4.25px;}.cls-11{fill:#1d1d1b;}.cls-12{stroke-width:7.09px;}.cls-13{stroke:#fff;stroke-width:11.34px;}</style></defs><g id="Ухо_прав" data-name="Ухо прав"><rect class="cls-1" x="510.98" y="161.67" width="24.54" height="92.4"/><path class="cls-1" d="M548.11,408.09a46.2,46.2,0,1,0-46.2-46.2,46.2,46.2,0,0,0,46.2,46.2" transform="translate(-12.59 -154.03)"/><path class="cls-2" d="M548.11,382.81a20.77,20.77,0,1,0-20.76-20.76,20.75,20.75,0,0,0,20.76,20.76" transform="translate(-12.59 -154.03)"/></g><g id="Ухо_лев" data-name="Ухо лев"><rect class="cls-1" x="46.2" y="636.25" width="24.54" height="92.4"/><path class="cls-1" d="M58.79,790.27A46.2,46.2,0,1,0,105,836.47a46.21,46.21,0,0,0-46.21-46.2" transform="translate(-12.59 -154.03)"/><path class="cls-2" d="M58.79,815.55a20.77,20.77,0,1,0,20.77,20.76,20.77,20.77,0,0,0-20.77-20.76" transform="translate(-12.59 -154.03)"/></g><g id="IN_OUT" data-name="IN/OUT"><rect class="cls-3" x="515.97" y="337.03" width="7.7" height="114.94"/><rect class="cls-4" x="515.97" y="337.04" width="7.69" height="114.93"/><path class="cls-3" d="M555.47,496.94a1.24,1.24,0,0,0-1.25-1.25h-18V601.86h18a1.25,1.25,0,0,0,1.25-1.26Z" transform="translate(-12.59 -154.03)"/><path class="cls-5" d="M555.47,496.94a1.24,1.24,0,0,0-1.25-1.25h-18V601.86h18a1.25,1.25,0,0,0,1.25-1.26Z" transform="translate(-12.59 -154.03)"/><path class="cls-3" d="M554.6,496.83a1.14,1.14,0,0,0-1.14-1.14h-16.7V520.9h16.7a1.13,1.13,0,0,0,1.14-1.14Z" transform="translate(-12.59 -154.03)"/><path class="cls-5" d="M554.6,496.83a1.14,1.14,0,0,0-1.14-1.14h-16.7V520.9h16.7a1.13,1.13,0,0,0,1.14-1.14Z" transform="translate(-12.59 -154.03)"/><path class="cls-3" d="M554.6,521.57a1.13,1.13,0,0,0-1.14-1.14h-16.7v53.18h16.7a1.13,1.13,0,0,0,1.14-1.14Z" transform="translate(-12.59 -154.03)"/><path class="cls-5" d="M554.6,521.57a1.13,1.13,0,0,0-1.14-1.14h-16.7v53.18h16.7a1.13,1.13,0,0,0,1.14-1.14Z" transform="translate(-12.59 -154.03)"/><path class="cls-3" d="M554.6,574.28a1.14,1.14,0,0,0-1.14-1.14h-16.7v29.05h16.7a1.13,1.13,0,0,0,1.14-1.14Z" transform="translate(-12.59 -154.03)"/><path class="cls-5" d="M554.6,574.28a1.14,1.14,0,0,0-1.14-1.14h-16.7v29.05h16.7a1.13,1.13,0,0,0,1.14-1.14Z" transform="translate(-12.59 -154.03)"/><rect class="cls-3" x="542.73" y="361.43" width="3.45" height="66.63"/><polygon class="cls-6" points="546.17 361.43 546.17 361.43 542.72 361.43 542.72 428.07 546.17 428.07 546.17 361.43"/><polygon class="cls-3" points="555.9 364.56 555.9 364.56 547.3 361.8 547.3 427.81 555.9 424.94 555.9 364.56"/><polygon class="cls-7" points="555.9 364.56 555.9 364.56 547.3 361.8 547.3 427.81 555.9 424.94 555.9 364.56"/></g><g id="IN_OUT-2" data-name="IN/OUT"><rect class="cls-3" x="59.32" y="191.01" width="7.7" height="114.94"/><rect class="cls-4" x="59.33" y="191.01" width="7.69" height="114.93"/><path class="cls-3" d="M52.7,454.09A1.25,1.25,0,0,0,54,455.34h18V349.17H54a1.26,1.26,0,0,0-1.25,1.26Z" transform="translate(-12.59 -154.03)"/><path class="cls-5" d="M52.7,454.09A1.25,1.25,0,0,0,54,455.34h18V349.17H54a1.26,1.26,0,0,0-1.25,1.26Z" transform="translate(-12.59 -154.03)"/><path class="cls-3" d="M53.57,454.2a1.15,1.15,0,0,0,1.14,1.14h16.7V430.13H54.71a1.14,1.14,0,0,0-1.14,1.14Z" transform="translate(-12.59 -154.03)"/><path class="cls-5" d="M53.57,454.2a1.15,1.15,0,0,0,1.14,1.14h16.7V430.13H54.71a1.14,1.14,0,0,0-1.14,1.14Z" transform="translate(-12.59 -154.03)"/><path class="cls-3" d="M53.57,429.46a1.14,1.14,0,0,0,1.14,1.14h16.7V377.42H54.71a1.14,1.14,0,0,0-1.14,1.14Z" transform="translate(-12.59 -154.03)"/><path class="cls-5" d="M53.57,429.46a1.14,1.14,0,0,0,1.14,1.14h16.7V377.42H54.71a1.14,1.14,0,0,0-1.14,1.14Z" transform="translate(-12.59 -154.03)"/><path class="cls-3" d="M53.57,376.75a1.15,1.15,0,0,0,1.14,1.14h16.7V348.84H54.71A1.14,1.14,0,0,0,53.57,350Z" transform="translate(-12.59 -154.03)"/><path class="cls-5" d="M53.57,376.75a1.15,1.15,0,0,0,1.14,1.14h16.7V348.84H54.71A1.14,1.14,0,0,0,53.57,350Z" transform="translate(-12.59 -154.03)"/><rect class="cls-3" x="36.81" y="214.91" width="3.45" height="66.63"/><polygon class="cls-6" points="36.81 281.55 36.81 281.55 40.27 281.55 40.27 214.91 36.81 214.91 36.81 281.55"/><polygon class="cls-3" points="27.09 278.42 27.09 278.42 35.69 281.18 35.69 215.17 27.09 218.04 27.09 278.42"/><polygon class="cls-7" points="27.09 278.42 27.09 278.42 35.69 281.18 35.69 215.17 27.09 218.04 27.09 278.42"/></g><g id="Ножки"><path class="cls-1" d="M166.32,229.36a37.67,37.67,0,1,0-37.67-37.67,37.67,37.67,0,0,0,37.67,37.67" transform="translate(-12.59 -154.03)"/><path class="cls-1" d="M448.7,229.36A37.67,37.67,0,1,0,411,191.69a37.67,37.67,0,0,0,37.68,37.67" transform="translate(-12.59 -154.03)"/><path class="cls-1" d="M166.32,1067.8a37.67,37.67,0,1,0-37.67-37.68,37.67,37.67,0,0,0,37.67,37.68" transform="translate(-12.59 -154.03)"/><path class="cls-1" d="M448.7,1067.8A37.67,37.67,0,1,0,411,1030.12a37.67,37.67,0,0,0,37.68,37.68" transform="translate(-12.59 -154.03)"/></g><g id="КОРПУС_ПЕДАЛИ" data-name="КОРПУС ПЕДАЛИ"><rect id="ЗАЛИВКА_КОРПУСА" data-name="ЗАЛИВКА КОРПУСА" class="cls-2" x="71.78" y="14.24" width="438.73" height="888.91" rx="12.04"/><path id="КОРПУС" class="cls-8" d="M96.89,167a12,12,0,0,0-12,12V1043.9a12,12,0,0,0,12,12H511.54a12,12,0,0,0,12-12V179.06a12,12,0,0,0-12-12Z" transform="translate(-12.59 -154.03)"/><path id="КОРПУС-2" class="cls-9" d="M112.88,181.91a11.4,11.4,0,0,0-11.17,11.61v834.13a11.4,11.4,0,0,0,11.17,11.61H497.53a11.4,11.4,0,0,0,11.17-11.61V193.52a11.4,11.4,0,0,0-11.17-11.61Z" transform="translate(-12.59 -154.03)"/></g><g id="ФУТСВИТЧ"><path class="cls-3" d="M304.09,1016.25a85.79,85.79,0,1,0-85.68-85.79,85.74,85.74,0,0,0,85.68,85.79" transform="translate(-12.59 -154.03)"/><ellipse class="cls-10" cx="291.5" cy="776.44" rx="85.69" ry="85.79"/><polygon class="cls-10" points="327.61 695.25 239.32 704.53 203.21 785.73 255.39 857.63 343.68 848.34 379.79 767.15 327.61 695.25"/><ellipse class="cls-10" cx="291.5" cy="776.44" rx="66.62" ry="66.7"/><ellipse class="cls-10" cx="291.5" cy="776.44" rx="55.39" ry="55.45"/></g><g id="_1_2_перекл_прав" data-name="1/2 перекл прав"><rect class="cls-1" x="294.85" y="415.34" width="150.09" height="63.8"/><path class="cls-11" d="M458.16,571.49a29.78,29.78,0,1,0,29.78,29.78A29.78,29.78,0,0,0,458.16,571.49Z" transform="translate(-12.59 -154.03)"/></g><g id="_1_2_перекл_лев" data-name="1/2 перекл лев"><rect class="cls-1" x="144.76" y="415.34" width="150.09" height="63.8"/><path class="cls-11" d="M156.73,631A29.78,29.78,0,1,0,127,601.26,29.78,29.78,0,0,0,156.73,631Z" transform="translate(-12.59 -154.03)"/></g><g id="Кнопка_1" data-name="Кнопка 1"><path class="cls-1" d="M401.63,212.06a56.95,56.95,0,1,0,80.54,0,56.94,56.94,0,0,0-80.54,0" transform="translate(-12.59 -154.03)"/><circle class="cls-12" cx="441.9" cy="252.33" r="56.95" transform="translate(-61.59 232.35) rotate(-45)"/><line class="cls-13" x1="427.07" y1="39.63" x2="427.07" y2="96.05"/></g><g id="Кнопка_1-2" data-name="Кнопка 1"><path class="cls-1" d="M267.17,211.92a56.95,56.95,0,1,0,80.54,0,57,57,0,0,0-80.54,0" transform="translate(-12.59 -154.03)"/><circle class="cls-12" cx="307.44" cy="252.19" r="56.95" transform="translate(-100.87 137.23) rotate(-45)"/><line class="cls-13" x1="292.61" y1="39.49" x2="292.61" y2="95.91"/></g><g id="Кнопка_1-3" data-name="Кнопка 1"><path class="cls-1" d="M132.92,211.78a56.95,56.95,0,1,0,80.54,0,57,57,0,0,0-80.54,0" transform="translate(-12.59 -154.03)"/><circle class="cls-12" cx="173.19" cy="252.05" r="56.95" transform="translate(-140.09 42.26) rotate(-45)"/><line class="cls-13" x1="158.36" y1="39.35" x2="158.36" y2="95.77"/></g><g id="Кнопка_1-4" data-name="Кнопка 1"><path class="cls-1" d="M401.39,410.69a56.95,56.95,0,1,0,80.54,0,56.94,56.94,0,0,0-80.54,0" transform="translate(-12.59 -154.03)"/><circle class="cls-12" cx="441.66" cy="450.95" r="56.95" transform="translate(-202.11 290.36) rotate(-45)"/><line class="cls-13" x1="426.83" y1="238.26" x2="426.83" y2="294.68"/></g><g id="Кнопка_1-5" data-name="Кнопка 1"><path class="cls-1" d="M132.92,410.9a57,57,0,1,0,80.54,0,57,57,0,0,0-80.54,0" transform="translate(-12.59 -154.03)"/><circle class="cls-12" cx="173.19" cy="451.17" r="56.95" transform="translate(-280.89 100.58) rotate(-45)"/><line class="cls-13" x1="158.36" y1="238.48" x2="158.36" y2="294.9"/></g></svg>