<?xml version="1.0" encoding="UTF-8"?>
<!DOCTYPE svg PUBLIC "-//W3C//DTD SVG 1.1//EN" "http://www.w3.org/Graphics/SVG/1.1/DTD/svg11.dtd">
<!-- Creator: CorelDRAW 2020 (64-Bit) -->
<svg xmlns="http://www.w3.org/2000/svg" xml:space="preserve" width="210mm" height="297mm" version="1.1" style="shape-rendering:geometricPrecision; text-rendering:geometricPrecision; image-rendering:optimizeQuality; fill-rule:evenodd; clip-rule:evenodd"
viewBox="0 0 21000 29700"
 xmlns:xlink="http://www.w3.org/1999/xlink"
 xmlns:xodm="http://www.corel.com/coreldraw/odm/2003">
 <defs>
  <style type="text/css">
   <![CDATA[
    .fil0 {fill:#EF7F1A}
    .fil1 {fill:#FEFEFE;fill-rule:nonzero}
   ]]>
  </style>
 </defs>
 <g id="Слой_x0020_1">
  <metadata id="CorelCorpID_0Corel-Layer"/>
  <circle class="fil0" cx="15598.97" cy="24245.07" r="1750"/>
  <path class="fil1" d="M14783.53 24492.85l-444.8 -0.17 -64.14 121.9 -272.34 0 387.66 -739.1 347.57 0 387.91 739.1 -277.96 0 -63.9 -121.73zm-84.18 -160.38l-139.15 -265.45 -137.65 265.46 276.8 -0.01zm380.32 -456.99l419.37 0 161.9 449.66 161.16 -449.66 417.94 0 0 739.1 -260.37 0 0 -563.57 -202 563.57 -235.62 0 -201.3 -563.57 0 563.57 -261.08 0 0 -739.1zm1147.08 0l968.94 0 0 182.59 -325.21 0 0 556.51 -318.74 0 0 -556.51 -324.99 0 0 -182.59z"/>
 </g>
</svg>
