<?xml version="1.0" encoding="UTF-8"?>
<!DOCTYPE svg PUBLIC "-//W3C//DTD SVG 1.1//EN" "http://www.w3.org/Graphics/SVG/1.1/DTD/svg11.dtd">
<!-- Creator: CorelDRAW 2020 (64-Bit) -->
<svg xmlns="http://www.w3.org/2000/svg" xml:space="preserve" width="200mm" height="200mm" version="1.1" style="shape-rendering:geometricPrecision; text-rendering:geometricPrecision; image-rendering:optimizeQuality; fill-rule:evenodd; clip-rule:evenodd"
viewBox="0 0 20000 20000"
 xmlns:xlink="http://www.w3.org/1999/xlink"
 xmlns:xodm="http://www.corel.com/coreldraw/odm/2003">
 <defs>
  <style type="text/css">
   <![CDATA[
    .fil0 {fill:#008DD2}
   ]]>
  </style>
 </defs>
 <g id="Слой_x0020_1">
  <metadata id="CorelCorpID_0Corel-Layer"/>
  <path class="fil0" d="M17118.87 15547.65l0 600.9 230.4 0 0 -306.83c0,-45.73 8.87,-78.93 25.49,-98.62 16.58,-19.53 38.79,-29.87 65.21,-29.87 16.25,0 30.8,5.03 42.45,13.89 11.76,8.98 21,21.78 25.49,36.44 2.73,9.13 4.65,28.11 4.65,53.88l0 331.11 230.4 0 0 -311.09c0,-43.38 8.53,-75.44 24.67,-94.75 16.19,-19.36 38.4,-29.48 65.42,-29.48 22.76,0 42.02,11.05 57.33,31.24 9.85,13.07 15.81,34.07 15.81,60.77l0 343.31 230.4 0 0 -377.66c0,-81.4 -18.49,-141.74 -54.21,-179.64 -35.77,-38.02 -86.26,-57.5 -150.53,-57.5 -43.6,0 -80.25,7.17 -109.95,21.23 -29.71,14.06 -62.53,40.92 -98.63,80.08 -17.78,-33.58 -40.92,-59.19 -68.49,-75.81 -27.68,-16.63 -65.8,-25.5 -113.67,-25.5 -44.58,0 -82.6,7.72 -114.05,23.14 -31.45,15.43 -62.74,41.52 -93.59,78.17l0 -87.41 -214.6 0zm-571.96 301.79c0,-52.84 11.11,-92.61 32.6,-118.27 21.39,-25.54 49.4,-38.78 82.82,-38.78 31.62,0 58.42,13.02 79.48,38.18 21.12,25.27 32.06,64.44 32.06,116.73 0,55.96 -11,97.04 -31.89,121.99 -20.9,24.89 -48.2,38.02 -81.23,38.02 -32.77,0 -59.79,-13.02 -81.4,-38.62 -21.61,-25.6 -32.44,-65.43 -32.44,-119.25zm-230.4 0.38c0,98.41 36.81,178.49 109.62,238.88 59.02,48.91 137.36,73.74 233.69,73.74 108.03,0 193.15,-29.81 253.92,-88.56 60.83,-58.81 91.68,-134.9 91.68,-227.51 0,-82.21 -25,-151.96 -73.9,-207.86 -60.94,-69.58 -152.07,-104.76 -272.31,-104.76 -104.97,0 -188.66,30.09 -250.09,89.17 -61.38,59.08 -92.61,135.06 -92.61,226.9zm-296.43 63.67c-10.23,31.84 -25.76,55.8 -46.11,70.84 -20.08,14.94 -45.9,22.98 -76.04,22.98 -36.27,0 -65.97,-12.8 -89.33,-38.4 -23.35,-25.6 -35.11,-63.13 -35.11,-112.53 0,-55.57 11.97,-97.31 35.28,-124.28 23.25,-26.91 54.64,-40.91 92.66,-40.91 30.31,0 54.43,6.51 72.37,19.52 17.94,13.02 30.25,32.39 37.04,58.1l216.5 -28.99c-20.84,-67.34 -57.27,-118.93 -108.47,-153.61 -51.14,-34.62 -126.2,-52.46 -224.38,-52.46 -70.08,0 -127.84,9.74 -172.53,27.79 -27.96,11.33 -55.91,29.54 -82.6,53.45 -26.7,23.9 -48.36,51.31 -63.46,81.23 -20.67,40.81 -31.67,92.61 -31.67,154.37 0,59.24 9.03,107.1 26.04,142.6 17.01,35.56 41.68,67.5 71.82,93.6 30.31,26.25 67.45,46.38 109.41,57.87 42.06,11.54 95.5,17.78 159.4,17.78 65.97,0 120.72,-9.63 163.01,-27.79 42.5,-18.21 78.49,-44.96 105.57,-77.95 27.24,-33.26 47.26,-73.13 59.46,-118.86l-218.86 -24.35zm-832.45 4.65l0 230.41 245.45 0 0 -230.41 -245.45 0zm-748.92 63.68c13.13,57.71 43.43,102.56 89.55,133.52 46.17,31.02 124.66,47.1 234.29,47.1 77.56,0 139.21,-10.01 183.85,-29.16 44.58,-19.14 78.28,-45.89 98.84,-78.33 20.57,-32.49 31.46,-66.57 31.46,-101.31 0,-34.35 -10.29,-66.08 -29.76,-94.58 -19.37,-28.28 -48.58,-51.09 -85.45,-66.13 -37.08,-15.15 -94.52,-27.9 -170.77,-36.32 -50,-5.53 -83.53,-13.18 -98.03,-20.46 -14.49,-7.22 -22.43,-18.49 -22.43,-33.37 0,-13.13 6.35,-24.67 17.78,-33.58 11.38,-8.92 30.69,-13.9 56.56,-13.9 25.66,0 47.87,6.24 65.37,17.94 12.86,8.59 22.59,23.2 28.17,42.29l217.72 -20.84c-15.1,-39.39 -34.3,-70.84 -56.79,-93.6 -22.37,-22.64 -51.47,-40.26 -85.27,-50.92 -33.65,-10.62 -86.82,-16.42 -158.2,-16.42 -67.78,0 -122.1,7.5 -162.14,21.23 -39.93,13.73 -72.26,35.88 -94.9,64.27 -22.6,28.23 -34.36,62.69 -34.36,102.24 0,36.27 10.56,68.65 31.84,96.88 21.28,28.22 47.86,48.74 78.55,60.22 30.91,11.55 86.98,25.22 166.51,38.79 53.06,9.08 86.81,17.67 98.79,23.74 17.07,8.69 26.04,21.99 26.04,38.56 0,14.66 -7.11,27.13 -19.86,36.71 -16.79,12.69 -40.91,19.85 -71.76,19.85 -28.39,0 -51.31,-6.18 -67.94,-17.39 -16.58,-11.22 -30.09,-30.85 -39.55,-57.88l-228.11 20.85zm-283.68 -68.33c-10.23,31.84 -25.77,55.8 -46.11,70.84 -20.08,14.94 -45.9,22.98 -76.04,22.98 -36.27,0 -65.97,-12.8 -89.33,-38.4 -23.35,-25.6 -35.12,-63.13 -35.12,-112.53 0,-55.57 11.98,-97.31 35.29,-124.28 23.25,-26.91 54.64,-40.91 92.66,-40.91 30.31,0 54.43,6.51 72.37,19.52 17.94,13.02 30.25,32.39 37.03,58.1l216.51 -28.99c-20.84,-67.34 -57.27,-118.93 -108.47,-153.61 -51.15,-34.62 -126.2,-52.46 -224.39,-52.46 -70.07,0 -127.83,9.74 -172.52,27.79 -27.96,11.33 -55.91,29.54 -82.6,53.45 -26.7,23.9 -48.36,51.31 -63.46,81.23 -20.67,40.81 -31.67,92.61 -31.67,154.37 0,59.24 9.03,107.1 26.04,142.6 17.01,35.56 41.68,67.5 71.82,93.6 30.31,26.25 67.45,46.38 109.4,57.87 42.07,11.54 95.51,17.78 159.4,17.78 65.98,0 120.73,-9.63 163.02,-27.79 42.5,-18.21 78.49,-44.96 105.57,-77.95 27.24,-33.26 47.26,-73.13 59.46,-118.86l-218.86 -24.35zm-825.5 -365.84l0 600.9 230.4 0 0 -600.9 -230.4 0zm0 -228.11l0 156.34 230.4 0 0 -156.34 -230.4 0zm-780.38 228.11l0 600.9 230.41 0 0 -288.66c0,-54.82 9.02,-93.05 25.87,-113.89 16.8,-20.68 39.72,-31.62 67.34,-31.62 25.05,0 44.58,7.88 58.48,23.52 13.89,15.65 20.84,43 20.84,80.08l0 330.57 231.55 0 0 -382.09c0,-79.32 -18.27,-138.35 -53.83,-175.76 -35.72,-37.69 -85.72,-56.95 -149.39,-56.95 -47.04,0 -86.81,8.7 -119.63,25.88 -32.82,17.17 -65.04,45.73 -97.04,85.83l0 -97.81 -214.6 0zm-569.66 301.79c0,-52.84 11.11,-92.61 32.6,-118.27 21.39,-25.54 49.4,-38.78 82.82,-38.78 31.62,0 58.42,13.02 79.48,38.18 21.12,25.27 32.06,64.44 32.06,116.73 0,55.96 -11,97.04 -31.89,121.99 -20.9,24.89 -48.19,38.02 -81.23,38.02 -32.77,0 -59.79,-13.02 -81.4,-38.62 -21.61,-25.6 -32.44,-65.43 -32.44,-119.25zm-230.4 0.38c0,98.41 36.81,178.49 109.62,238.88 59.02,48.91 137.36,73.74 233.69,73.74 108.03,0 193.15,-29.81 253.92,-88.56 60.83,-58.81 91.68,-134.9 91.68,-227.51 0,-82.21 -25,-151.96 -73.9,-207.86 -60.94,-69.58 -152.07,-104.76 -272.31,-104.76 -104.97,0 -188.66,30.09 -250.09,89.17 -61.38,59.08 -92.61,135.06 -92.61,226.9zm-502.49 -302.17l0 600.9 231.55 0 0 -201.85c0,-96.28 12.42,-162.36 35.72,-197.2 16.3,-24.45 40.15,-37.47 70.24,-37.47 15.81,0 37.47,5.63 64.66,17.01l71.38 -163.45c-40.31,-21.22 -77.56,-31.84 -111.7,-31.84 -32.44,0 -60.01,8.21 -81.83,23.91 -21.66,15.64 -43.44,45.35 -64.28,88.01l0 -98.02 -215.74 0zm-238.28 -228.11l-230.4 117.94 0 110.17 -84.52 0 0 169.03 84.52 0 0 211.31c0,66.24 6.83,115.97 19.47,145.51 12.69,29.59 33.53,52.67 60.23,66.95 26.8,14.33 69.47,21.99 126.74,21.99 49.4,0 102.51,-6.18 159.4,-18.71l-16.96 -159.23c-30.68,9.84 -54.42,14.71 -71.38,14.71 -18.93,0 -32.66,-6.73 -39.77,-19.15 -4.49,-7.87 -7.33,-25.27 -7.33,-50.7l0 -212.68 126.2 0 0 -169.03 -126.2 0 0 -228.11zm-602.1 593.95c-10.23,31.84 -25.76,55.8 -46.11,70.84 -20.08,14.94 -45.9,22.98 -76.04,22.98 -36.27,0 -65.97,-12.8 -89.33,-38.4 -23.35,-25.6 -35.11,-63.13 -35.11,-112.53 0,-55.57 11.97,-97.31 35.28,-124.28 23.25,-26.91 54.64,-40.91 92.66,-40.91 30.31,0 54.43,6.51 72.37,19.52 17.94,13.02 30.25,32.39 37.04,58.1l216.5 -28.99c-20.84,-67.34 -57.27,-118.93 -108.47,-153.61 -51.15,-34.62 -126.2,-52.46 -224.39,-52.46 -70.07,0 -127.83,9.74 -172.52,27.79 -27.96,11.33 -55.91,29.54 -82.6,53.45 -26.7,23.9 -48.36,51.31 -63.46,81.23 -20.67,40.81 -31.67,92.61 -31.67,154.37 0,59.24 9.03,107.1 26.04,142.6 17.01,35.56 41.68,67.5 71.82,93.6 30.31,26.25 67.45,46.38 109.41,57.87 42.06,11.54 95.5,17.78 159.4,17.78 65.97,0 120.72,-9.63 163.01,-27.79 42.5,-18.21 78.49,-44.96 105.57,-77.95 27.24,-33.26 47.26,-73.13 59.46,-118.86l-218.86 -24.35zm-787.32 -118.1l-227.5 0c3.83,-36.05 13.18,-63.4 26.64,-81.23 21.71,-28.72 51.31,-43.82 87.96,-43.82 31.83,0 57.32,9.74 76.8,29 19.47,19.25 31.67,51.31 36.1,96.05zm233.9 110.01l0 -26.04c0,-79.32 -13.34,-144.08 -39,-193.15 -25.71,-49.23 -64.05,-87.25 -113.83,-113.29 -49.78,-26.04 -117.56,-39.17 -203.6,-39.17 -105.96,0 -189.43,29.54 -249.11,87.2 -59.85,57.76 -90.32,134.35 -90.32,228.32 0,65.97 14.99,123.57 44.97,172.48 29.98,48.9 68.27,84.84 113.45,106.94 45.4,22.15 108.26,33.75 187.96,33.75 91.68,0 162.4,-13.57 211.09,-39.39 48.63,-25.76 90.91,-69.47 125.65,-129.64l-226.96 -20.84c-14.28,17.94 -28.12,30.91 -40.31,37.64 -19.86,10.88 -41.91,16.79 -64.66,16.79 -35.89,0 -65.21,-13.51 -87.2,-39 -15.48,-18 -25.87,-45.73 -30.14,-82.6l462.01 0zm-1044.36 -585.86l0 829.01 230.4 0 0 -829.01 -230.4 0zm-347.35 475.85l-227.51 0c3.83,-36.05 13.19,-63.4 26.64,-81.23 21.72,-28.72 51.31,-43.82 87.96,-43.82 31.84,0 57.33,9.74 76.8,29 19.48,19.25 31.68,51.31 36.11,96.05zm233.9 110.01l0 -26.04c0,-79.32 -13.35,-144.08 -39,-193.15 -25.71,-49.23 -64.06,-87.25 -113.84,-113.29 -49.77,-26.04 -117.55,-39.17 -203.6,-39.17 -105.95,0 -189.43,29.54 -249.11,87.2 -59.84,57.76 -90.31,134.35 -90.31,228.32 0,65.97 14.99,123.57 44.97,172.48 29.97,48.9 68.26,84.84 113.45,106.94 45.4,22.15 108.25,33.75 187.95,33.75 91.68,0 162.41,-13.57 211.09,-39.39 48.63,-25.76 90.92,-69.47 125.65,-129.64l-226.95 -20.84c-14.28,17.94 -28.12,30.91 -40.32,37.64 -19.85,10.88 -41.9,16.79 -64.65,16.79 -35.89,0 -65.21,-13.51 -87.2,-39 -15.48,-18 -25.87,-45.73 -30.14,-82.6l462.01 0zm-902.9 -585.86l-230.41 117.94 0 110.17 -84.51 0 0 169.03 84.51 0 0 211.31c0,66.24 6.84,115.97 19.48,145.51 12.69,29.59 33.53,52.67 60.22,66.95 26.81,14.33 69.47,21.99 126.75,21.99 49.39,0 102.51,-6.18 159.4,-18.71l-16.96 -159.23c-30.69,9.84 -54.43,14.71 -71.39,14.71 -18.92,0 -32.65,-6.73 -39.76,-19.15 -4.49,-7.87 -7.33,-25.27 -7.33,-50.7l0 -212.68 126.19 0 0 -169.03 -126.19 0 0 -228.11zm-1433.41 228.11l0 600.9 230.41 0 0 -306.83c0,-45.73 8.86,-78.93 25.49,-98.62 16.57,-19.53 38.78,-29.87 65.2,-29.87 16.25,0 30.8,5.03 42.45,13.89 11.76,8.98 21.01,21.78 25.49,36.44 2.74,9.13 4.65,28.11 4.65,53.88l0 331.11 230.41 0 0 -311.09c0,-43.38 8.53,-75.44 24.67,-94.75 16.19,-19.36 38.4,-29.48 65.42,-29.48 22.75,0 42.01,11.05 57.33,31.24 9.84,13.07 15.81,34.07 15.81,60.77l0 343.31 230.4 0 0 -377.66c0,-81.4 -18.49,-141.74 -54.21,-179.64 -35.78,-38.02 -86.27,-57.5 -150.54,-57.5 -43.6,0 -80.25,7.17 -109.95,21.23 -29.7,14.06 -62.52,40.92 -98.63,80.08 -17.78,-33.58 -40.91,-59.19 -68.48,-75.81 -27.68,-16.63 -65.81,-25.5 -113.67,-25.5 -44.59,0 -82.6,7.72 -114.06,23.14 -31.45,15.43 -62.74,41.52 -93.59,78.17l0 -87.41 -214.6 0zm-364.69 314.92l0 37.03c0,28.22 -4.98,52.9 -13.89,70.62 -8.92,17.83 -25.22,33.8 -46.88,45.95 -21.83,12.2 -46.17,18.92 -71.83,18.92 -24.5,0 -43.38,-6.12 -55.74,-17.39 -12.25,-11.16 -18.92,-26.64 -18.92,-44.97 0,-16.02 6.72,-30.63 19.3,-42.83 12.04,-11.76 42.29,-25.1 88.79,-37.03 34.02,-8.75 67.5,-18.93 99.17,-30.3zm-199.17 -120.4c9.08,-26.26 21.12,-44.47 35.5,-53.66 18.49,-11.87 47.1,-18.17 84.74,-18.17 29.32,0 50.1,6.02 61.37,17.02 11.38,11.05 17.56,31.07 17.56,59.4 -28.55,11.44 -56.18,20.73 -81.45,27.41 -25.33,6.73 -81.94,19.8 -167.88,36.7 -71.6,14.06 -121.38,36.32 -148.19,65.81 -26.8,29.48 -40.15,67.12 -40.15,112.85 0,48.63 18.98,90.04 55.74,122.91 36.82,32.99 91.52,50 163.07,50 53.88,0 101.52,-8.59 141.84,-24.89 29.59,-11.92 59.84,-32.98 89.93,-61.92 2.68,17.17 5.69,30.08 7.93,37.8 2.24,7.76 8.26,19.69 16.96,35.12l215.58 0c-11.98,-24.89 -20.19,-45.73 -23.36,-61.38 -3.23,-15.7 -5.42,-38.18 -5.42,-66.57l0 -265.52c0,-28.34 -6.07,-58.42 -17.01,-89.17 -10.94,-30.68 -27.08,-55.41 -46.28,-72.15 -27.57,-24.01 -63.12,-41.02 -104.42,-48.41 -41.52,-7.38 -97.04,-11.6 -165.91,-11.6 -43.05,0 -83.37,3.61 -119.85,9.63 -36.54,6.02 -66.14,15.87 -86.87,27.24 -29.1,15.92 -52.18,35.67 -67.5,57.49 -15.26,21.67 -27.62,52.3 -35.88,90.86l219.95 23.2zm-595.1 175.97l0 230.41 245.45 0 0 -230.41 -245.45 0zm-1062.69 -370.49l222.69 600.9 205.74 0 117.5 -361.64 121.6 361.64 204.53 0 220.94 -600.9 -221.16 0 -96.88 377.82 -126.96 -377.82 -206.06 0 -122.75 377.22 -96.66 -377.22 -222.53 0zm-1092.77 0l222.69 600.9 205.73 0 117.5 -361.64 121.6 361.64 204.53 0 220.94 -600.9 -221.16 0 -96.87 377.82 -126.96 -377.82 -206.06 0 -122.76 377.22 -96.65 -377.22 -222.53 0zm-1092.77 0l222.69 600.9 205.73 0 117.5 -361.64 121.6 361.64 204.53 0 220.94 -600.9 -221.16 0 -96.88 377.82 -126.96 -377.82 -206.06 0 -122.75 377.22 -96.66 -377.22 -222.52 0zm14863.24 -14849.51c676.66,0 1292.05,277.06 1738.25,723.26 446.2,446.2 723.27,1061.59 723.27,1738.25l0 13675.56c0,676.66 -277.07,1292.06 -723.27,1738.26 -446.2,446.2 -1061.59,723.26 -1738.25,723.26l-13675.51 0c-676.66,0 -1292.05,-277.06 -1738.25,-723.26 -446.2,-446.2 -723.26,-1061.6 -723.26,-1738.26l0 -13675.56c0,-676.66 277.06,-1292.05 723.26,-1738.25 446.2,-446.2 1061.59,-723.26 1738.25,-723.26l13675.51 0zm-13675.51 -547.02c-827.63,0 -1579.89,338.44 -2124.99,883.54 -545.1,545.1 -883.54,1297.36 -883.54,2124.99l0 13675.56c0,827.64 338.44,1579.9 883.54,2125 545.1,545.1 1297.36,883.54 2124.99,883.54l13675.51 0c827.64,0 1579.89,-338.44 2124.99,-883.54 545.1,-545.1 883.54,-1297.36 883.54,-2125l0 -13675.56c0,-827.63 -338.44,-1579.89 -883.54,-2124.99 -545.1,-545.1 -1297.35,-883.54 -2124.99,-883.54l-13675.51 0zm13981.84 14009.13l-479.35 0 240.19 -787.37 239.16 787.37zm143.32 474.27l109.62 361.03 708.82 0 -821.01 -2190.75 -740.99 0 -824.57 2190.75 690.99 0 110.17 -361.03 766.97 0zm-3557.47 -1829.72l0 2190.75 1845.03 0 0 -495.66 -1165.74 0 0 -431.43 1049.5 0 0 -446.74 -1049.5 0 0 -348.78 1132.1 0 0 -468.14 -1811.39 0zm-1175.42 1355.45l-479.35 0 240.19 -787.37 239.16 787.37zm143.31 474.27l109.63 361.03 708.82 0 -821.02 -2190.75 -740.98 0 -824.58 2190.75 690.99 0 110.17 -361.03 766.97 0zm-2795.08 -431.44l452.82 0 0 204.97c-88.73,52.02 -167.61,89.71 -235.6,111.21 -68.43,21.66 -140.75,32.6 -216.24,32.6 -159.07,0 -283.74,-51.42 -372.3,-152.45 -88.72,-101.2 -133.58,-270.78 -133.58,-507.41 0,-222.86 44.15,-386.42 132.05,-489.04 87.91,-102.67 206.61,-154.53 354.47,-154.53 99.94,0 181.83,22.43 245.83,66.3 63.78,43.65 109.62,107.6 136.64,190.74l651.72 -117.33c-39.77,-141.24 -99.45,-258.03 -178.5,-350.31 -79.04,-92.28 -178.82,-160.38 -298.83,-203.98 -119.47,-43.43 -300.86,-65.81 -542.59,-65.81 -250.86,0 -451.39,35.23 -599.25,106.07 -190.03,91.08 -334.94,226.24 -432.91,402.38 -98.19,176.58 -147.91,384.5 -147.91,623.66 0,226.95 45.29,428.69 135.11,603.3 90.04,175.05 217.71,307.64 380.94,395.71 163.45,88.18 375.91,133.09 636.02,133.09 211.09,0 394.07,-24.78 547.67,-73.96 153.16,-49.06 330.45,-142.77 530.88,-279.41l0 -931.68 -1046.44 0 0 455.88zm-3644.22 -1398.28l0 2190.75 636.45 0 0 -1203 816.91 1203 639.52 0 0 -2190.75 -639.52 0 0 1209.62 -821.5 -1209.62 -631.86 0zm-1181.56 1355.45l-479.35 0 240.2 -787.37 239.15 787.37zm143.32 474.27l109.62 361.03 708.83 0 -821.02 -2190.75 -740.99 0 -824.57 2190.75 690.99 0 110.17 -361.03 766.97 0zm-2621.19 -893.45l0 -489.58 193.75 0c127.51,0 214.43,24.46 260.11,71.94 45.89,47.7 69.36,106.06 69.36,174.88 0,70.89 -26.58,129.09 -79.59,174.39 -53.01,45.29 -146,68.37 -276.9,68.37l-166.73 0zm-679.28 -936.27l0 2190.75 679.28 0 0 -810.85 371.26 0c273.34,0 477,-62.68 609.87,-187.13 132.65,-124.23 199.93,-297.8 199.93,-519.12 0,-215.74 -61.43,-382.47 -183.08,-498.77 -121.88,-116.57 -306.66,-174.88 -551.29,-174.88l-1125.97 0zm15655.81 -1036.54l0 -160.55 107.05 0c44.53,0 75.11,7.17 90.91,20.52 15.76,13.23 24.18,33.14 24.18,58.64 0,17.23 -5.52,32.76 -15.37,45.84 -9.79,12.96 -23.85,21.6 -39.44,24.72 -31.67,6.4 -54.21,10.83 -64.49,10.83l-102.84 0zm-244.08 467.32l244.08 0 0 -318.91 21.44 0c22.21,0 42.67,6.18 59.79,18.16 12.58,8.8 27.57,30.36 43.98,60.66l129.92 240.09 274.93 0 -118.21 -227.45c-5.85,-11.38 -17.4,-28.23 -33.92,-48.91 -16.68,-20.78 -30.47,-35.33 -38.83,-41.4 -12.91,-9.36 -34.3,-19.26 -63.24,-29 36.1,-8.26 65.04,-19.03 85.39,-31.12 32.49,-19.42 58.69,-45.9 76.96,-77.35 18.22,-31.45 28.07,-69.47 28.07,-113.07 0,-50.21 -12.42,-93.32 -36.49,-127.95 -24.01,-34.46 -56.83,-59.07 -96.22,-71.65 -39.28,-12.59 -97.86,-19.42 -172.26,-19.42l-405.39 0 0 787.32zm-815.76 -787.32l0 787.32 663.09 0 0 -178.17 -418.96 0 0 -155.02 377.17 0 0 -160.55 -377.17 0 0 -125.32 406.87 0 0 -168.26 -651 0zm-952.8 0l306.83 457.63 0 329.69 244.07 0 0 -329.69 305.73 -457.63 -268.69 0 -158.53 265.03 -159.29 -265.03 -270.12 0zm-268.09 487.11l-172.25 0 86.32 -282.97 85.93 282.97zm51.48 170.45l39.44 129.76 254.74 0 -295.06 -787.32 -266.29 0 -296.37 787.32 248.35 0 39.54 -129.76 275.65 0zm-1236.15 -657.56l0 787.32 623.49 0 0 -193.54 -380.45 0 0 -593.78 -243.04 0zm-569.39 336.47l0 -175.92 69.64 0c45.84,0 77.29,8.97 93.48,25.82 16.3,16.9 24.89,38.12 24.89,62.85 0,25.49 -9.85,46.77 -28.55,62.69 -18.71,15.97 -52.96,24.56 -99.51,24.56l-59.95 0zm-244.13 -336.47l0 787.32 244.13 0 0 -291.4 133.42 0c98.24,0 171.71,-22.81 219.19,-67.28 47.42,-44.42 71.82,-107 71.82,-186.53 0,-77.52 -22.32,-137.69 -65.75,-179.26 -43.6,-41.63 -110.72,-62.85 -198.13,-62.85l-404.68 0zm-1316.01 0l0 787.32 228.7 0 0 -432.31 293.59 432.31 229.8 0 0 -787.32 -229.8 0 0 434.71 -295.23 -434.71 -227.06 0zm-724.31 394.78c0,-80.14 15.32,-138.01 44.75,-172.31 29.37,-34.25 69.25,-52.02 118.37,-52.02 51.31,0 92.17,17.34 121.88,51.31 29.54,33.69 44.91,88.12 44.91,162.19 0,88.12 -14.72,149.33 -43.11,183.08 -28.22,33.54 -69.25,50.93 -121.49,50.93 -50.93,0 -91.68,-17.72 -120.94,-52.02 -29.22,-34.24 -44.37,-91.84 -44.37,-171.16zm-242.98 -0.55c0,91.95 18.49,168.92 54.21,229.64 35.77,60.83 83.75,106.34 141.51,134.29 57.87,27.95 131.78,42.34 220.45,42.34 87.41,0 160.77,-16.63 219.02,-49.12 58.15,-32.39 103.39,-78.61 134.35,-137.41 30.96,-58.81 46.33,-134.19 46.33,-226.19 0,-126.64 -35.66,-225.59 -106.28,-295.61 -70.51,-69.85 -171.93,-105.36 -302.94,-105.36 -127.95,0 -227.94,36.11 -299.27,107.38 -71.28,71.17 -107.38,171.55 -107.38,300.04zm-405.61 -394.23l0 787.32 244.13 0 0 -787.32 -244.13 0zm-877.31 0l0 194.63 248.51 0 0 592.69 243.04 0 0 -592.69 248.51 0 0 -194.63 -740.06 0zm-366.88 0l0 480.17c0,42.88 -12.26,77.73 -35.56,100.98 -23.46,23.46 -56.61,35.72 -98.24,35.72 -42.12,0 -75.49,-12.42 -98.96,-36.27 -23.3,-23.63 -35.55,-57.55 -35.55,-100.43l0 -480.17 -242.99 0 0 468.95c0,37.97 7.88,83.37 22.54,133.09 9.03,30.74 26.97,61.71 51.86,90.7 24.83,28.93 53.28,52.24 83.36,67.83 30.03,15.59 68.71,26.97 113.62,31.89 44.91,4.98 87.08,8.04 125.37,8.04 66.14,0 123.36,-9.08 170.23,-26.2 33.59,-12.2 66.36,-34.25 97.37,-65.26 30.96,-30.96 53.99,-67.45 68.16,-108.47 14.11,-40.92 21.83,-85.23 21.83,-131.62l0 -468.95 -243.04 0zm-1235.82 0l0 787.32 623.49 0 0 -193.54 -380.45 0 0 -593.78 -243.04 0zm-722.06 394.78c0,-80.14 15.32,-138.01 44.74,-172.31 29.38,-34.25 69.26,-52.02 118.38,-52.02 51.31,0 92.17,17.34 121.87,51.31 29.54,33.69 44.91,88.12 44.91,162.19 0,88.12 -14.71,149.33 -43.1,183.08 -28.23,33.54 -69.25,50.93 -121.49,50.93 -50.93,0 -91.68,-17.72 -120.95,-52.02 -29.21,-34.24 -44.36,-91.84 -44.36,-171.16zm-242.99 -0.55c0,91.95 18.49,168.92 54.21,229.64 35.78,60.83 83.75,106.34 141.52,134.29 57.87,27.95 131.77,42.34 220.44,42.34 87.42,0 160.77,-16.63 219.03,-49.12 58.15,-32.39 103.39,-78.61 134.35,-137.41 30.96,-58.81 46.33,-134.19 46.33,-226.19 0,-126.64 -35.67,-225.59 -106.29,-295.61 -70.51,-69.85 -171.92,-105.36 -302.93,-105.36 -127.95,0 -227.95,36.11 -299.28,107.38 -71.27,71.17 -107.38,171.55 -107.38,300.04zm-882.28 -394.23l297.47 787.32 263.55 0 292.27 -787.32 -246.81 0 -174.88 566.65 -177.4 -566.65 -254.2 0zm-855.09 0l0 787.32 228.7 0 0 -432.31 293.59 432.31 229.8 0 0 -787.32 -229.8 0 0 434.71 -295.23 -434.71 -227.06 0zm-724.31 394.78c0,-80.14 15.32,-138.01 44.75,-172.31 29.37,-34.25 69.25,-52.02 118.37,-52.02 51.31,0 92.18,17.34 121.88,51.31 29.54,33.69 44.91,88.12 44.91,162.19 0,88.12 -14.72,149.33 -43.11,183.08 -28.22,33.54 -69.25,50.93 -121.49,50.93 -50.93,0 -91.68,-17.72 -120.94,-52.02 -29.21,-34.24 -44.37,-91.84 -44.37,-171.16zm-242.98 -0.55c0,91.95 18.49,168.92 54.21,229.64 35.77,60.83 83.75,106.34 141.51,134.29 57.88,27.95 131.78,42.34 220.45,42.34 87.41,0 160.77,-16.63 219.02,-49.12 58.15,-32.39 103.39,-78.61 134.35,-137.41 30.96,-58.81 46.33,-134.19 46.33,-226.19 0,-126.64 -35.66,-225.59 -106.28,-295.61 -70.51,-69.85 -171.93,-105.36 -302.94,-105.36 -127.95,0 -227.94,36.11 -299.27,107.38 -71.28,71.17 -107.38,171.55 -107.38,300.04zm-318.42 70.89c-10.83,49.67 -28.44,87.96 -51.86,113.62 -23.52,25.82 -59.02,39.22 -105.57,39.22 -48.03,0 -85.66,-16.41 -111.81,-48.36 -26.26,-32 -39.77,-92 -39.77,-179.25 0,-70.18 11.71,-122.15 33.37,-154.7 29.16,-43.71 71.66,-66.3 127.02,-66.3 24.39,0 46.71,5.31 66.13,14.99 19.26,9.57 36.65,24.62 50.05,42.72 7.88,10.67 16.14,28.39 23.63,52.24l214.49 -47.48c-27.46,-83.2 -70.13,-145.18 -126.47,-184.89 -56.45,-39.82 -134.9,-60.12 -234.07,-60.12 -126.8,0 -225.37,35.29 -294.35,104.81 -69.03,69.58 -103.88,170.07 -103.88,300.2 0,97.48 20.19,178.11 59.19,240.25 39.06,62.14 86.43,106.78 140.36,131.23 53.99,24.51 124.29,37.2 210.06,37.2 70.56,0 128.98,-10.61 174.28,-30.58 45.51,-20.02 84.24,-51.03 114.76,-90.75 30.53,-39.66 53.55,-89.98 67.83,-149.72l-213.39 -64.33zm-1535.8 -145.12l0 -160.55 107.05 0c44.53,0 75.11,7.17 90.91,20.52 15.76,13.23 24.18,33.14 24.18,58.64 0,17.23 -5.52,32.76 -15.37,45.84 -9.79,12.96 -23.85,21.6 -39.44,24.72 -31.67,6.4 -54.21,10.83 -64.49,10.83l-102.84 0zm-244.08 467.32l244.08 0 0 -318.91 21.44 0c22.21,0 42.67,6.18 59.79,18.16 12.58,8.8 27.57,30.36 43.98,60.66l129.92 240.09 274.93 0 -118.21 -227.45c-5.86,-11.38 -17.4,-28.23 -33.92,-48.91 -16.68,-20.78 -30.47,-35.33 -38.84,-41.4 -12.91,-9.36 -34.29,-19.26 -63.23,-29 36.1,-8.26 65.04,-19.03 85.39,-31.12 32.49,-19.42 58.69,-45.9 76.96,-77.35 18.22,-31.45 28.07,-69.47 28.07,-113.07 0,-50.21 -12.42,-93.32 -36.49,-127.95 -24.01,-34.46 -56.84,-59.07 -96.22,-71.65 -39.28,-12.59 -97.86,-19.42 -172.26,-19.42l-405.39 0 0 787.32zm-439.69 -787.32l0 787.32 244.13 0 0 -787.32 -244.13 0zm14473.49 -2250.43c0,-388.6 31.68,-655.16 94.86,-798.8 63.18,-143.65 165.19,-215.53 307.42,-215.53 138.67,0 243.31,70.68 312.51,211.2 69.47,141.08 104.15,416.67 104.15,826.16 0,278.71 -15.37,484.55 -45.24,616.33 -29.76,131.12 -77.18,228.81 -140.8,289.53 -63.56,60.72 -139.38,91.19 -226.3,91.19 -132.16,0 -232.81,-71.82 -302.44,-215.47 -69.64,-143.65 -104.16,-412.34 -104.16,-804.61zm-849.07 -1.42c0,238.5 20.73,456.6 61.75,653.74 40.92,196.54 100.71,352 173.84,465.46 102.9,159.51 233.8,281.98 393.69,364.25 159.79,82.27 369.95,124.29 629.29,124.29 463.32,0 789.56,-130.58 978.39,-389.37 189.05,-259.18 284.5,-668.84 284.5,-1228.43 0,-249.99 -29.59,-490.13 -86.2,-719.82 -29.6,-120.18 -68.93,-226.47 -117.12,-316.78 -48.08,-90.04 -114.76,-176.9 -199.01,-258.63 -83.85,-81.34 -192.87,-148.95 -326.13,-199.71 -132.54,-50.55 -303.86,-76.86 -511.46,-76.86 -431.76,0 -753.57,117.12 -964.77,351.29 -211.2,234.18 -316.77,644.39 -316.77,1230.57zm-2025.82 1.42c0,-388.6 31.67,-655.16 94.85,-798.8 63.18,-143.65 165.2,-215.53 307.42,-215.53 138.67,0 243.31,70.68 312.51,211.2 69.47,141.08 104.15,416.67 104.15,826.16 0,278.71 -15.37,484.55 -45.23,616.33 -29.76,131.12 -77.19,228.81 -140.81,289.53 -63.56,60.72 -139.38,91.19 -226.3,91.19 -132.16,0 -232.81,-71.82 -302.44,-215.47 -69.64,-143.65 -104.15,-412.34 -104.15,-804.61zm-849.08 -1.42c0,238.5 20.73,456.6 61.76,653.74 40.91,196.54 100.7,352 173.84,465.46 102.89,159.51 233.79,281.98 393.69,364.25 159.78,82.27 369.94,124.29 629.28,124.29 463.32,0 789.57,-130.58 978.4,-389.37 189.04,-259.18 284.5,-668.84 284.5,-1228.43 0,-249.99 -29.6,-490.13 -86.21,-719.82 -29.6,-120.18 -68.93,-226.47 -117.12,-316.78 -48.08,-90.04 -114.76,-176.9 -199,-258.63 -83.86,-81.34 -192.88,-148.95 -326.13,-199.71 -132.54,-50.55 -303.87,-76.86 -511.46,-76.86 -431.76,0 -753.57,117.12 -964.77,351.29 -211.21,234.18 -316.78,644.39 -316.78,1230.57zm-931.02 -1581.86l-708.33 0c-91.19,194.68 -217.99,358.84 -379.3,491.38 -160.55,131.84 -387.95,245.67 -679.62,340.52l0 698.21c197.58,-59.62 362.07,-122.8 493.52,-188.17 131.45,-65.37 267.33,-150.87 407.36,-257.21l0 2053.12 866.37 0 0 -3137.85zm-3461.19 1680.98l0 663.8 1245.66 0 0 -663.8 -1245.66 0zm-1940.27 -310.32l0 -689.62 272.96 0c179.59,0 301.9,34.29 366.4,101.3 64.82,67.34 97.69,149.39 97.69,246.38 0,99.83 -37.74,182.1 -112.08,245.66 -74.4,63.57 -205.46,96.28 -390.08,96.28l-234.89 0zm-956.89 -1318.91l0 3086.1 956.89 0 0 -1142.23 522.95 0c385.04,0 671.9,-88.12 859.2,-263.6 186.97,-175.1 281.6,-419.56 281.6,-731.31 0,-303.87 -86.37,-538.59 -257.92,-702.59 -171.87,-164.32 -431.7,-246.37 -776.54,-246.37l-1586.18 0zm-1292.33 1823.2c-42.39,194.69 -110.44,343.58 -203.27,445.38 -93.21,102.24 -231.33,153.77 -413.82,153.77 -188.17,0 -334.55,-63.46 -438.16,-189.65 -104.04,-126.69 -155.89,-360.65 -155.89,-702.59 0,-275.15 44.8,-477.65 130.73,-606.31 115.2,-172.37 280.89,-260.05 497.84,-260.05 95.51,0 181.99,19.91 259.34,58.91 76.42,38.57 142.44,95.29 196.11,167.39 31.83,42.83 63.18,111.32 92.66,204.75l840.49 -186.1c-107.76,-326.13 -273.94,-568.02 -495.7,-724.8 -222.2,-157.15 -528.7,-235.65 -917.35,-235.65 -497.07,0 -882.17,137.25 -1153.71,410.92 -271.6,273.73 -407.31,666.65 -407.31,1176.68 0,382.2 77.95,697.23 232.04,941.8 154.1,244.63 337.79,417.43 550.3,514.36 212.79,97.04 487.01,145.84 823.26,145.84 276.57,0 504.57,-40.76 683.17,-120.02 179.15,-79.48 328.92,-198.89 449.65,-355.56 120.67,-156.56 209.78,-352.72 265.79,-586.89l-836.17 -252.18zm1365.19 -4001.97l-1402.99 0.06 697.72 -1345.5 705.27 1345.44zm426.67 812.92l323.84 616.98 1177.17 0 231.72 0 1091.57 0 0 -2856.51 1020.3 2856.51 1194.24 0 1023.85 -2856.51 0 2856.51 1319.68 0 0 -2820.68 1579.83 0 0 2820.68 1615.61 0 0 -2820.68 1648.33 0 0 -925.45 -4843.77 0 -67.34 0 -2051.04 0 -816.8 2279.04 -820.58 -2279.04 -2125.6 0 0 3304.64 -1734.42 -3304.64 -1761.66 0 -1964.88 3746.13 1380.34 0 325.09 -617.85 2254.52 0.87zm-2717.52 -5875.82c-1504.29,0 -2735.02,1230.73 -2735.02,2735.02l0 13675.56c0,1504.3 1230.73,2735.03 2735.02,2735.03l13675.51 0c1504.29,0 2735.02,-1230.73 2735.02,-2735.03l0 -13675.56c0,-1504.29 -1230.73,-2735.02 -2735.02,-2735.02l-13675.51 0z"/>
 </g>
</svg>
