<svg id="Layer_2" data-name="Layer 2" xmlns="http://www.w3.org/2000/svg" viewBox="0 0 645.43 645.43"><defs><style>.cls-1{fill:#fff;stroke:#1d1d1b;stroke-miterlimit:10;}.cls-2{fill:#3c9beb;}</style></defs><circle class="cls-1" cx="310.28" cy="323.5" r="237.66"/><path class="cls-2" d="M647.92,286.6c-2.53-14-7.42-18-21.7-18.06-10.9-.05-21.8,0-32.7,0-8.62,0-13.69-3.87-16.92-11.86q-11.43-28.27-23.23-56.39c-3.42-8.14-2.74-13.38,3.52-19.72,7.38-7.48,14.92-14.8,22.34-22.25,11.27-11.31,11.9-19.13,1.91-31.39a378.05,378.05,0,0,0-54.7-54.47C516,63.93,508,64.39,498.09,73.81,490.9,80.65,483.9,87.71,477,94.87c-9.29,9.68-14.16,10.2-26.27,4.84-16.83-7.45-33.95-14.3-51.11-21-9.43-3.66-13.52-8.62-13.54-18.68,0-11.48.05-23-.09-34.42-.13-10.92-5.76-17.19-16.76-18.85-6.18-.93-12.38-1.72-18.58-2.57H303.6c-5.43.8-10.87,1.55-16.29,2.42-13.22,2.1-17.78,7.22-18,20.56-.16,11.29,0,22.58-.07,33.86,0,8.66-3.81,13.68-11.81,16.94q-28.51,11.64-56.88,23.59c-7,3-12.76,2.21-18.3-3.18Q170.37,86.81,158.67,75c-10.5-10.61-19.59-12-30.46-1.81-18.93,17.74-37.24,36.18-55,55.09-9.12,9.71-8,18.75,1.34,28.31,8,8.22,16.21,16.24,24.22,24.44,6.07,6.23,6.56,11.73,3.14,19.78Q90.2,228.34,79.07,256.14c-3.27,8.18-8.38,12.31-17.19,12.36-12.05.07-24.1,0-36.15.14-9.46.11-14.56,3.86-17.06,13-1.24,4.55-1.54,9.36-2.29,14C5.94,298.43,5.46,301.2,5,304v45.94c.84,6,1.58,12,2.53,18,2,12.45,7.45,17.24,19.93,17.38,11.28.12,22.56,0,33.85.06,9.59,0,14.29,3.91,17.87,12.93q10.71,27,22.22,53.68c4.09,9.44,3.73,14.37-3.4,21.64-7.49,7.62-15,15.29-22.65,22.71-9.68,9.35-11,18.31-2.58,28.81a367.53,367.53,0,0,0,57.09,57c9.76,7.81,18.6,6.86,27.52-2,8-8,15.88-16,24-23.9,6.73-6.55,12.24-7,20.78-3.29q26.94,11.63,54.17,22.57c9.55,3.82,13,8,13,18.29,0,11.67-.05,23.34.11,35,.12,9.65,3.95,14.76,13.42,17.33,4.53,1.23,9.34,1.52,14,2.13,4.15.55,8.31,1,12.47,1.42h41.34c5.78-.82,11.57-1.59,17.34-2.49,13.17-2,17.9-7.38,18-20.54.12-11.1,0-22.2.06-33.29,0-9.49,4.14-14.58,12.84-18q27-10.68,53.73-22.22c9.2-4,15.24-3.34,22.21,3.81s14,14.15,21,21.21c11.69,11.79,19.86,13,32.14,1.71,18.33-16.91,36-34.63,53-52.93,10.8-11.66,9.59-20.07-1.63-31.35-7.41-7.46-15-14.77-22.36-22.25-6.54-6.62-7.11-11.6-3.49-20.2,7.88-18.75,15.58-37.58,23.24-56.42,3-7.28,8.26-11.23,16.18-11.3,12.24-.1,24.49,0,36.73-.13,9.64-.1,14.83-4.08,17.26-13.51,1.14-4.4,1.43-9,2.13-13.51.44-2.78.93-5.54,1.4-8.31V305.12C649.61,298.94,649,292.72,647.92,286.6Zm-124.51,70c-8.33,54.8-35.07,98.66-78.73,132.21-25,19.22-53.48,31.25-84.54,37-37.95,7.08-75,3.47-110.6-11.05C194,492.14,155.19,452.67,133.92,396.34A142.28,142.28,0,0,1,129,381.16c-.88-3.45-2.57-4.72-6-4.61-5.54.17-11.1.07-16.65,0C89,376.51,79.73,360.38,88.4,345.33c9-15.54,18.13-31,27.19-46.43,4.54-7.74,8.88-15.6,13.6-23.22,9.06-14.62,27-14.79,35.95,0q21,34.82,41.09,70.15c8.61,15.12-1.07,30.8-18.52,30.78H170.43c3.82,8.79,6.52,16.26,10.18,23.24C205.35,447,243.92,476.32,296.44,485c59.38,9.81,109.83-8.79,149.62-53.81,22.83-25.84,35.39-56.72,37.69-91.42,3.62-54.32-15.21-99.67-55.93-135.42-23.92-21-52.36-33.12-84.12-36.82C298,162.2,257.22,174.27,221.38,203c-3.72,3-7,6.49-10.47,9.77-6.59,6.24-14.22,9.14-23,6-8.26-3-12.8-9.28-13.72-18.06-.73-7.06,2.42-12.57,7.24-17.29,28.69-28,62.46-46.43,101.94-54.44,53.48-10.85,103.23-1.26,149,27.8,45.52,28.93,74.76,70.14,87.81,122.55A195,195,0,0,1,523.41,356.58Z" transform="translate(-5 -4.23)"/></svg>