<svg id="Ellipse_1_Image" data-name="Ellipse 1 Image" xmlns="http://www.w3.org/2000/svg" viewBox="0 0 640 640"><defs><style>.cls-1{fill:#fff;}.cls-2{fill:#3c9beb;}</style></defs><circle class="cls-1" cx="322.5" cy="320.5" r="288.5"/><path class="cls-2" d="M345.88,645.5h-36a48.77,48.77,0,0,0-6.24-1.31c-40.76-3.33-79.92-13.07-116.26-31.86Q35.75,533.92,10.83,364.68c-1-7.05-2-14.12-2.95-21.18v-36c.61-3.57,1.46-7.12,1.8-10.71,6.77-70.86,33.69-133,81.52-185.65C142.25,54.94,205.66,21.2,280.73,9.54c10-1.55,20.1-2.7,30.15-4h34c2.11.43,4.2,1,6.33,1.25,12,1.65,24.18,2.73,36.12,4.92C522.92,36.58,628.77,149.54,645,286.35c.84,7.07,1.94,14.1,2.92,21.15v36c-.43,1.93-1,3.84-1.28,5.79-1.63,11.86-2.69,23.83-4.87,35.59C616.57,520.81,504.19,626.14,367,642.59,360,643.44,352.93,644.53,345.88,645.5Zm-291-312.62c.84,61.69,24.52,119.36,70.81,167.78,7.1,7.43,16,10.89,26.17,9.69,7-.83,14.06-2.57,17-10.25,2.7-7,3.93-14.69.58-21.42a100.2,100.2,0,0,0-13.89-20.39C144.9,446,135.32,433,127.86,418.64c-18.57-35.84-25.91-73.77-21.11-114a196.17,196.17,0,0,1,24.3-73.4c8.2-14.62,18.53-27.63,30-39.77,7.8-8.24,11.24-18.06,9.46-29.32-.83-5.24-2.19-10.56-7.46-13.47-10.83-6-24.87-4.91-34.06,3.41a169.08,169.08,0,0,0-18.18,19.19C74.2,216.85,55.26,268.89,54.83,332.88Zm546.29-9.66c-.79-8.26-1.32-21.8-3.49-35.07-8.29-50.76-30.59-94.66-66-131.91-6.07-6.38-13.16-11-22.15-11.15-12.62-.17-21.41,2.69-23.94,15.13-1.44,7.1-1.5,14.47,2.41,20.9a94.56,94.56,0,0,0,10.93,14.76,191.41,191.41,0,0,1,29.53,42c18.34,35.76,25.44,73.58,20.62,113.63a195.94,195.94,0,0,1-23.53,71.63c-8.32,15.12-19,28.55-30.73,41.12-9,9.58-12.22,20.74-8.62,33.62,1.23,4.41,3.64,7.74,7.9,9.7a31.53,31.53,0,0,0,20.41,2.18c10.21-2.18,16.37-9.65,22.82-16.87C579.06,446,599.87,391.07,601.12,323.22Zm-443.54,5c.72,41.15,16,76.68,46.59,105.46a29.71,29.71,0,0,0,17.29,8.24c14.49,1.59,31.25-5.54,30.82-26-.22-10.22-4.45-18.32-11.56-25.1a86.68,86.68,0,0,1,.16-126.26,37.33,37.33,0,0,0,8.4-11.63c5.81-13.05,4.31-32.52-14.32-38.06-12.43-3.71-23.31-.47-32.57,8.53C173.09,251.89,158.37,286.64,157.58,328.19Zm340.52,4.45c-.09-30.35-6.25-54.47-19.14-76.7-8.24-14.22-18.15-27.17-31.39-37.18-9.38-7.08-24.58-7-34.37-.28-8.05,5.57-11.39,17.16-8.72,28.79,1.89,8.24,7.18,14,12.72,19.86,22.71,24.09,30.14,52.29,21.67,84.38-4.05,15.35-12.42,28.26-23.81,39.25-9.75,9.41-14.06,20.72-10.24,33.95a23.52,23.52,0,0,0,7.85,11.57c12,9,27.86,7.71,38.87-2.6C482.08,405.08,497.32,369.7,498.1,332.64ZM327,263c-2.77.31-6.45.48-10,1.18a57.43,57.43,0,0,0-10.05,2.89c-41.76,16.57-54.24,72.86-23.87,107.49,24.65,28.1,66.58,27.68,90.66-.92,19.47-23.11,21.48-57.78,4.49-82.8C366.17,273.15,349.46,263.57,327,263Z" transform="translate(-7.88 -5.5)"/></svg>