<svg id="Layer_1" data-name="Layer 1" xmlns="http://www.w3.org/2000/svg" viewBox="0 0 525.48 525.48"><defs><style>.cls-1{fill:#353535;}.cls-2{fill:#010101;}.cls-3{fill:#2d2d2d;}.cls-4{fill:#727272;}.cls-5{fill:#fff;}.cls-6,.cls-7{fill:none;}.cls-6{stroke:#676767;stroke-width:5.67px;}.cls-7{stroke:#010101;stroke-width:2.83px;}</style></defs><path class="cls-1" d="M298,681.82a261.32,261.32,0,1,1,184.78-76.54A259.58,259.58,0,0,1,298,681.82Z" transform="translate(-35.26 -157.76)"/><path class="cls-2" d="M298,160.59c143.54,0,259.91,116.37,259.91,259.91S441.54,680.41,298,680.41,38.09,564,38.09,420.5,154.46,160.59,298,160.59m0-2.83a262,262,0,1,0,102.27,20.65A261.1,261.1,0,0,0,298,157.76Z" transform="translate(-35.26 -157.76)"/><circle class="cls-3" cx="298" cy="420.5" r="186.93" transform="translate(-245.31 176.12) rotate(-45)"/><path class="cls-2" d="M298,235c102.45,0,185.51,83.06,185.51,185.51S400.45,606,298,606,112.49,523,112.49,420.5,195.55,235,298,235m0-2.84A187.84,187.84,0,1,0,371.31,247,187,187,0,0,0,298,232.15Z" transform="translate(-35.26 -157.76)"/><circle class="cls-1" cx="296.57" cy="421.93" r="164.16" transform="translate(-246.74 175.53) rotate(-45)"/><path class="cls-2" d="M296.57,259.18A162.75,162.75,0,1,1,133.83,421.93,162.76,162.76,0,0,1,296.57,259.18m0-2.83a165.56,165.56,0,1,0,117.09,48.49,164.52,164.52,0,0,0-117.09-48.49Z" transform="translate(-35.26 -157.76)"/><path class="cls-4" d="M298,283.66A136.84,136.84,0,1,1,161.16,420.5,136.83,136.83,0,0,1,298,283.66m0-5.67a142.51,142.51,0,1,0,100.77,41.74A141.56,141.56,0,0,0,298,278Z" transform="translate(-35.26 -157.76)"/><circle class="cls-5" cx="298" cy="420.5" r="132.01" transform="translate(-245.31 176.12) rotate(-45)"/><path class="cls-1" d="M298,294.16A126.34,126.34,0,1,1,171.66,420.5,126.33,126.33,0,0,1,298,294.16m0-11.34a137.66,137.66,0,1,0,97.36,40.32A136.81,136.81,0,0,0,298,282.82Z" transform="translate(-35.26 -157.76)"/><circle class="cls-2" cx="298" cy="420.5" r="102.09" transform="translate(-245.31 176.12) rotate(-45)"/><path class="cls-4" d="M298,321.25a99.25,99.25,0,1,1-99.25,99.25A99.24,99.24,0,0,1,298,321.25m0-5.67A104.92,104.92,0,1,0,402.92,420.5,105,105,0,0,0,298,315.58Z" transform="translate(-35.26 -157.76)"/><polygon class="cls-6" points="477.68 385.2 262.74 507.66 47.81 385.2 47.81 140.28 262.74 17.82 477.68 140.28 477.68 385.2"/><polygon class="cls-7" points="481.85 387.58 262.74 512.41 43.64 387.58 43.64 137.91 262.74 13.07 481.85 137.91 481.85 387.58"/></svg>